<svg xmlns="http://www.w3.org/2000/svg" width="142" height="129" viewBox="0 0 142 129" fill="none"><circle cx="60" cy="60" r="60" fill="#F5D3D4"></circle><rect x="17" y="50.4702" width="38" height="64.0106" fill="white"></rect><rect x="57" y="15.4644" width="83" height="100.017" fill="white"></rect><path d="M50.3462 116.259H21.8534C18.1898 116.259 15.2117 113.277 15.2117 109.616V54.5922C15.2117 50.928 18.1926 47.9493 21.8534 47.9493H50.3462C54.0099 47.9493 56.988 50.9308 56.988 54.5922C56.988 55.3774 56.3509 56.0147 55.5658 56.0147C54.7807 56.0147 54.1436 55.3774 54.1436 54.5922C54.1436 52.4984 52.4398 50.7943 50.3462 50.7943H21.8534C19.7599 50.7943 18.0561 52.4984 18.0561 54.5922V109.616C18.0561 111.71 19.7599 113.414 21.8534 113.414H50.3462C52.4398 113.414 54.1436 111.71 54.1436 109.616C54.1436 108.831 54.7807 108.193 55.5658 108.193C56.3509 108.193 56.988 108.831 56.988 109.616C56.988 113.28 54.007 116.259 50.3462 116.259ZM36.0984 96.8051C27.9946 96.8051 21.4012 90.2106 21.4012 82.1054C21.4012 74.0003 27.9946 67.4057 36.0984 67.4057C44.2022 67.4057 50.7957 74.0003 50.7957 82.1054C50.7957 90.2106 44.2022 96.8051 36.0984 96.8051ZM36.0984 70.2506C29.5619 70.2506 24.2456 75.5678 24.2456 82.1054C24.2456 88.643 29.5619 93.9602 36.0984 93.9602C42.635 93.9602 47.9512 88.643 47.9512 82.1054C47.9512 75.5678 42.635 70.2506 36.0984 70.2506ZM46.6115 91.6359C45.9772 91.6359 45.3998 91.2091 45.2348 90.5662C44.5265 87.8152 42.5525 85.4738 39.9498 84.3102C39.233 83.9887 38.9116 83.1466 39.233 82.4297C39.5544 81.7128 40.3964 81.3913 41.1132 81.7128C44.4981 83.2292 47.0666 86.2732 47.9882 89.8578C48.1845 90.6174 47.7265 91.3941 46.9642 91.5904C46.8476 91.6217 46.7281 91.6359 46.6115 91.6359ZM25.5882 91.6359C25.4716 91.6359 25.3521 91.6217 25.2326 91.5904C24.4732 91.3941 24.0152 90.6202 24.2086 89.8578C25.1302 86.2732 27.7016 83.2292 31.0837 81.7128C31.8005 81.3913 32.6424 81.7128 32.9638 82.4297C33.2853 83.1466 32.9638 83.9887 32.247 84.3102C29.6472 85.4766 27.6703 87.8152 26.9621 90.5662C26.7999 91.2091 26.2197 91.6359 25.5882 91.6359ZM40.7377 55.8639H31.462C30.6769 55.8639 30.0398 55.2267 30.0398 54.4415C30.0398 53.6563 30.6769 53.019 31.462 53.019H40.7377C41.5228 53.019 42.1599 53.6563 42.1599 54.4415C42.1599 55.2267 41.5228 55.8639 40.7377 55.8639ZM38.8518 61.3546H33.345C32.5599 61.3546 31.9228 60.7173 31.9228 59.9321C31.9228 59.1469 32.5599 58.5097 33.345 58.5097H38.8518C39.6369 58.5097 40.2741 59.1469 40.2741 59.9321C40.2741 60.7173 39.6398 61.3546 38.8518 61.3546ZM38.8518 111.189H33.345C32.5599 111.189 31.9228 110.552 31.9228 109.767C31.9228 108.981 32.5599 108.344 33.345 108.344H38.8518C39.6369 108.344 40.2741 108.981 40.2741 109.767C40.2741 110.552 39.6398 111.189 38.8518 111.189ZM134.388 116.259H60.6915C57.0819 116.259 54.1436 113.32 54.1436 109.71V19.6567C54.1436 16.0465 57.0819 13.1077 60.6915 13.1077H134.388C138.001 13.1077 140.936 16.0465 140.936 19.6567V109.71C140.936 113.32 137.998 116.259 134.388 116.259ZM60.6915 15.9526C58.6492 15.9526 56.988 17.614 56.988 19.6567V109.71C56.988 111.752 58.6492 113.414 60.6915 113.414H134.388C136.431 113.414 138.092 111.752 138.092 109.71V19.6567C138.092 17.614 136.431 15.9526 134.388 15.9526H60.6915ZM92.8934 83.3316H65.6579C63.1946 83.3316 61.1921 81.3288 61.1921 78.8651V50.5041C61.1921 48.0404 63.1946 46.0376 65.6579 46.0376H92.8934C95.3567 46.0376 97.3592 48.0404 97.3592 50.5041V78.8651C97.3592 81.3259 95.3567 83.3316 92.8934 83.3316ZM65.6579 48.8796C64.7647 48.8796 64.0366 49.6079 64.0366 50.5012V78.8622C64.0366 79.7555 64.7647 80.4838 65.6579 80.4838H92.8934C93.7866 80.4838 94.5148 79.7555 94.5148 78.8622V50.5012C94.5148 49.6079 93.7866 48.8796 92.8934 48.8796H65.6579ZM130.167 83.3316H109.61C107.559 83.3316 105.89 81.6616 105.89 79.6104V49.7559C105.89 47.7047 107.559 46.0347 109.61 46.0347H130.167C132.218 46.0347 133.888 47.7047 133.888 49.7559V79.6104C133.888 81.6616 132.218 83.3316 130.167 83.3316ZM109.61 48.8796C109.135 48.8796 108.734 49.2808 108.734 49.7559V79.6104C108.734 80.0855 109.135 80.4867 109.61 80.4867H130.167C130.642 80.4867 131.043 80.0855 131.043 79.6104V49.7559C131.043 49.2808 130.642 48.8796 130.167 48.8796H109.61ZM78.0711 75.1467C77.7553 75.1467 77.4367 75.0415 77.1722 74.8253C76.5635 74.3274 76.4725 73.4313 76.9703 72.8224L87.9498 59.3717C88.2399 59.0189 88.678 58.8255 89.1359 58.8511C89.591 58.8795 90.0063 59.1213 90.251 59.5082L97.1374 70.3303C97.5583 70.9932 97.3649 71.8722 96.7022 72.2933C96.0394 72.7143 95.1605 72.518 94.7395 71.858L88.9112 62.6946L79.1747 74.6204C78.8903 74.9704 78.4835 75.1467 78.0711 75.1467ZM83.2792 83.3316C82.8099 83.3316 82.3491 83.0983 82.0789 82.6716L73.2469 68.7884L63.7806 80.3814C63.2828 80.9902 62.3868 81.0812 61.7781 80.5834C61.1694 80.0855 61.0783 79.1894 61.5761 78.5806L72.2854 65.4627C72.5727 65.1099 73.0165 64.9136 73.4716 64.942C73.9267 64.9705 74.342 65.2123 74.5866 65.5992L84.4767 81.1438C84.8977 81.8067 84.7043 82.6858 84.0415 83.1068C83.8026 83.2604 83.5409 83.3316 83.2792 83.3316ZM129.422 41.5511H65.6579C63.1946 41.5511 61.1921 39.5483 61.1921 37.0846V24.9055C61.1921 22.4418 63.1946 20.439 65.6579 20.439H129.422C131.885 20.439 133.888 22.4418 133.888 24.9055V37.0846C133.888 39.5455 131.882 41.5511 129.422 41.5511ZM65.6579 23.2839C64.7647 23.2839 64.0366 24.0122 64.0366 24.9055V37.0846C64.0366 37.9779 64.7647 38.7062 65.6579 38.7062H129.422C130.315 38.7062 131.043 37.9779 131.043 37.0846V24.9055C131.043 24.0122 130.315 23.2839 129.422 23.2839H65.6579ZM115.655 34.9396C114.19 34.9396 112.81 34.3677 111.775 33.3322C110.739 32.2966 110.168 30.9168 110.168 29.4517C110.168 27.9866 110.739 26.6068 111.775 25.5712C113.914 23.4319 117.395 23.4319 119.535 25.5712C121.674 27.7106 121.674 31.1928 119.535 33.3322C118.499 34.3677 117.12 34.9396 115.655 34.9396ZM115.655 26.8088C114.978 26.8088 114.301 27.0677 113.786 27.5826C113.285 28.0805 113.012 28.7462 113.012 29.4517C113.012 30.1572 113.288 30.823 113.786 31.3208C114.287 31.8215 114.949 32.0946 115.655 32.0946C116.36 32.0946 117.026 31.8187 117.523 31.3208C118.553 30.291 118.553 28.6125 117.523 27.5826C117.009 27.0648 116.332 26.8088 115.655 26.8088ZM122.806 38.0263C122.442 38.0263 122.077 37.8869 121.799 37.6109L117.523 33.3322C116.969 32.7774 116.969 31.8756 117.523 31.3208C118.078 30.7661 118.98 30.7661 119.535 31.3208L123.81 35.5996C124.364 36.1543 124.364 37.0562 123.81 37.6109C123.534 37.8869 123.17 38.0263 122.806 38.0263ZM99.6689 32.3365H72.2741C71.489 32.3365 70.8518 31.6992 70.8518 30.914C70.8518 30.1288 71.489 29.4915 72.2741 29.4915H99.6689C100.454 29.4915 101.091 30.1288 101.091 30.914C101.091 31.6992 100.454 32.3365 99.6689 32.3365ZM74.6293 108.927H65.0179C62.9102 108.927 61.1921 107.212 61.1921 105.101V91.6416C61.1921 89.5306 62.9073 87.8151 65.0179 87.8151H74.6293C76.737 87.8151 78.4551 89.5306 78.4551 91.6416V105.101C78.4551 107.212 76.7398 108.927 74.6293 108.927ZM65.0179 90.6629C64.486 90.6629 64.0366 91.1124 64.0366 91.6444V105.104C64.0366 105.644 64.4775 106.085 65.0179 106.085H74.6293C75.1697 106.085 75.6106 105.644 75.6106 105.104V91.6416C75.6106 91.1096 75.1612 90.6601 74.6293 90.6601H65.0179V90.6629ZM129.422 108.927H91.4513C88.988 108.927 86.9855 106.924 86.9855 104.461V92.2817C86.9855 89.818 88.988 87.8151 91.4513 87.8151H129.422C131.885 87.8151 133.888 89.818 133.888 92.2817V104.461C133.888 106.924 131.882 108.927 129.422 108.927ZM91.4513 90.6629C90.5582 90.6629 89.83 91.3912 89.83 92.2845V104.464C89.83 105.357 90.5582 106.085 91.4513 106.085H129.422C130.315 106.085 131.043 105.357 131.043 104.464V92.2845C131.043 91.3912 130.315 90.6629 129.422 90.6629H91.4513ZM77.9743 63.2607C74.7943 63.2607 72.2058 60.6718 72.2058 57.4912C72.2058 54.3106 74.7943 51.7217 77.9743 51.7217C81.1544 51.7217 83.7429 54.3106 83.7429 57.4912C83.7429 60.6718 81.1544 63.2607 77.9743 63.2607ZM77.9743 54.5666C76.3615 54.5666 75.0503 55.8781 75.0503 57.4912C75.0503 59.1043 76.3615 60.4158 77.9743 60.4158C79.5871 60.4158 80.8984 59.1043 80.8984 57.4912C80.8984 55.8781 79.5843 54.5666 77.9743 54.5666ZM126.617 54.9678H113.16C112.375 54.9678 111.738 54.3305 111.738 53.5453C111.738 52.7601 112.375 52.1228 113.16 52.1228H126.617C127.402 52.1228 128.039 52.7601 128.039 53.5453C128.039 54.3305 127.402 54.9678 126.617 54.9678ZM126.617 62.393H113.16C112.375 62.393 111.738 61.7557 111.738 60.9705C111.738 60.1853 112.375 59.5481 113.16 59.5481H126.617C127.402 59.5481 128.039 60.1853 128.039 60.9705C128.039 61.7557 127.402 62.393 126.617 62.393ZM126.617 69.8182H113.16C112.375 69.8182 111.738 69.181 111.738 68.3958C111.738 67.6106 112.375 66.9733 113.16 66.9733H126.617C127.402 66.9733 128.039 67.6106 128.039 68.3958C128.039 69.181 127.402 69.8182 126.617 69.8182ZM126.617 77.2435H113.16C112.375 77.2435 111.738 76.6062 111.738 75.821C111.738 75.0358 112.375 74.3985 113.16 74.3985H126.617C127.402 74.3985 128.039 75.0358 128.039 75.821C128.039 76.6062 127.402 77.2435 126.617 77.2435ZM103.586 99.7951H94.5347C93.7496 99.7951 93.1125 99.1578 93.1125 98.3726C93.1125 97.5874 93.7496 96.9502 94.5347 96.9502H103.586C104.371 96.9502 105.008 97.5874 105.008 98.3726C105.008 99.1578 104.374 99.7951 103.586 99.7951ZM126.336 99.7951H108.472C107.687 99.7951 107.05 99.1578 107.05 98.3726C107.05 97.5874 107.687 96.9502 108.472 96.9502H126.336C127.121 96.9502 127.758 97.5874 127.758 98.3726C127.758 99.1578 127.123 99.7951 126.336 99.7951ZM36.0984 86.5179C32.139 86.5179 28.9162 83.2946 28.9162 79.3345C28.9162 75.3743 32.139 72.1539 36.0984 72.1539C40.0579 72.1539 43.2806 75.3772 43.2806 79.3373C43.2806 83.2974 40.0579 86.5179 36.0984 86.5179ZM36.0984 74.9988C33.7062 74.9988 31.7606 76.9447 31.7606 79.3373C31.7606 81.7299 33.7062 83.6758 36.0984 83.6758C38.4906 83.6758 40.4362 81.7299 40.4362 79.3373C40.4362 76.9447 38.4906 74.9988 36.0984 74.9988Z" fill="black"></path><path d="M36.0984 96.8049C27.9945 96.8049 21.4011 90.2104 21.4011 82.1052C21.4011 74 27.9945 67.4055 36.0984 67.4055C44.2022 67.4055 50.7956 74 50.7956 82.1052C50.7956 90.2104 44.2022 96.8049 36.0984 96.8049ZM36.0984 70.2504C29.5618 70.2504 24.2456 75.5676 24.2456 82.1052C24.2456 88.6428 29.5618 93.96 36.0984 93.96C42.6349 93.96 47.9512 88.6428 47.9512 82.1052C47.9512 75.5676 42.6349 70.2504 36.0984 70.2504ZM46.6114 91.6357C45.9771 91.6357 45.3997 91.2089 45.2347 90.566C44.5265 87.8149 42.5524 85.4736 39.9497 84.31C39.2329 83.9885 38.9115 83.1464 39.2329 82.4295C39.5544 81.7126 40.3963 81.3911 41.1131 81.7126C44.498 83.2289 47.0665 86.273 47.9881 89.8576C48.1844 90.6172 47.7265 91.3938 46.9641 91.5901C46.8475 91.6214 46.7281 91.6357 46.6114 91.6357ZM25.5881 91.6357C25.4715 91.6357 25.3521 91.6214 25.2326 91.5901C24.4731 91.3938 24.0152 90.62 24.2086 89.8576C25.1302 86.273 27.7016 83.2289 31.0836 81.7126C31.8004 81.3911 32.6424 81.7126 32.9638 82.4295C33.2852 83.1464 32.9638 83.9885 32.247 84.31C29.6472 85.4764 27.6703 87.8149 26.962 90.566C26.7999 91.2089 26.2196 91.6357 25.5881 91.6357ZM36.0984 86.5177C32.1389 86.5177 28.9161 83.2944 28.9161 79.3342C28.9161 75.3741 32.1389 72.1537 36.0984 72.1537C40.0578 72.1537 43.2806 75.377 43.2806 79.3371C43.2806 83.2972 40.0578 86.5177 36.0984 86.5177ZM36.0984 74.9986C33.7062 74.9986 31.7606 76.9445 31.7606 79.3371C31.7606 81.7297 33.7062 83.6756 36.0984 83.6756C38.4905 83.6756 40.4361 81.7297 40.4361 79.3371C40.4361 76.9445 38.4905 74.9986 36.0984 74.9986Z" fill="#CB2127"></path><path d="M92.8935 83.3315H65.6579C63.1946 83.3315 61.1921 81.3287 61.1921 78.865V50.504C61.1921 48.0403 63.1946 46.0375 65.6579 46.0375H92.8935C95.3567 46.0375 97.3592 48.0403 97.3592 50.504V78.865C97.3592 81.3258 95.3567 83.3315 92.8935 83.3315ZM65.6579 48.8796C64.7648 48.8796 64.0366 49.6079 64.0366 50.5012V78.8622C64.0366 79.7555 64.7648 80.4838 65.6579 80.4838H92.8935C93.7866 80.4838 94.5148 79.7555 94.5148 78.8622V50.5012C94.5148 49.6079 93.7866 48.8796 92.8935 48.8796H65.6579ZM130.167 83.3315H109.61C107.559 83.3315 105.89 81.6615 105.89 79.6104V49.7558C105.89 47.7046 107.559 46.0347 109.61 46.0347H130.167C132.218 46.0347 133.888 47.7046 133.888 49.7558V79.6104C133.888 81.6615 132.218 83.3315 130.167 83.3315ZM109.61 48.8796C109.135 48.8796 108.734 49.2807 108.734 49.7558V79.6104C108.734 80.0855 109.135 80.4866 109.61 80.4866H130.167C130.642 80.4866 131.043 80.0855 131.043 79.6104V49.7558C131.043 49.2807 130.642 48.8796 130.167 48.8796H109.61ZM78.0711 75.1467C77.7553 75.1467 77.4368 75.0414 77.1722 74.8252C76.5635 74.3274 76.4725 73.4312 76.9703 72.8224L87.9498 59.3716C88.24 59.0189 88.678 58.8254 89.136 58.851C89.5911 58.8795 90.0064 59.1213 90.251 59.5082L97.1374 70.3302C97.5584 70.9931 97.3649 71.8722 96.7022 72.2932C96.0394 72.7143 95.1605 72.518 94.7395 71.858L88.9112 62.6945L79.1747 74.6204C78.8903 74.9703 78.4835 75.1467 78.0711 75.1467ZM83.2792 83.3315C82.8099 83.3315 82.3491 83.0982 82.0789 82.6715L73.2469 68.7883L63.7806 80.3813C63.2828 80.9902 62.3868 81.0812 61.7781 80.5833C61.1694 80.0855 61.0784 79.1893 61.5761 78.5805L72.2855 65.4626C72.5728 65.1098 73.0165 64.9135 73.4716 64.942C73.9267 64.9704 74.342 65.2122 74.5866 65.5992L84.4768 81.1438C84.8977 81.8066 84.7043 82.6857 84.0416 83.1068C83.8026 83.2604 83.5409 83.3315 83.2792 83.3315ZM77.9744 63.2606C74.7943 63.2606 72.2058 60.6718 72.2058 57.4911C72.2058 54.3105 74.7943 51.7216 77.9744 51.7216C81.1544 51.7216 83.7429 54.3105 83.7429 57.4911C83.7429 60.6718 81.1544 63.2606 77.9744 63.2606ZM77.9744 54.5666C76.3616 54.5666 75.0503 55.8781 75.0503 57.4911C75.0503 59.1042 76.3616 60.4157 77.9744 60.4157C79.5872 60.4157 80.8984 59.1042 80.8984 57.4911C80.8984 55.8781 79.5843 54.5666 77.9744 54.5666ZM126.617 54.9677H113.16C112.375 54.9677 111.738 54.3304 111.738 53.5452C111.738 52.76 112.375 52.1228 113.16 52.1228H126.617C127.402 52.1228 128.039 52.76 128.039 53.5452C128.039 54.3304 127.402 54.9677 126.617 54.9677ZM126.617 62.3929H113.16C112.375 62.3929 111.738 61.7557 111.738 60.9705C111.738 60.1853 112.375 59.548 113.16 59.548H126.617C127.402 59.548 128.039 60.1853 128.039 60.9705C128.039 61.7557 127.402 62.3929 126.617 62.3929ZM126.617 69.8182H113.16C112.375 69.8182 111.738 69.1809 111.738 68.3957C111.738 67.6105 112.375 66.9732 113.16 66.9732H126.617C127.402 66.9732 128.039 67.6105 128.039 68.3957C128.039 69.1809 127.402 69.8182 126.617 69.8182ZM126.617 77.2434H113.16C112.375 77.2434 111.738 76.6061 111.738 75.8209C111.738 75.0357 112.375 74.3985 113.16 74.3985H126.617C127.402 74.3985 128.039 75.0357 128.039 75.8209C128.039 76.6061 127.402 77.2434 126.617 77.2434Z" fill="#CB2127"></path></svg>