<svg xmlns="http://www.w3.org/2000/svg" width="155" height="39" viewBox="0 0 155 39"><g fill="none" fill-rule="evenodd"><g><g><path d="M0 0H270V120H0z" transform="translate(-140 -8875) translate(82 8834)"></path><g><path fill="#71B543" d="M111.44 10.853c-.734 2.38-4.145 4.007-10.223 4.88l-14.521 2.063.366-1.188c1.204-3.912 2.916-6.58 5.122-7.995 2.207-1.41 5.801-2.124 10.78-2.124 6.549 0 9.372 1.457 8.476 4.364zm-80.561 18.8c-2.358.369-5.737.555-10.153.555-7.661 0-11.014-1.548-10.043-4.641.696-2.22 2.703-3.555 6.04-4.003l17.429-2.344-3.273 10.434zM152.403 1.737c-.523-.763-1.146-1.284-3.748-1.483-.68-.054-2.933-.127-6.723-.127-9.957 0-16.726 3.02-20.19 8.986.956-6-4.894-9.003-17.558-9.003-14.872 0-24.157 5.987-27.853 17.962-1.375 4.455-1.515 8.101-.435 10.95l-3.508.238c-2.743.21-6.352.395-8.565.395-5.44 0-8.817-.914-10.123-2.74-1.17-1.638-1.056-4.68.313-9.118C56.28 10.443 61.905 7.134 70.89 7.134c4.657-.009 9.192.49 9.194.49v-.002c.623-.04.9-.69.832-1.229l-.091-.7-.32-2.47c-.21-1.626-1.419-2.589-3.625-2.888-2.02-.138-3.522-.226-5.73-.226h-.123c-11.744.028-19.93 3.883-24.555 11.569 1.7-7.713-3.73-11.57-16.308-11.57-6.992 0-12.004.198-15.047.595-2.33.29-3.75 1.255-4.264 2.894L9.856 6.77c-.18.583.1.872.847.872l.02-.005c.554-.068 2.681-.28 6.318-.57 4.808-.385 8.376-.578 10.72-.578 6.92 0 9.835 1.732 8.75 5.198-.237.767-.762 1.244-1.57 1.428-6.546 1.084-11.744 1.865-15.587 2.34C8.536 16.83 2.284 20.197.604 25.566c-2.309 7.378 3.475 11.065 17.348 11.065 6.92 0 12.727-.405 17.422-1.193 2.705-.452 4.076-1.146 4.619-2.89l2.581-8.222c-.268 8.216 5.496 12.354 17.302 12.354 5.11 0 9.957-.168 12.243-.563 2.422-.421 3.58-.947 4.114-2.772l.521-2.595c2.517 3.921 8.035 5.881 16.555 5.881 8.985 0 14.225-.25 15.72-.751 1.253-.4 2.027-1.047 2.302-1.945.053-.16.082-.33.109-.515l1.077-3.49c.187-.608-.095-.898-.831-.872l-5.75.275c-3.84.211-6.846.32-9.015.32-4.085 0-6.886-.278-8.416-.834-2.273-.874-3.353-2.617-3.25-5.24l18.217-2.333c8.165-1.045 13.627-3.557 16.395-7.54l-6.174 21.495c-.118.406-.071.734.137.976.23.268.623.399 1.207.399h7.537c1.317 0 1.79-.68 1.952-1.25l6.664-23.206c.878-3.053 3.685-4.54 8.586-4.54 4.422 0 7.755.04 9.888.118.056.005.111.007.167.007.417 0 1.166-.15 1.541-1.16l1.17-3.186c.223-.615.178-1.16-.139-1.624z" transform="translate(-140 -8875) translate(82 8834) translate(59 42)"></path><path stroke="#71B543" stroke-width="2.218" d="M111.44 10.853c-.734 2.38-4.145 4.007-10.223 4.88l-14.521 2.063.366-1.188c1.204-3.912 2.916-6.58 5.122-7.995 2.207-1.41 5.801-2.124 10.78-2.124 6.549 0 9.372 1.457 8.476 4.364zm-80.561 18.8c-2.358.369-5.737.555-10.153.555-7.661 0-11.014-1.548-10.043-4.641.696-2.22 2.703-3.555 6.04-4.003l17.429-2.344-3.273 10.434zM152.403 1.737c-.523-.763-1.146-1.284-3.748-1.483-.68-.054-2.933-.127-6.723-.127-9.957 0-16.726 3.02-20.19 8.986.956-6-4.894-9.003-17.558-9.003-14.872 0-24.157 5.987-27.853 17.962-1.375 4.455-1.515 8.101-.435 10.95l-3.508.238c-2.743.21-6.352.395-8.565.395-5.44 0-8.817-.914-10.123-2.74-1.17-1.638-1.056-4.68.313-9.118C56.28 10.443 61.905 7.134 70.89 7.134c4.657-.009 9.192.49 9.194.49v-.002c.623-.04.9-.69.832-1.229l-.091-.7-.32-2.47c-.21-1.626-1.419-2.589-3.625-2.888-2.02-.138-3.522-.226-5.73-.226h-.123c-11.744.028-19.93 3.883-24.555 11.569 1.7-7.713-3.73-11.57-16.308-11.57-6.992 0-12.004.198-15.047.595-2.33.29-3.75 1.255-4.264 2.894L9.856 6.77c-.18.583.1.872.847.872l.02-.005c.554-.068 2.681-.28 6.318-.57 4.808-.385 8.376-.578 10.72-.578 6.92 0 9.835 1.732 8.75 5.198-.237.767-.762 1.244-1.57 1.428-6.546 1.084-11.744 1.865-15.587 2.34C8.536 16.83 2.284 20.197.604 25.566c-2.309 7.378 3.475 11.065 17.348 11.065 6.92 0 12.727-.405 17.422-1.193 2.705-.452 4.076-1.146 4.619-2.89l2.581-8.222c-.268 8.216 5.496 12.354 17.302 12.354 5.11 0 9.957-.168 12.243-.563 2.422-.421 3.58-.947 4.114-2.772l.521-2.595c2.517 3.921 8.035 5.881 16.555 5.881 8.985 0 14.225-.25 15.72-.751 1.253-.4 2.027-1.047 2.302-1.945.053-.16.082-.33.109-.515l1.077-3.49c.187-.608-.095-.898-.831-.872l-5.75.275c-3.84.211-6.846.32-9.015.32-4.085 0-6.886-.278-8.416-.834-2.273-.874-3.353-2.617-3.25-5.24l18.217-2.333c8.165-1.045 13.627-3.557 16.395-7.54l-6.174 21.495c-.118.406-.071.734.137.976.23.268.623.399 1.207.399h7.537c1.317 0 1.79-.68 1.952-1.25l6.664-23.206c.878-3.053 3.685-4.54 8.586-4.54 4.422 0 7.755.04 9.888.118.056.005.111.007.167.007.417 0 1.166-.15 1.541-1.16l1.17-3.186c.223-.615.178-1.16-.139-1.624z" transform="translate(-140 -8875) translate(82 8834) translate(59 42)"></path></g></g></g></g></svg>