<svg xmlns="http://www.w3.org/2000/svg" xmlns:xlink="http://www.w3.org/1999/xlink" width="64" height="97" viewBox="0 0 64 97"><defs><path id="11pa28auca" d="M0.326 0.306L55.434 0.306 55.434 19.908 0.326 19.908z"></path><path id="rbzel64loc" d="M0 0.172L19.758 0.172 19.758 5.057 0 5.057z"></path><path id="1kkeu8bkue" d="M0.504 0.915L2.175 0.915 2.175 7.087 0.504 7.087z"></path><path id="uv4nxv9qyg" d="M0.41 0.147L1.575 0.147 1.575 4.475 0.41 4.475z"></path><path id="jx8b5iml4i" d="M0.345 0.957L1.575 0.957 1.575 2.825 0.345 2.825z"></path></defs><g fill="none" fill-rule="evenodd"><g><g><path d="M0 0H270V120H0z" transform="translate(-1190 -9017) translate(1087 9005)"></path><g><path fill="#1A1919" d="M36.155 19.008c.226-.339.471-.669.706-1-.272.425-.542.855-.842 1.263.04-.094.085-.186.136-.263m-.746.996c-.617.754-.614.752-1.422.207-.294-.201-.555-.443-.832-.669-.69-.564-1.427-.9-2.368-.684-.421.099-.878.22-1.354.069.423.023.622-.231.737-.565.236-.688.765-.87 1.413-.817 1.053.089 1.976.477 2.748 1.22.339.327.625.72 1.053.95.133.02.235.002.318-.039-.094.113-.19.224-.293.328m-.275-5.027c.1-.545.557-.827 1.282-.808.25.057.667-.077.819.171.174.288-.245.5-.358.771-.025.062-.07.132-.122.171-.305.208-.266.951-.857.665-.36-.173-.868-.386-.764-.97m28.391 46.365c-.26-.016-.525-.067-.781-.035-.688.08-.939-.133-.924-.886.047-2.903.017-5.807.017-8.71 0-1.66.004-1.648-1.697-1.664-.709-.009-1.626.314-2.069-.12-.476-.462-.217-1.406-.152-2.118.089-.932-.236-1.486-1.033-1.95-.877-.51-1.034-1.53-.484-2.41.16-.257.353-.51.568-.73.836-.832 1.122-1.834 1.02-2.993-.09-1.065-.222-2.134-.159-3.205.013-.205-.053-.42.138-.6.709-.669.697-1.695-.027-2.344-.284-.256-.575-.512-.898-.702-1.097-.644-1.495-1.53-1.443-2.833.212-5.109-.284-10.228.332-15.33.104-.866.004-1.758-.003-2.638-.002-.251.01-.441.352-.498.856-.132.852-.153.394-.907-.189-.305-.374-.654-.695-.799-1.228-.543-1.355-1.55-1.22-2.695.029-.26-.03-.53.011-.785.126-.864-.211-1.45-.903-1.99-1.201-.944-1.212-1.194-.473-2.494.27-.475.307-.898-.058-1.394-.086.224-.162.372-.2.533-.105.437-.445.556-.814.536-.427-.023-.245-.435-.339-.668-.063-.163.025-.37-.121-.53-.597.722-.6.93-.04 1.749.613.9.569 1.296-.229 2.021-.157.145-.319.284-.483.42-.432.358-.637.8-.62 1.372.027.856-.003 1.713.013 2.57.007.346-.067.576-.432.711-.822.307-1.326.957-1.767 1.69-.267.443-.147.591.312.607.596.023.797.298.762.909-.055.924-.002 1.854.005 2.781.078.096.13.214.26.26.382.296-.205.164-.138.319-.076.243-.076.487.003.729.006 4.711-.015 9.421.04 14.13.012.957-.355 1.555-1.072 2.09-.405.303-.628.347-.942-.119-1.016-1.52-2.17-2.95-2.903-4.646-.124-.279-.288-.59-.524-.753-1.344-.925-2.25-2.23-3.175-3.528-.39-.545-.895-.92-1.635-.78-.212.037-.436 0-.609-.146-.653-.549-1.42-.845-2.321-1.011 1.765-2.644 3.501-5.197 6.442-6.573.483-.226.635-.462.104-.818-.49-.332-.563-.835-.549-1.387.027-.834.009-1.67.009-2.665-1.503 2.113-2.898 4.071-4.295 6.033-.233.173-.399.398-.55.636.163-.292.312-.596.423-.924.608-.98 1.217-1.963 1.834-2.942.247-.392.159-.544-.307-.531-1.377.056-2.752.09-4.13.136-1.001.031-1.682.63-1.873 1.607-.086.44.157.8.321 1.3-.465-.129-.83-.212-1.181-.332-.796-.263-1.586-.224-2.382.002-.785.227-1.346-.108-1.524-.928-.067-.298-.065-.614-.116-.914-.048-.286.105-.702-.302-.785-.333-.063-.554.244-.729.492-.486.71-.66 1.563-1.04 2.324-.249.494.09.68.52.853 1.335.537 1.427 1.149.337 2.01-.07.11.02.206.032.314-.177-.101-.182-.323-.33-.44l-2.052-4.074c-.367-.727-.89-1.422-.199-2.269.242-.295-.06-.614-.27-.8-.287-.265-.413.126-.524.269-.601.753-1.328.849-2.171.506-.353-.14-.706-.282-1.059-.425-.107-.04-.215-.127-.328-.028-.11.102-.026.219.004.326.125.448.388.814.677 1.165 1.484 1.797 2.976 3.588 4.442 5.4.683.842.605.895-.245 1.53-1.413 1.055-2.52 2.323-2.355 4.273.06.718-.058 1.395-.634 1.885-.811.695-.945 1.611-.912 2.586.018.501.068.999.103 1.496.033.475-.106.828-.598 1-.981.341-1.692 1.036-2.34 1.814-.396.474-.788.952-1.287 1.332-.335.259-.637.277-.931-.066-.75-.871-1.662-1.564-2.588-2.227-.367-.263-.503-.558-.501-1.015.02-3.166.01-6.33.012-9.497 0-1.473-.18-2.976.055-4.412.257-1.568.317-3.115.265-4.682-.022-.612.09-.949.788-.857.425.057.49-.12.286-.494-.265-.487-.512-1.04-1.002-1.273-1.28-.613-1.369-1.66-1.22-2.848.026-.188-.01-.382.006-.573.073-.901-.277-1.572-.986-2.15-1.118-.92-1.125-1.064-.393-2.314.358-.614.317-1.156-.097-1.745-.185.231-.19.478-.177.698.025.5-.217.58-.656.58-.524.004-.494-.3-.489-.65C9.711.47 9.775.232 9.623 0c-.625.816-.663 1.534-.025 2.05.62.497.416.996.12 1.492-.164.277-.45.488-.706.7-.568.47-.883 1.014-.799 1.794.07.635-.012 1.286.03 1.926.032.51-.13.838-.589 1.09-.652.364-1.159.9-1.533 1.555-.467.815-.476.827.452.88.377.021.552.118.533.538-.152 3.33.273 6.652.172 9.984-.088 2.923-.047 5.855-.024 8.781.005.692-.21 1.165-.789 1.54-.495.321-.96.708-1.393 1.108-.657.603-.702 1.565-.113 2.221.197.219.245.45.254.713.028.69.063 1.384-.108 2.062-.43 1.695-.233 3.194.993 4.583.886 1.003.63 2.018-.488 2.75-.57.375-.886.84-.863 1.527.014.357-.014.713-.002 1.071.062 1.425.064 1.454-1.35 1.42-.557-.014-.728.129-.724.71.025 3.091.012 6.184-.002 9.276-.007 1.484-.023 1.482-1.483 1.533-.163.005-.328.037-.494.056-.14.762-.074.86.63.898.259.013.523.006.784.006H19.02c.356 0 .714-.043 1.062.083 3.7 1.382 7.407 2.757 11.093 4.173.561.217 1.076.279 1.653.067 3.197-1.176 6.426-2.247 9.61-3.448 1.599-.605 3.2-.921 4.93-.898 5.307.072 10.617.023 15.925.024.545-.14.594-.324.232-.924" transform="translate(-1190 -9017) translate(1087 9005) translate(103 12)"></path><g transform="translate(-1190 -9017) translate(1087 9005) translate(103 12) translate(5.292 76.561)"><mask id="m9jri2fy0b" fill="#fff"><use xlink:href="#11pa28auca"></use></mask><path fill="#1A1919" d="M55.402.707c-.938 2.387-2.291 4.537-3.83 6.567-4.557 6.016-10.467 10.05-17.823 11.816-6.172 1.481-12.245.92-18.125-1.433C9.09 15.045 4.072 10.612.388 4.641c-.121-.166-.054-.274.117-.344.42.058.54.439.73.721 2.311 3.396 5.091 6.333 8.48 8.672 3.61 2.496 7.564 4.179 11.907 4.895 1.64.274 3.28.609 4.948.575 4.247-.086 8.365-.848 12.261-2.6 6.857-3.083 11.898-8.072 15.372-14.698.189-.356.353-.728.55-1.08.122-.218.203-.504.549-.474.178.097.137.247.1.399" mask="url(#m9jri2fy0b)"></path></g><path fill="#1A1919" d="M21.87 9.392c.161-.078.311-.14.45-.219.286-.16.542-.037.706.152.224.26-.12.356-.24.481-.384.394-.735.808-1 1.293-.134.247-.23.37-.515.119-.97-.854-1.145-2.165-.392-3.2.173-.24.35-.471.697-.275.279.157.51.315.425.717-.061.292-.225.58-.13.932M40.865 10.548c-.032.751-.58 1.314-1.25 1.284-.66-.035-1.116-.624-1.093-1.422.021-.765.478-1.231 1.193-1.217.695.014 1.183.587 1.15 1.355M38.427 8.961c.013.898-.395 1.426-1.1 1.427-.727.002-1.218-.606-1.226-1.525-.007-.486.66-1.115 1.176-1.114.669.007 1.14.503 1.15 1.212M60.694 77.268c-.033-.145-.054-.29-.208-.365-.127-.242-.032-.47.055-.684 1.305-3.176 2.175-6.462 2.512-9.884.02-.214.072-.42.16-.616.274-.554-.03-1.187.235-1.74.055-.078.125-.1.212-.059.14.579.093 1.162.023 1.745-.26 1.196-.313 2.422-.49 3.626-.288 1.948-.848 3.844-1.516 5.702-.28.776-.513 1.577-.983 2.275" transform="translate(-1190 -9017) translate(1087 9005) translate(103 12)"></path><g transform="translate(-1190 -9017) translate(1087 9005) translate(103 12) translate(.504 61.19)"><mask id="1pdzzvgvyd" fill="#fff"><use xlink:href="#rbzel64loc"></use></mask><path fill="#1A1919" d="M.189.172C.065.754.33.855.873.852 6.876.831 12.881.838 18.885.845c.293 0 .621-.12.873.155-.354.346-.804.238-1.22.238-5.469.009-10.939.006-16.409.007-.238 0-.476-.007-.714.002-.775.026-.842.097-.865.873C.527 2.857.6 3.596.49 4.33c-.086.254-.1.543-.338.727C-.108 3.453.035 1.844.076.239.076.214.15.195.189.172" mask="url(#1pdzzvgvyd)"></path></g><path fill="#1A1919" d="M5.852 80.905c-.138.053-.152.18-.173.3-1.14-1.615-1.916-3.414-2.655-5.229-.552-1.357-1.028-2.745-1.362-4.174-.047-.217-.148-.446.089-.626.31.088.338.372.405.618.819 2.97 1.988 5.793 3.544 8.454.115.198.288.397.152.657" transform="translate(-1190 -9017) translate(1087 9005) translate(103 12)"></path><g transform="translate(-1190 -9017) translate(1087 9005) translate(103 12) translate(0 64.717)"><mask id="1lhwnl7h8f" fill="#fff"><use xlink:href="#1kkeu8bkue"></use></mask><path fill="#1A1919" d="M1.8 6.494c-.187.164-.06.402-.137.593C1.158 5.265.858 3.404.655 1.529.736 1.33.606 1.073.83.915c.222.139.29.365.316.603.167 1.45.48 2.875.737 4.31.039.223.118.467-.083.666" mask="url(#1lhwnl7h8f)"></path></g><g transform="translate(-1190 -9017) translate(1087 9005) translate(103 12) translate(62.244 61.19)"><mask id="mb6p3n4xxh" fill="#fff"><use xlink:href="#uv4nxv9qyg"></use></mask><path fill="#1A1919" d="M1.437 4.475c-.151-.575.156-1.194-.169-1.753-.252-.59-.35-1.196-.162-1.826.596-.122.212-.475.174-.743.184-.033.27.064.269.23-.032 1.363.139 2.732-.112 4.092" mask="url(#mb6p3n4xxh)"></path></g><path fill="#5A5E5B" d="M49.385 15.214c.104.053.205.11.307.165.102.132.095.26-.003.391-.254.207-.064.513-.179.753-.17-.425-.178-.864-.125-1.309" transform="translate(-1190 -9017) translate(1087 9005) translate(103 12)"></path><path fill="#9A2F30" d="M28.793 35.644c-.11.257-.501.294-.49.703.774-.322 1.305-.94 1.93-1.413.853-.647 1.664-1.342 2.484-2.028.28-.235.807-.425 1.17-.427 1.588-.005 3.175.03 4.761-.046 1.004-.05 1.655.42 2.261 1.103.389.432.798.781 1.484.578.723-.213.847-.354.582-1.076-.063-.178-.15-.347-.226-.518.055-.165.07-.373.337-.31.007.21.018.422.027.643.358.007.263-.367.511-.506.023.289.032.555.066.822.022.183.042.421.298.398.206-.017.21-.227.21-.393 0-.215-.045-.44-.002-.64.063-.277-.245-.787.123-.78.395.01.951.185 1.075.766.031.137.072.28.065.42-.027.42.141.64.564.76.288.083.775.18.667.589-.102.393-.573.367-.926.324-.612-.074-1.205-.282-1.831-.248-.136.01-.305-.037-.386.109-.106.189.05.321.164.425.155.141.33.284.52.365.64.27 1.219.632 1.782 1.038.308.224.654.47 1.032.453.919-.046.95.5.915 1.178-.039.81-.368 1.561-.342 2.39.026.925.249 1.72.875 2.412.556.612.982 1.273.8 2.182-.079.399-.197.713-.576.91-.963.505-1.402 1.274-1.22 2.382.057.349.027.714-.01 1.069-.035.305.2.755-.204.887-.418.14-.895.088-1.328-.078-.2-.072-.191-.25-.191-.416-.004-1.921-.002-3.842-.002-5.978.805 1.324 1.904.661 2.964.845-.38-.408-.833-.244-1.187-.434.097-.376.587-.374.643-.78-.352-.242-.822.012-1.173-.183-.05-.184.055-.263.152-.314.552-.29.579-.558.002-.849-.118-.06-.304-.201-.291-.28.144-.97-.683-1.397-1.122-2.034-.178-.256-.436-.462-.198-.808.166-.238.023-.404-.15-.547-.255-.212-.513-.427-.785-.62-.169-.12-.301-.428-.59-.183-.218.184-.318.41-.237.697.081.274.18.542.238.822.053.249.31.549.124.73-.22.22-.535-.037-.785-.125-1.77-.628-3.528-1.279-5.292-1.923-.77-.282-1.531-.56-2.34-.746-.63-.14-1.197-.457-1.767-.758-.526-.272-1.01-.307-1.56-.134-1.375.437-2.691 1.074-4.17 1.175-.373.026-.724.347-1.098.49-.219.081-.524.113-.66-.102-.146-.231.146-.362.287-.49.61-.569 1.237-1.114 1.856-1.668.148-.033.198.028.17.17" transform="translate(-1190 -9017) translate(1087 9005) translate(103 12)"></path><path fill="#F3F3EF" d="M14.674 46.643c.335.148.298.444.296.732-.005.832.025 1.665-.021 2.496-.028.522.106.716.661.686.877-.05 1.76 0 2.64-.02.42-.008.59.133.592.574.002 2.951.014 5.9.055 8.85.005.552-.286.526-.672.538-.427.016-.648-.062-.634-.573.037-1.521.025-3.043.025-4.567 0-.478-.042-.94-.317-1.368-.621-.972-1.364-1.402-2.144-1.196-.857.226-1.631 1.276-1.637 2.269-.012 1.618.002 3.237-.01 4.853 0 .208.12.555-.256.548-.365-.008-.244-.352-.245-.559-.014-1.617-.025-3.237-.006-4.854.015-1.022-.532-1.706-1.298-2.24-.485-.341-1.067-.329-1.545.02-.773.569-1.313 1.29-1.298 2.329.02 1.522.014 3.045.003 4.567 0 .245.108.519-.153.753-.288-.178-.18-.46-.182-.691-.005-1.475 0-2.95.003-4.424 0-.143.006-.288 0-.43-.065-1.22-1.063-2.305-2.118-2.303-.965 0-1.99 1.143-2.006 2.323-.026 1.64-.014 3.283.018 4.924.012.534-.212.638-.676.614-.324-.015-.4-.152-.4-.438.005-3.022.007-6.042 0-9.065-.002-.342.143-.427.469-.459.527-.047 1.254.28 1.533-.162.245-.388.037-1.06.03-1.607-.005-.381.023-.764-.01-1.141-.057-.639.195-1.096.737-1.41.224-.122.323-.042.323.198-.493 1.217-.18 2.483-.233 3.725-.016.374.301.433.612.433.734.005 1.47.015 2.205-.006 1.402-.047 2.796.095 4.195.141.324.01.67.05.954-.185.21-.208.17-.476.171-.734.005-.823-.014-1.645.01-2.471.008-.258-.074-.593.329-.67M50.801 54.779c-.129-.279-.192-.584-.4-.83-.53-.634-1.004-1.412-2.008-1.17-.855.202-1.721 1.393-1.732 2.32-.018 1.641 0 3.284-.012 4.926 0 .32.143.72-.47.743-.619.019-.568-.357-.57-.736-.005-2.877.004-5.754-.012-8.633-.003-.453.076-.62.598-.556 1.457.177 1.473.136 1.475-1.32.002-.594.012-1.19-.021-1.783-.03-.504.129-.876.582-1.111.392.046.303.37.355.612.022.972.012 1.944.008 2.918-.003.39.133.571.537.554 2.136-.104 4.263.2 6.4.134.885-.028.927-.058.925-.932-.005-1.02.04-2.037-.047-3.057.067-.164.115-.363.363-.202.342.23.477.55.462.968-.02.785.02 1.57-.028 2.351-.035.572.094.803.727.755.9-.065 1.806-.007 2.71-.017.358-.007.506.118.504.494-.009 2.993-.016 5.99.004 8.985.003.583-.322.544-.729.57-.505.034-.593-.192-.586-.628.02-1.57.01-3.14.013-4.708 0-.43-.037-.85-.268-1.236-.574-.958-1.375-1.431-2.128-1.242-.824.2-1.71 1.35-1.725 2.318-.025 1.524-.005 3.044-.005 4.565 0 .166.003.335-.016.499-.016.154.05.381-.18.404-.291.026-.25-.23-.252-.406-.014-1.663-.05-3.327-.02-4.994.018-.92-.372-1.593-1.046-2.146-.776-.639-1.591-.563-2.245.192-.463.53-.835 1.097-.86 1.83-.379.05-.102-.359-.303-.431" transform="translate(-1190 -9017) translate(1087 9005) translate(103 12)"></path><path fill="#9A2F30" d="M15.618 46.992c-.09-.635-.628-.855-1.043-1.176-.868-.67-1.095-1.782-.418-2.646.658-.842 1.443-1.582 1.579-2.73.026-.225.277-.299.478-.385.677-.293 1.35-.597 2.023-.893.11-.048.261-.062.323-.143.889-1.189 2.53-1.021 3.565-2.048 1.004-.991 2.27-1.716 3.426-2.552.635-.46 1.275-.914 1.922-1.355.173-.12.374-.224.576-.272.227-.054.513-.083.649.155.13.228-.1.396-.235.542-.838.908-1.681 1.817-2.533 2.713-.265.275-.422.547-.29.953.078.24.128.525-.211.663-.293.122-.59.224-.882.028-.268-.173-.159-.413-.076-.64.058-.163.102-.321-.092-.432-.153-.087-.312-.13-.465-.01-.207.161-.42.317-.604.5-1.06 1.087-2.344 1.861-3.653 2.59-.404.224-.603.47-.63.919-.044.709-.167 1.416-.167 2.127 0 .857-.005 1.7-.47 2.572.537-.376.72-.334.703.282-.037 1.21-.006 2.427.02 3.64.008.393-.116.562-.525.551-.834-.019-1.667 0-2.5-.005-.202-.002-.486.069-.52-.23-.032-.257-.144-.543.147-.775.77-.618 1.439-1.405 1.794-2.269.564-1.367.619-2.861.074-4.295-.111-.293-.411-.531-.746-.41-.336.126-.078.419-.032.618.127.564.102 1.055-.383 1.471-.34.291-.37.66-.16 1.094.181.363.597.857-.283 1.02-.314.058-.02.597-.361.828" transform="translate(-1190 -9017) translate(1087 9005) translate(103 12)"></path><path fill="#F3F3EF" d="M49.108 45.933c.53-.635.497-2.26-.057-2.999-.328-.437-.642-.882-.961-1.325-.203-.284-.118-.439.222-.45.664-.015 1.33-.028 1.995-.028 2.092-.001 4.185.002 6.277.014.173 0 .409-.105.504.12.074.172-.095.307-.183.441-.175.254-.33.547-.565.732-.972.76-.866 1.812-.838 2.858.006.275.173.425.337.595.037.063.036.128.002.192-.633-.062-1.171.123-1.67.533-.346.285-.688.038-.946-.209-.45-.432-.864-.486-1.348-.045-.377.344-.82.37-1.23.035-.419-.346-.869-.446-1.379-.252-.11-.029-.195-.074-.16-.212" transform="translate(-1190 -9017) translate(1087 9005) translate(103 12)"></path><path fill="#F2F2EE" d="M7.072 45.46c.015-.082.031-.163.044-.246.05-.085.104-.17.204-.206.064-.018.127-.025.193-.025.118-.025.24-.072.241-.21.004-.616.138-1.24-.077-1.843-.261-.082-.269.185-.394.285-.17.083-.24-.042-.316-.151-.363-.526-.732-1.048-1.084-1.584-.22-.332-.231-.553.285-.553 2.756.011 5.51.008 8.266-.003.52-.002.507.205.25.536-.419.545-.842 1.085-1.266 1.627-.172.093-.28-.085-.425-.1-.409.41-.4 1.38.018 1.924.118.072.226.158.279.292.033.103.028.209.024.314-.017.115-.091.186-.188.237-.4.104-.729.33-1.045.58-.37.298-.714.309-1.07-.032-.471-.451-.939-.686-1.514-.084-.353.37-.826.337-1.22.007-.323-.268-.7-.383-1.085-.498-.096-.065-.156-.146-.12-.266" transform="translate(-1190 -9017) translate(1087 9005) translate(103 12)"></path><path fill="#9A2F30" d="M33.824 27.215c-.139.465.157.707.48.926.748.508 1.505 1.003 2.253 1.511.398.27.47 1.09.152 1.43-.165.172-.307.061-.449-.008-.919-.453-1.825-.926-2.751-1.362-.475-.227-.471-.626-.418-1.03.068-.515-.106-.852-.567-1.095-.534-.28-.965-.702-1.29-1.21-.24-.376-.387-.47-.677-.02-.486.757-1.031 1.482-1.56 2.216-.117.16-.205.425-.479.333-.33-.11-.18-.375-.146-.601.159-1.073.533-2.07 1.048-3.017.217-.397.43-.799.492-1.256.037-.255.088-.638-.171-.71-.86-.246-.364-.722-.201-1.08.238-.528.474-1.018.352-1.634-.072-.388-.195-.601-.612-.605-.522-.005-1.044-.033-1.564-.049-.263.014-.276-.116-.182-.309.579-.721.744-.753 1.415-.23.538.417 1.148.267 1.709.144 1.035-.228 1.849.055 2.634.988-.618-.27-1.032-.6-1.539-.706-.118-.025-.248-.055-.324.058-.074.117.01.223.081.321.492.715 1.217 1.03 2.224 1.161-.638.552-.836 1.184-.829 1.902-.435-.064-.238-.948-.89-.535-.415.26-1.103 1.297-1.008 1.639.066.23.288.323.468.416.552.288.753.746.742 1.336-.005.289.025.57.2.816.238.334.54.74.903.747.413.003.085-.584.335-.815.143.065.072.24.17.328" transform="translate(-1190 -9017) translate(1087 9005) translate(103 12)"></path><path fill="#9A2F31" d="M33.824 27.215c-.135-.07-.15-.198-.169-.328-.108-.628.176-.826.789-.824.702.005 1.407-.094 2.115-.152.132-.009.303.039.372-.125.07-.164-.076-.245-.182-.337-.418-.376-.586-.787-.41-1.383.21-.73.043-1.411-.662-1.852-.004-.245.118-.238.285-.145.937.323 1.93.52 2.676 1.26.133.13.355.176.54.107.632-.227 1.036.039 1.376.55.29.434.66.817.926 1.264.45.753 1.027 1.358 1.76 1.832.398.258.749.58 1.011 1.128-.935-.246-1.555-.856-2.296-1.235-.267-.138-.493-.563-.83-.316-.313.228-.116 1.154.278 1.4.358.228.756.4 1.134.597.164.086.39.13.4.361.014.302.074.771-.217.835-.497.104-.189-.47-.404-.686-.234.026-.234.57-.642.319-.146-.088-.123.13-.155.233-.238.79.369 1.295.658 1.896.09.19.29.076.342-.132.062-.25-.058-.526.228-.928.121.658.1 1.154-.064 1.656l-.335.309c-.582-.526-1.182-1.03-1.738-1.58-.67-.667-.696-1.436-.134-2.2.314-.425.066-.875.002-1.297-.046-.314-.427-.22-.674-.236-1.728-.104-3.457-.203-5.188-.295-.3-.017-.635-.074-.792.304" transform="translate(-1190 -9017) translate(1087 9005) translate(103 12)"></path><path fill="#992F30" d="M27.533 19.645c.004.136.046.249.182.305-.206.13-.34.256-.081.48.19.164.434.325.317.653-.153.125-.259-.023-.374-.078-.162-.081-.314-.11-.455.027-.189.183.032.289.083.428.32.873 0 1.729-.127 2.58-.044.289-.79.234-1.04-.089-.126-.164-.195-.374-.278-.571-.107-.25-.252-.374-.46-.113-.76.97-1.86 1.776-1.603 3.25.08.477-.28.7-.604.872-.391.21-.353.4-.13.711.423.593.864 1.141 1.65 1.244.317.04.355.174.167.418-.3.397-.561.829-.895 1.194-.58.638-1 .527-1.24-.284-.051-.182-.122-.351-.217-.62-.277.44-.134.846-.167 1.216-.081.894-.424 1.261-1.297 1.224-.455-.02-.885.134-1.402.14.451-.59.94-1.032 1.638-1.103.598-.058.754-.407.755-.914 0-.737.018-1.474-.02-2.21-.047-.862.222-1.596.844-2.184.561-.532.845-1.182.718-1.924-.268-1.565.667-2.597 1.523-3.673.264-.331.624-.406.943-.148.623.492.967.228 1.254-.362.083-.169.209-.312.316-.469" transform="translate(-1190 -9017) translate(1087 9005) translate(103 12)"></path><path fill="#F3F2EE" d="M12.377 58.145c0 .806-.02 1.616.007 2.42.014.41-.068.623-.536.603-.638-.031-1.279-.016-1.923-.003-.47.009-.504-.293-.314-1.106.295-1.277.353-2.613-.01-3.87-.291-1 .21-1.637.875-2.075.74-.487 1.843.358 1.89 1.466.04.854.008 1.71.008 2.565h.003z" transform="translate(-1190 -9017) translate(1087 9005) translate(103 12)"></path><path fill="#F3F2EF" d="M54.648 57.733c0 .808-.02 1.618.007 2.427.012.376-.117.512-.485.505-.642-.013-1.284-.018-1.926.003-.383.014-.486-.153-.484-.506.005-1.547-.01-3.094-.016-4.641-.003-.71.286-1.282.801-1.762.424-.392.842-.404 1.27-.034.505.434.865.933.838 1.651-.03.785-.005 1.572-.005 2.357" transform="translate(-1190 -9017) translate(1087 9005) translate(103 12)"></path><path fill="#F2F2EE" d="M50.122 58.145c0 .804-.022 1.614.011 2.418.016.417-.15.512-.53.54-2.3.17-2.296.176-2.301-2.104-.002-1.045-.023-2.087-.012-3.132.007-.99.696-1.958 1.384-1.986.711-.028 1.427.937 1.45 1.986.018.76.004 1.518.004 2.278h-.006z" transform="translate(-1190 -9017) translate(1087 9005) translate(103 12)"></path><path fill="#F3F2EE" d="M16.977 57.635c0 .785-.014 1.57.005 2.353.009.364-.106.519-.485.505-.644-.021-1.284-.018-1.925-.004-.38.009-.485-.162-.481-.518.014-1.593.007-3.184.009-4.777 0-.676.361-1.17.838-1.588.395-.35.822-.344 1.219.009.48.423.818.926.82 1.596.003.808 0 1.618 0 2.424" transform="translate(-1190 -9017) translate(1087 9005) translate(103 12)"></path><path fill="#F2F2EE" d="M56.033 57.726v-2.069c0-.14-.009-.284.003-.425.057-.746.828-1.665 1.415-1.694.554-.026 1.362.817 1.385 1.606.05 1.71.02 3.422.033 5.133.004.339-.174.392-.448.388-.642-.007-1.282-.016-1.923.002-.38.009-.485-.155-.472-.517.024-.806.007-1.614.007-2.424" transform="translate(-1190 -9017) translate(1087 9005) translate(103 12)"></path><path fill="#F3F2EF" d="M7.87 58.145c0 .832-.012 1.661.008 2.492.005.286-.217.507-.501.498-.614-.018-1.228-.018-1.84 0-.28.007-.506-.21-.504-.492.01-1.64-.006-3.28.005-4.918.002-.256.035-.545.162-.755.312-.528.648-1.105 1.395-1.027.598.062 1.24.893 1.267 1.637.028.854.005 1.71.005 2.565h.004z" transform="translate(-1190 -9017) translate(1087 9005) translate(103 12)"></path><path fill="#F3F3EF" d="M50.619 25.923c0-1.923.01-3.848-.01-5.77-.001-.431.124-.586.569-.57.388.014.605.044.601.529-.028 3.777-.028 7.55-.044 11.325 0 .245.074.504-.309.612-.665.189-.774.145-.776-.572-.007-1.85-.001-3.702-.001-5.554h-.03z" transform="translate(-1190 -9017) translate(1087 9005) translate(103 12)"></path><path fill="#F5F4F1" d="M8.39 25.923c0-1.9.012-3.8-.011-5.698-.005-.478.164-.59.619-.591.482-.004.538.212.531.605-.051 1.969-.046 3.939-.06 5.91-.01 1.728.039 3.462.039 5.193 0 .343-.053.54-.471.63-.561.12-.683-.013-.672-.567.031-1.827.012-3.655.012-5.482h.012zM52.486 25.923c0-1.88.009-3.758-.004-5.635-.003-.386.036-.619.524-.61.445.005.56.146.56.575-.011 3.733-.006 7.465.01 11.196.004.473-.123.67-.642.655-.429-.015-.497-.156-.492-.549.021-1.879.009-3.756.009-5.632h.035z" transform="translate(-1190 -9017) translate(1087 9005) translate(103 12)"></path><path fill="#F7F6F3" d="M11.3 25.094c0 1.83.006 3.662-.008 5.491-.004.23.17.646-.355.575-.365-.044-.734 0-.732-.601.027-3.712.014-7.421 0-11.133-.003-.453.212-.476.568-.49.404-.013.54.113.535.522-.018 1.879-.007 3.757-.007 5.636" transform="translate(-1190 -9017) translate(1087 9005) translate(103 12)"></path><path fill="#9A2F30" d="M17.533 34.937c-.404.568-.841.921-1.284 1.267-.19.146-.378.29-.471.52-.127.318-.235.738-.014.944.238.224.49-.15.704-.31.725-.537 1.4-1.13 2.393-1.13.512 0 .822-.44 1.168-.754.369-.337.722-.69 1.168-.928.164-.087.351-.256.524-.145.206.134.032.348-.02.515-.197.69-.204 1.501-1.1 1.75-.021.005-.04.033-.062.033-.804-.012-1.644-.088-1.86.999-1.01.062-1.8.688-2.696 1.044-.262.108-.39 0-.443-.271-.148-.78-.032-1.562-.013-2.34.004-.088.078-.252.087-.25.81.198.56-1.025 1.274-.947.165.02.33.003.645.003" transform="translate(-1190 -9017) translate(1087 9005) translate(103 12)"></path><path fill="#2E7644" d="M49.323 32.985c1.64-1.393 5.17-1.436 6.684-.114-2.247.259-4.46.07-6.684.114" transform="translate(-1190 -9017) translate(1087 9005) translate(103 12)"></path><path fill="#FFFFFE" d="M54.675 25.923c0 1.878.006 3.759-.008 5.639-.002.198.165.564-.207.556-.26-.006-.189-.346-.189-.54-.008-3.833-.008-7.665-.007-11.496 0-.18-.053-.457.207-.45.323.005.208.318.208.506.009 1.927.005 3.855.005 5.785h-.009z" transform="translate(-1190 -9017) translate(1087 9005) translate(103 12)"></path><path fill="#FFFEFE" d="M12.408 25.923c0 1.875.004 3.752-.005 5.628 0 .19.122.516-.16.54-.378.032-.246-.337-.247-.536-.013-3.775-.016-7.553-.013-11.33 0-.185-.104-.498.242-.471.264.023.187.29.187.467.007 1.9.003 3.8.003 5.702h-.007z" transform="translate(-1190 -9017) translate(1087 9005) translate(103 12)"></path><path fill="#2E7845" d="M13.523 32.06H7.125c1.411-1.335 5.283-1.234 6.398 0" transform="translate(-1190 -9017) translate(1087 9005) translate(103 12)"></path><path fill="#EEEEEA" d="M9.624 37.216c.006-1.146.526-1.513 1.652-1.189.248.071.26.235.259.43-.002.38-.002.758-.002 1.137 0 1.004 0 1.004-.991 1.007-.923.002-.923.002-.918-1.385" transform="translate(-1190 -9017) translate(1087 9005) translate(103 12)"></path><path fill="#2E7744" d="M55.184 35.221c-.33 0-.669-.04-.992.01-.698.109-.827-.223-.81-.835.015-.485.205-.616.644-.598.448.025.905.063 1.343-.007.81-.132 1.198.233 1.445.958.15.437.014.488-.353.476-.425-.016-.852-.005-1.277-.004" transform="translate(-1190 -9017) translate(1087 9005) translate(103 12)"></path><path fill="#F2F1ED" d="M52.913 37.506c.027-1.256.286-1.447 1.552-1.193.274.055.348.18.343.429-.01.453-.037.908.005 1.356.051.547-.095.743-.693.711-1.23-.067-1.232-.024-1.207-1.303" transform="translate(-1190 -9017) translate(1087 9005) translate(103 12)"></path><path fill="#2D7443" d="M13.07 35.165c-.404 0-.808-.013-1.212.001-.603.022-.662-.328-.653-.823.01-.542.334-.538.715-.535.474.007.95-.01 1.423 0 .212.007.432.032.632.099.488.167.601.65.594 1.039-.007.358-.455.213-.716.24-.26.026-.524.007-.783.007v-.028z" transform="translate(-1190 -9017) translate(1087 9005) translate(103 12)"></path><path fill="#2D7543" d="M51.43 35.196c-.261 0-.526.024-.783-.006-.328-.031-.78.089-.92-.284-.132-.356.645-1.088 1.082-1.095.5-.01 1 .016 1.496-.01.467-.029.605.082.653.617.06.682-.246.758-.745.772-.26.006-.524 0-.783 0v.006zM7.955 35.196c-.166 0-.337.03-.497-.006-.31-.065-.782.194-.894-.296-.087-.372.564-1.058.96-1.072.569-.022 1.14.003 1.712-.016.381-.014.526.158.476.515-.044.307.193.732-.407.8-.452.054-.898.073-1.35.075" transform="translate(-1190 -9017) translate(1087 9005) translate(103 12)"></path><path fill="#EDECE8" d="M9.814 37.36c0 .117.002.236 0 .354-.016.8-.492 1.115-1.263.852-.245-.085-.24-.267-.242-.452-.003-.497.022-.996-.005-1.49-.026-.457.189-.531.591-.56.665-.042 1.074.085.923.872-.027.137-.004.28-.004.423" transform="translate(-1190 -9017) translate(1087 9005) translate(103 12)"></path><path fill="#992E30" d="M26.145 32.87c-.958.577-1.874 1.29-3.075.706-.104-.05-.23-.036-.344-.07-.238-.063-.608.167-.702-.12-.088-.283.266-.467.464-.657.526-.508 1.16-.503 1.792-.277.602.212 1.191.446 1.865.418" transform="translate(-1190 -9017) translate(1087 9005) translate(103 12)"></path><path fill="#EBEBE6" d="M52.965 37.535c0 .164 0 .33-.002.496-.005.68-.623 1.054-1.254.751-.074-.033-.157-.125-.168-.197-.093-.683-.176-1.394-.009-2.045.127-.5.695-.175 1.06-.233.33-.055.387.175.375.448-.011.258-.002.52-.002.78" transform="translate(-1190 -9017) translate(1087 9005) translate(103 12)"></path><path fill="#EBEBE7" d="M13.07 37.308v-.498c0-.721.483-1.039 1.168-.778.247.095.208.29.21.473.005.473-.032.949.01 1.42.05.547-.115.73-.695.727-.557-.004-.788-.136-.698-.708.031-.208.005-.423.005-.636" transform="translate(-1190 -9017) translate(1087 9005) translate(103 12)"></path><path fill="#EFEFEB" d="M6.932 37.216v.507c0 .8-.344 1.047-1.145.848-.249-.062-.29-.208-.287-.414 0-.454.035-.909-.01-1.357-.064-.635.175-.796.802-.792 1.175.004.382.886.64 1.208" transform="translate(-1190 -9017) translate(1087 9005) translate(103 12)"></path><path fill="#EFEEEA" d="M52.965 6.362c-.286 0-.573-.009-.857.003-.378.015-.669.034-.678-.529-.009-.58.267-.6.695-.587.642.023 1.286.026 1.926 0 .4-.016.542.11.54.524-.003.416-.1.622-.559.582-.353-.03-.713-.005-1.067-.005v.012z" transform="translate(-1190 -9017) translate(1087 9005) translate(103 12)"></path><path fill="#F1F0ED" d="M10.391 6.18c-.309 0-.617-.015-.924.003-.399.026-.667-.01-.664-.545.004-.482.168-.616.618-.597.66.027 1.325.029 1.986 0 .457-.02.543.182.552.591.01.448-.148.591-.575.554-.328-.032-.663-.005-.993-.005" transform="translate(-1190 -9017) translate(1087 9005) translate(103 12)"></path><path fill="#E6E6E1" d="M48.112 37.482v-.355c.016-.841.29-1.147 1.04-.803.749.346.237 1.202.336 1.828.046.298.04.6-.45.616-.88.023-.908.024-.926-.861v-.425" transform="translate(-1190 -9017) translate(1087 9005) translate(103 12)"></path><path fill="#EBEBE6" d="M57.568 37.549v.354c0 .955-.065.999-.995.92-.29-.027-.365-.144-.362-.396.01-.473.04-.949 0-1.422-.044-.54.115-.737.7-.725.547.01.73.184.659.7-.025.186-.002.378-.002.569" transform="translate(-1190 -9017) translate(1087 9005) translate(103 12)"></path><path fill="#F1EFEC" d="M52.562 8.722c-.07 0-.145.01-.214-.002-.314-.056-.825.159-.901-.155-.102-.416.196-.857.497-1.203.258-.293.579-.41.962-.266.277.105.497.289.647.534.178.288.344.635.214.94-.138.31-.512.108-.78.147-.14.023-.284.005-.425.005" transform="translate(-1190 -9017) translate(1087 9005) translate(103 12)"></path><path fill="#EEEEEA" d="M10 8.54c-.046 0-.099.013-.143 0-.335-.105-.922.225-.977-.21-.06-.482.245-1.012.716-1.324.423-.28.819-.167 1.168.154.118.107.23.241.305.386.367.7.208.974-.568.984-.168.004-.333.002-.501.002v.009z" transform="translate(-1190 -9017) translate(1087 9005) translate(103 12)"></path><path fill="#EBEAE6" d="M25.346 45.807c.354 0 .71.01 1.065-.002.309-.012.485.066.483.43 0 .357-.155.447-.474.442-.757-.014-1.517-.016-2.276-.005-.337.005-.457-.142-.469-.463-.01-.349.206-.386.46-.388.404-.003.807 0 1.21 0v-.014z" transform="translate(-1190 -9017) translate(1087 9005) translate(103 12)"></path><path fill="#ECEBE7" d="M40.69 45.87c.377 0 .754.006 1.132-.003.275-.005.446.067.437.395-.009.276-.069.464-.388.464-.8.002-1.602 0-2.404.007-.327.002-.38-.183-.385-.456-.003-.293.085-.441.402-.427.403.017.801.003 1.205.003v.016z" transform="translate(-1190 -9017) translate(1087 9005) translate(103 12)"></path><path fill="#2D7845" d="M53.699 9.655c-.651.323-1.34.113-2.011.127-.17.002-.305-.123-.492.07-.482.497-1.11.802-1.719 1.118-.151.077-.32.331-.483.128-.176-.22-.014-.455.182-.61.502-.399 1.048-.75 1.642-.98.92-.355 1.877-.403 2.837-.144-.355.267-.764.073-1.092.138.34.083.772-.152 1.136.153" transform="translate(-1190 -9017) translate(1087 9005) translate(103 12)"></path><path fill="#DFDEDA" d="M26.395 44.091c-.14.018-.28.032-.42.055-.212.037-.378.007-.413-.249-.032-.24-.074-.506.25-.562.648-.11 1.304-.19 1.957-.28.273-.036.312.14.305.352-.007.25.065.533-.342.56-.447.026-.891.09-1.336.138l-.001-.014" transform="translate(-1190 -9017) translate(1087 9005) translate(103 12)"></path><path fill="#E8E8E3" d="M34.586 43.816c-.48-.057-.972-.134-1.464-.166-.383-.023-.454-.206-.441-.55.015-.424.268-.364.532-.336.492.059.983.131 1.475.161.406.026.62.182.566.61-.06.482-.425.205-.668.28" transform="translate(-1190 -9017) translate(1087 9005) translate(103 12)"></path><path fill="#2D7846" d="M10.705 9.91c.656.313 1.459.374 1.938 1.098-.324.04-.554-.097-.772-.214-1.117-.6-2.225-.541-3.341-.009-.214.105-.433.226-.66.258-.487.067-.305-.18-.155-.393.472-.558 1.155-.687 1.806-.875.404-.023.815-.138 1.184.136" transform="translate(-1190 -9017) translate(1087 9005) translate(103 12)"></path><path fill="#2A7041" d="M50.11 11.177c.75-.796 1.711-1.034 2.78-.935.74.065 1.427.316 2.07.693.121.072.28.154.215.316-.073.176-.235.09-.364.037-.107-.043-.224-.081-.322-.145-1.373-.864-2.71-.58-4.038.113-.078.039-.166.055-.25.081-.03-.053-.059-.107-.09-.16" transform="translate(-1190 -9017) translate(1087 9005) translate(103 12)"></path><path fill="#DCDCD7" d="M36.672 43.239c.526.056 1.044.123 1.565.165.31.025.397.191.39.471-.008.313-.205.34-.436.32-.52-.043-1.041-.103-1.56-.141-.322-.027-.546-.115-.525-.508.023-.454.34-.28.566-.307" transform="translate(-1190 -9017) translate(1087 9005) translate(103 12)"></path><path fill="#E6E6E2" d="M29.594 43.747c-.228-.048-.62.238-.653-.328-.032-.526.316-.484.65-.507.428-.028.853-.086 1.28-.114.236-.016.534-.16.573.29.032.426-.175.527-.545.539-.427.012-.854.078-1.305.12" transform="translate(-1190 -9017) translate(1087 9005) translate(103 12)"></path><path fill="#C5C4C0" d="M9.509 12.25c.032.571.07.988-.612.931-.894-.068-.413-.725-.512-1.116-.128-.505.198-.547.612-.565.787-.039.43.542.512.75" transform="translate(-1190 -9017) translate(1087 9005) translate(103 12)"></path><path fill="#D9DAD4" d="M51.778 12.51c-.014.397.157.838-.579.833-.836-.006-.495-.563-.541-.928-.044-.374-.104-.725.525-.734.713-.01.602.41.595.829" transform="translate(-1190 -9017) translate(1087 9005) translate(103 12)"></path><path fill="#DADAD5" d="M53.957 12.5c-.009.414.15.83-.538.841-.8.009-.547-.522-.582-.912-.04-.418-.058-.764.58-.764.766.002.485.512.54.835" transform="translate(-1190 -9017) translate(1087 9005) translate(103 12)"></path><path fill="#D8D8D3" d="M51.09 18.083c-.35-.073-.867.11-.966-.265-.118-.443.413-.541.735-.709.064-.032.128-.065.195-.086.26-.082.573-.43.75-.246.257.267.154.732.063 1.08-.106.418-.526.123-.776.226" transform="translate(-1190 -9017) translate(1087 9005) translate(103 12)"></path><path fill="#DEDED9" d="M10.574 12.317c.031-.381-.19-.864.56-.849.55.011.67.239.577.674-.083.374.31.981-.56 1.008-.75.02-.553-.441-.577-.833" transform="translate(-1190 -9017) translate(1087 9005) translate(103 12)"></path><path fill="#E1E1DC" d="M39.618 59.66c-.034.625-.79 1.237-1.318 1.09-.138-.041-.189-.147-.176-.269.024-.27-.136-.605.172-.785.327-.19.673-.367 1.034-.464.443-.12.242.266.288.429" transform="translate(-1190 -9017) translate(1087 9005) translate(103 12)"></path><path fill="#DEDED9" d="M35.51 61.182c-.006.526-1.061 1.256-1.42 1.028-.218-.14-.078-.388-.087-.585-.016-.256-.027-.53.314-.62.203-.05.41-.109.605-.188.44-.185.684-.12.587.365" transform="translate(-1190 -9017) translate(1087 9005) translate(103 12)"></path><path fill="#F8F8F5" d="M9.264 14.117c.468-.095.713.065.657.633-.034.357.014.642-.516.61-.516-.033-.896-.015-.87-.744.017-.592.336-.504.73-.499" transform="translate(-1190 -9017) translate(1087 9005) translate(103 12)"></path><path fill="#E6E5E1" d="M40.758 61.123c.027.295-.012.514-.307.598-.384.108-.82.41-1.14.228-.26-.147-.264-.653.068-.921.195-.16.462-.235.696-.346.52-.254.759-.107.683.441" transform="translate(-1190 -9017) translate(1087 9005) translate(103 12)"></path><path fill="#DFDFDA" d="M54.03 17.98c-.283-.179-.831.276-.886-.382-.027-.29-.155-.69.102-.866.22-.15.515.129.776.226.066.026.13.058.193.094.314.16.785.312.698.695-.088.386-.584.086-.884.232" transform="translate(-1190 -9017) translate(1087 9005) translate(103 12)"></path><path fill="#D2D2CD" d="M11.736 17.773c-.275-.154-.825.268-.846-.41-.01-.273-.134-.631.095-.806.22-.166.462.14.704.207.086.024.176.067.256.114.298.18.792.32.693.699-.092.337-.584.086-.902.196" transform="translate(-1190 -9017) translate(1087 9005) translate(103 12)"></path><path fill="#D8D8D3" d="M50.839 14.96c-.168-.787.425-.646.871-.7.62-.078.443.37.49.694.075.574-.264.612-.69.577-.366-.028-.839.094-.671-.571" transform="translate(-1190 -9017) translate(1087 9005) translate(103 12)"></path><path fill="#EAEAE5" d="M34.55 63.371c-.02.455-1.062 1.092-1.373.82-.256-.225-.155-.608-.025-.858.256-.49.794-.493 1.25-.487.257.003.116.347.148.525" transform="translate(-1190 -9017) translate(1087 9005) translate(103 12)"></path><path fill="#E7E7E2" d="M36.432 59.256c-.007.527-.934 1.196-1.349.926-.328-.213-.205-.676-.02-.942.26-.363.73-.45 1.156-.46.344-.004.176.314.213.476" transform="translate(-1190 -9017) translate(1087 9005) translate(103 12)"></path><path fill="#E3E3DE" d="M37.544 60.46c-.016.526-.854 1.122-1.288.974-.182-.064-.157-.222-.154-.353.004-.266-.118-.584.237-.737.194-.087.397-.157.58-.261.522-.304.73-.168.625.377" transform="translate(-1190 -9017) translate(1087 9005) translate(103 12)"></path><path fill="#EBEBE7" d="M35.1 62.979c.017-.485.92-1.075 1.347-.905.178.072.146.23.13.361-.037.265.115.614-.224.764-.3.132-.628.23-.956.28-.51.084-.219-.336-.296-.5" transform="translate(-1190 -9017) translate(1087 9005) translate(103 12)"></path><path fill="#D1D0CB" d="M31.773 65.383c-.768.055-1.323-.208-1.895-.402-.473-.157-.942-.32-1.413-.48-.153-.053-.234-.165-.204-.326.026-.155.155-.136.275-.132.409.01 2.766.943 3.237 1.34" transform="translate(-1190 -9017) translate(1087 9005) translate(103 12)"></path><path fill="#E9E8E4" d="M38.717 61.747c-.016.49-.9 1.132-1.337 1.03-.203-.048-.18-.21-.163-.335.05-.279-.166-.644.249-.804.224-.085.455-.149.67-.247.447-.209.68-.143.58.356" transform="translate(-1190 -9017) translate(1087 9005) translate(103 12)"></path><path fill="#D3D4CF" d="M50.801 54.779c.102.143.201.287.304.43.082 1.8.086 3.595-.113 5.394-.327-1.931-.16-3.88-.19-5.824" transform="translate(-1190 -9017) translate(1087 9005) translate(103 12)"></path><path fill="#E0E0DB" d="M40.196 43.637c.322.047.697.091 1.064.165.353.075.411.323.346.65-.07.365-.3.278-.535.218-.363-.093-.726-.187-1.093-.27-.298-.068-.355-.273-.327-.532.041-.34.3-.208.545-.231" transform="translate(-1190 -9017) translate(1087 9005) translate(103 12)"></path><path fill="#D6D5D0" d="M8.911 17.764c-.172 0-.268.016-.358-.002-.21-.042-.511.104-.587-.227-.078-.34.196-.434.436-.54.107-.046.208-.118.319-.147.29-.063.577-.439.817-.246.248.197.143.633.077.934-.095.45-.529.11-.704.228" transform="translate(-1190 -9017) translate(1087 9005) translate(103 12)"></path><path fill="#D4D4CF" d="M41.507 62.477c-.09.018-.202.007-.23-.146-.027-.134.043-.233.169-.272 1.016-.335 2.03-.665 3.046-.993.13-.039.295-.092.337.12.025.127-.037.238-.162.28-1.041.338-2.082.667-3.16 1.011" transform="translate(-1190 -9017) translate(1087 9005) translate(103 12)"></path><path fill="#D1D1CC" d="M23.82 62.488c1.195.38 2.266.716 3.335 1.065.148.05.203.194.183.351-.016.146-.114.228-.241.164-1.022-.496-2.186-.637-3.15-1.266-.03-.02-.034-.082-.128-.314" transform="translate(-1190 -9017) translate(1087 9005) translate(103 12)"></path><path fill="#D0CFCB" d="M36.126 63.998c-.138.438-.395.524-.635.606-.806.27-1.62.527-2.433.783-.123.04-.28.151-.353-.055-.056-.152.03-.31.17-.342 1.074-.26 2.065-.798 3.25-.992" transform="translate(-1190 -9017) translate(1087 9005) translate(103 12)"></path><path fill="#D8D8D4" d="M20.527 44.922c-.331.02-.541.035-.543-.247 0-.231-.04-.505.29-.554.378-.06.756-.1 1.133-.147.193-.023.394-.049.415.235.023.252.007.487-.307.542-.374.068-.748.13-.988.17" transform="translate(-1190 -9017) translate(1087 9005) translate(103 12)"></path><path fill="#D4D4CF" d="M23.089 62.486c-1.18-.123-2.207-.598-3.258-.991-.152-.059-.224-.18-.178-.336.028-.107.135-.121.229-.088 1.035.385 2.07.773 3.1 1.168.045.018.056.122.107.247" transform="translate(-1190 -9017) translate(1087 9005) translate(103 12)"></path><path fill="#E4E4DF" d="M38.43 58.62c-.005.475-.876 1.02-1.301.817-.16-.076-.147-.226-.145-.363.007-.228-.072-.49.222-.612.217-.09.436-.179.662-.246.536-.16.572-.134.563.404" transform="translate(-1190 -9017) translate(1087 9005) translate(103 12)"></path><path fill="#CDCCC7" d="M37.12 63.883c.238-.365.457-.49.7-.56.824-.228 1.637-.479 2.426-.809.123-.053.28-.167.365.016.063.134 0 .316-.145.362-1.065.312-2.07.843-3.346.991" transform="translate(-1190 -9017) translate(1087 9005) translate(103 12)"></path><path fill="#2C7644" d="M54.302 9.53c.628.323 1.347.631 1.905 1.198.06.06.058.24.016.331-.07.15-.205.06-.3.006-.593-.35-1.182-.699-1.766-1.057-.127-.078-.205-.205-.154-.367.034-.097.115-.14.299-.111" transform="translate(-1190 -9017) translate(1087 9005) translate(103 12)"></path><path fill="#E1E1DC" d="M36.09 51.883c.033-.5.27-.811.55-1.083.182-.177.425-.214.655-.07.245.153.421.375.499.654.042.153-.106.185-.219.208-.476.097-.954.187-1.485.29" transform="translate(-1190 -9017) translate(1087 9005) translate(103 12)"></path><path fill="#CACAC5" d="M36.086 46.33c.448 0 .896-.006 1.344.004.104.004.253-.026.288.133.032.151-.087.236-.194.247-.939.091-1.88.113-2.819-.013-.108-.016-.226-.095-.19-.248.028-.117.139-.11.225-.115.448-.026.896-.042 1.346-.062v.053" transform="translate(-1190 -9017) translate(1087 9005) translate(103 12)"></path><path fill="#2D7644" d="M7.389 10.64c-.043.022-.085.049-.13.06-.22.049-.47.426-.65.08-.159-.3.208-.43.423-.552.59-.33 1.119-.774 1.771-.995.312.373.076.609-.215.81-.37.254-.778.445-1.2.596" transform="translate(-1190 -9017) translate(1087 9005) translate(103 12)"></path><path fill="#E5E5E0" d="M53.471 14.355c.507-.125.514.192.538.6.034.562-.301.494-.668.524-.507.038-.561-.207-.577-.632-.025-.571.316-.522.707-.492" transform="translate(-1190 -9017) translate(1087 9005) translate(103 12)"></path><path fill="#2D7745" d="M11.824 9.345c.579.322 1.154.643 1.734.958.212.113.373.284.247.507-.14.25-.344.035-.481-.044-.558-.313-1.096-.65-1.643-.98-.107-.197-.187-.386.143-.44" transform="translate(-1190 -9017) translate(1087 9005) translate(103 12)"></path><path fill="#DEDED9" d="M31.824 60.15c.164-.233.013-.695.475-.662.413.032.593.329.59.74-.003.425-.24.712-.632.693-.443-.021-.304-.489-.433-.771" transform="translate(-1190 -9017) translate(1087 9005) translate(103 12)"></path><path fill="#F9F9F6" d="M22.96 44.493c-.378.065-.277-.21-.293-.404-.018-.19.014-.314.254-.325.151-.007.303-.086.457-.134.222-.113.462-.039.695-.061.319-.03.391.142.393.426 0 .286-.074.43-.393.434-.373.006-.752-.086-1.113.064" transform="translate(-1190 -9017) translate(1087 9005) translate(103 12)"></path><path fill="#F2F1ED" d="M11.73 14.734c.144.573-.24.517-.613.542-.439.028-.615-.075-.622-.57-.007-.533.248-.544.645-.549.427-.009.71.058.59.577" transform="translate(-1190 -9017) translate(1087 9005) translate(103 12)"></path><path fill="#A4A6A2" d="M13.1 45.644l.18-.184c.047-.04.087-.035.12.018l1.274 1.164c-.264 1.087-.026 2.19-.113 3.283-.026.287.128.619-.181.848-.23-.23-.182-.529-.184-.808-.005-.497-.023-.995.006-1.492.05-.963.083-1.905-.932-2.464-.123-.067-.2-.205-.17-.365" transform="translate(-1190 -9017) translate(1087 9005) translate(103 12)"></path><path fill="#19402A" d="M11.824 9.345c-.17.106-.144.28-.143.441-.345-.114-.661-.008-.977.122l-1.302.039c-.169-.053-.384-.07-.275-.346.48-.268 1.007-.08 1.55-.167-.506-.074-.987.04-1.448-.1-.063-.03-.112-.08-.15-.14.93-.189 1.85-.277 2.745.151" transform="translate(-1190 -9017) translate(1087 9005) translate(103 12)"></path><path fill="#DCDCD7" d="M42.925 44.01c.272-.031.556-.007.558.487 0 .408-.193.44-.524.445-.438.009-.644-.13-.651-.59-.004-.44.282-.338.617-.342" transform="translate(-1190 -9017) translate(1087 9005) translate(103 12)"></path><path fill="#DBDAD5" d="M55.098 13.06c0 .14-.006.282 0 .42.007.23-.083.352-.327.35-.268-.003-.287-.181-.286-.382.004-.283.002-.565.002-.845-.002-.2.021-.373.29-.383.313-.01.324.19.322.418-.003.14-.001.28-.001.421" transform="translate(-1190 -9017) translate(1087 9005) translate(103 12)"></path><path fill="#FFFEFE" d="M12.825 12.887v.496c-.003.17-.083.263-.257.268-.19.007-.336-.048-.346-.261-.01-.282-.002-.568-.004-.852 0-.242-.023-.501.343-.482.333.02.25.28.262.477.007.116.002.236.002.354" transform="translate(-1190 -9017) translate(1087 9005) translate(103 12)"></path><path fill="#296E40" d="M6.203 34.102c-.173.407-.298.832-.721 1.017-.198.087-.265-.13-.201-.24.174-.308-.138-.873.47-.95.165-.02.376-.069.452.173" transform="translate(-1190 -9017) translate(1087 9005) translate(103 12)"></path><path fill="#173B27" d="M9.116 9.628l.286.317-1.688.704-.325-.01c.344-.228.685-.464 1.038-.68.282-.169.47-.368.375-.726.092-.013.187-.023.277-.037l.048.035c.1.138.095.268-.01.397" transform="translate(-1190 -9017) translate(1087 9005) translate(103 12)"></path><path fill="#DCDCD8" d="M35.51 52.882c.26-.069.311.067.33.295.055.53-.345.511-.673.59-.307.075-.34-.102-.362-.343-.053-.577.41-.443.706-.542" transform="translate(-1190 -9017) translate(1087 9005) translate(103 12)"></path><path fill="#FDFBF9" d="M50.302 13.16c.01.197.028.34.022.48-.008.16-.082.273-.266.259-.136-.01-.213-.089-.224-.223-.01-.14-.033-.29-.003-.423.065-.296-.198-.83.218-.841.49-.015.127.534.253.747" transform="translate(-1190 -9017) translate(1087 9005) translate(103 12)"></path><path fill="#D7D7D2" d="M7.731 40.2c-.254-.032-.52.078-.51-.28.013-.364.239-.49.558-.49.249 0 .504.068.51.364.007.42-.376.32-.558.406" transform="translate(-1190 -9017) translate(1087 9005) translate(103 12)"></path><path fill="#2A6F40" d="M47.692 35.175c.056-.37.08-.692.164-.992.067-.252.308-.292.52-.224.288.09.145.299.065.456-.15.301-.257.654-.75.76" transform="translate(-1190 -9017) translate(1087 9005) translate(103 12)"></path><path fill="#D3D3CE" d="M55.397 40.34c-.151-.059-.527.072-.497-.34.02-.308.275-.424.57-.405.246.014.499.072.492.392-.01.307-.224.388-.565.353" transform="translate(-1190 -9017) translate(1087 9005) translate(103 12)"></path><path fill="#D4D4CF" d="M13.092 39.458c.312-.013.644.047.621.403-.026.389-.443.221-.682.304-.26.086-.387-.037-.383-.321.003-.321.176-.408.444-.386" transform="translate(-1190 -9017) translate(1087 9005) translate(103 12)"></path><path fill="#2E7B47" d="M53.699 9.655c-.64-.05-1.295.067-1.934-.148.618-.234 1.26-.106 1.89-.143.151.074.155.175.044.291" transform="translate(-1190 -9017) translate(1087 9005) translate(103 12)"></path><path fill="#D4D4CF" d="M31.221 45.86c.567-.446 1.084-.333 1.604-.028-.505.157-1.01.25-1.604.029" transform="translate(-1190 -9017) translate(1087 9005) translate(103 12)"></path><path fill="#742328" d="M28.391 35.644l-.17-.17c.47-.469.94-.942 1.407-1.411.042.042.084.083.125.129-.346.578-.849 1.02-1.362 1.452" transform="translate(-1190 -9017) translate(1087 9005) translate(103 12)"></path><path fill="#C9C9C4" d="M38.343 53.521c-.254.002-.228-.183-.24-.342-.03-.399.256-.524.56-.596.276-.064.207.166.221.314.027.393-.252.515-.541.624" transform="translate(-1190 -9017) translate(1087 9005) translate(103 12)"></path><path fill="#286A3E" d="M15.321 35.223c-.421-.215-.458-.559-.577-.85-.061-.154-.137-.339.103-.397.22-.055.372.062.398.288.034.289.046.583.076.96" transform="translate(-1190 -9017) translate(1087 9005) translate(103 12)"></path><path fill="#D6D6D1" d="M10.424 40.091c-.245-.02-.482.036-.473-.301.01-.32.21-.36.47-.369.296-.007.43.118.42.41-.008.347-.283.213-.417.26" transform="translate(-1190 -9017) translate(1087 9005) translate(103 12)"></path><path fill="#A3A6A3" d="M22.96 44.493c.312-.238.679-.11 1.02-.157.225-.027.417-.028.422-.335.004-.351-.206-.362-.465-.353-.187.009-.37-.009-.56-.018.21-.14.456-.11.69-.137.3-.04.51.016.501.397-.007.298.027.59-.404.59-.402-.001-.802.008-1.204.013" transform="translate(-1190 -9017) translate(1087 9005) translate(103 12)"></path><path fill="#8E908D" d="M7.959 12.224c.331.436.11.924.121 1.388.002.118-.14.177-.268.171-.127-.001-.264-.056-.257-.183.02-.46-.223-.953.128-1.383.217.215.1.49.142.697.028-.207-.074-.478.134-.69" transform="translate(-1190 -9017) translate(1087 9005) translate(103 12)"></path><path fill="#D0D1CB" d="M49.986 40.357c-.224-.016-.48.058-.502-.265-.023-.309.192-.337.421-.325.224.013.519-.07.52.302.002.321-.253.277-.439.288" transform="translate(-1190 -9017) translate(1087 9005) translate(103 12)"></path><path fill="#2C7645" d="M57.699 35.101c-.118-.009-.156-.002-.163-.014-.236-.295-.409-.62-.347-1.006.018-.095.208-.151.302-.058.32.32.148.706.208 1.078" transform="translate(-1190 -9017) translate(1087 9005) translate(103 12)"></path><path fill="#A4A6A2" d="M13.242 45.215l-.302-.171c-.033-.755-.197-1.523.154-2.253.11.099.215.198.326.296l-.047.38c-.168.575.074 1.178-.131 1.748" transform="translate(-1190 -9017) translate(1087 9005) translate(103 12)"></path><path fill="#959793" d="M6.968 43.065c.095.046.187.095.284.144.265.605.411 1.22.13 1.867l-.266.139c-.061-.716.08-1.446-.148-2.15" transform="translate(-1190 -9017) translate(1087 9005) translate(103 12)"></path><path fill="#FDFBF9" d="M8.467 12.224v1.365c-.404-.432-.244-.913-.277-1.372l.277.007" transform="translate(-1190 -9017) translate(1087 9005) translate(103 12)"></path><path fill="#9B9C99" d="M49.108 45.933c.051.051.106.102.159.153-.136.496-.544.787-.861 1.145-.115-.185.08-.457-.175-.601.242-.295.533-.533.877-.697" transform="translate(-1190 -9017) translate(1087 9005) translate(103 12)"></path><path fill="#A3A3A0" d="M35.323 55.575c.273-.052.348.049.351.211.004.291-.243.295-.432.357-.17.054-.28-.01-.254-.194.03-.24.197-.351.335-.374" transform="translate(-1190 -9017) translate(1087 9005) translate(103 12)"></path><path fill="#DCDCD8" d="M55.395 15.578c-.003.198-.1.302-.301.305-.237.007-.355-.102-.342-.337.01-.211.151-.271.338-.27.198.004.307.096.305.302" transform="translate(-1190 -9017) translate(1087 9005) translate(103 12)"></path><path fill="#FFFFFE" d="M52.951 40.205c-.35.203-.653.29-.698-.275.165-.29.437-.274.668-.157.159.08.132.277.03.432" transform="translate(-1190 -9017) translate(1087 9005) translate(103 12)"></path><path fill="#959793" d="M7.072 45.46l.202.202c-.14.432-.405.699-.896.658-.09-.035-.18-.072-.27-.11.323-.25.643-.499.964-.75" transform="translate(-1190 -9017) translate(1087 9005) translate(103 12)"></path><path fill="#DCDCD7" d="M8.005 15.41c0 .214-.12.288-.32.283-.193-.009-.31-.09-.302-.303.007-.208.128-.284.322-.284.209 0 .3.106.3.305" transform="translate(-1190 -9017) translate(1087 9005) translate(103 12)"></path><path fill="#D9DAD4" d="M12.798 15.104c.194-.002.315.083.322.288.01.211-.105.298-.301.303-.198.007-.318-.07-.32-.284-.003-.2.094-.305.299-.307" transform="translate(-1190 -9017) translate(1087 9005) translate(103 12)"></path><path fill="#5D1F22" d="M35.962 22.067c-.113.014-.23.02-.286.147-.317-.133-.596-.307-.827-.743.46.206.822.33 1.113.596" transform="translate(-1190 -9017) translate(1087 9005) translate(103 12)"></path><path fill="#A3A5A1" d="M55.804 46.12c.012-.075.025-.155.035-.23.323.24.695.42.933.765-.11.004-.206.027-.257.14-.43-.02-.644-.27-.711-.674" transform="translate(-1190 -9017) translate(1087 9005) translate(103 12)"></path><path fill="#323533" d="M13.242 45.215c.1-.579-.235-1.188.13-1.747.011.67.022 1.34.03 2.008-.04-.01-.08-.016-.123-.016l-.037-.245" transform="translate(-1190 -9017) translate(1087 9005) translate(103 12)"></path><path fill="#EEEDE8" d="M35.26 57.327c-.133.016-.244-.027-.223-.177.027-.203.159-.324.367-.356.13-.018.235.025.222.178-.016.22-.174.31-.367.355" transform="translate(-1190 -9017) translate(1087 9005) translate(103 12)"></path><path fill="#D0D0CA" d="M44.177 45.17c-.208-.378-.18-.662.002-1.05.205.385.201.669-.002 1.05" transform="translate(-1190 -9017) translate(1087 9005) translate(103 12)"></path><path fill="#E1E1DB" d="M49.895 15.77c0-.13.002-.26.004-.393.195.029.536-.183.532.2-.001.38-.342.16-.536.194" transform="translate(-1190 -9017) translate(1087 9005) translate(103 12)"></path><path fill="#F2F1EC" d="M37.022 50.076c-.226-.295-.223-.536-.104-.776.014-.027.165-.03.18-.004.135.244.107.487-.076.78" transform="translate(-1190 -9017) translate(1087 9005) translate(103 12)"></path><path fill="#1A1919" d="M35.704 51.239c-.021.33-.217.495-.549.658.021-.427.277-.55.549-.658M36.324 49.521c.305.092.317.328.386.648-.372-.13-.474-.313-.386-.648" transform="translate(-1190 -9017) translate(1087 9005) translate(103 12)"></path><path fill="#A8A9A5" d="M52.951 40.205c-.005-.668-.347-.481-.698-.275.003-.56.435-.381.66-.3.262.095.322.36.038.575" transform="translate(-1190 -9017) translate(1087 9005) translate(103 12)"></path><path fill="#9EA09D" d="M37.399 50.33c-.083-.48-.009-.696.266-.904.156.358-.028.542-.266.903" transform="translate(-1190 -9017) translate(1087 9005) translate(103 12)"></path><path fill="#B0AFAC" d="M38.267 51.33c.025-.127.11-.159.208-.136.149.03.258.129.27.284.009.155-.102.203-.233.154-.137-.052-.234-.154-.245-.302" transform="translate(-1190 -9017) translate(1087 9005) translate(103 12)"></path><g transform="translate(-1190 -9017) translate(1087 9005) translate(103 12) translate(62.244 62.953)"><mask id="5jrng482fj" fill="#fff"><use xlink:href="#jx8b5iml4i"></use></mask><path fill="#1A1919" d="M1.136 2.825c.034-.625-.004-1.25.134-1.868.01.626.162 1.263-.134 1.868" mask="url(#5jrng482fj)"></path></g><path fill="#2E7845" d="M47.81 76.443c-.174.256-.342.173-.499-.032-.398-.517-1.077-.894-.876-1.762.649.226 1.11.667 1.566 1.097.339.325-.051.489-.19.697m-8.035 6.472c-.299.365-.828.432-1.286.547-.247.06-.307-.18-.37-.353-.154-.451-.267-.912-.255-1.393 0-.073-.007-.145.002-.216.06-.495.086-1.166.568-1.28.355-.085.448.617.665.965.162.26.302.541.4.832.106.302.503.618.276.898m3.279-4.899c-.418-.118-.827-.287-.83-.84-.003-.126-.063-.333.165-.289.45.092.785.327.827.84.01.14.042.348-.162.29m7.128-2.317c-1.75-1.231-3.505-2.457-5.258-3.685-.078-.05-.166-.088-.304.067.178.86.198 1.782.064 2.705-.103.696.132 1.248.633 1.726.356.344.702.711 1.018 1.094.358.44.187.857-.152 1.217-.337.357-.7.302-1.088.034-.903-.618-1.438-1.429-1.41-2.563.018-.64.004-1.284.004-1.928-.055-.027-.108-.057-.164-.085-.607.956-1.498 1.15-2.503 1.021-.429-.054-.459.16-.399.512.134.77.132 1.522-.517 2.106-.301.556-.215.725.364.71.144-.006.28-.047.421-.059 1.044-.093 2.013.386 2.41 1.177.23.458.208.894-.194 1.217-.487.393-.962.896-1.692.667-.215-.07-.32-.277-.413-.471-.155-.32-.26-.66-.409-.983-.305-.66-.42-1.411-.944-1.967-.134-.271-.285-.543-.405-.824-1.33-3.154-2.675-6.306-3.966-9.478-.266-.649-.533-.612-1.042-.317-.404.233-.272.489-.17.778 1.087 3.045 2.165 6.096 3.276 9.134.166.453.111.728-.233 1.048-.552.513-.866 1.173-1.055 1.905-.448 1.762-.086 3.445.415 5.126.125.413.39.33.674.29 1.421-.21 2.785-.615 4.087-1.227 3.89-1.829 6.756-4.787 9.155-8.271.256-.372.028-.512-.203-.676M17.356 74.68c.09-.431.624-.49 1.067-.55.203.106.547-.076.621.295.034.157-.868 1.115-.98 1.055-.338-.18-.773-.494-.708-.8m11.035-7.738c-.372-.012-.439.337-.583.552-2.518 3.812-5.019 7.633-7.534 11.443-1.103 1.67-1.345 1.673-2.673.106-.032-.037-.056-.08-.088-.111-.291-.277-.31-.53-.021-.849.605-.672 1.173-1.379 1.75-2.069.568-.674 1.14-1.342 1.686-2.032.113-.141.434-.428-.042-.51-.914-.155-1.771-.564-2.712-.596-.922-.032-1.63.453-2.332.95-.75.532-.765.645-.22 1.335.192.243.36.511.582.723.312.3.291.511-.028.811-.334.314-.526.16-.77-.076-.446-.444-.765-.961-1.024-1.533-.233-.511-.14-.897.257-1.275.452-.422.873-.875 1.307-1.318.207-.21.31-.397-.112-.462-.981-.146-1.957-.294-2.671.655-.111.15-.277.262-.429.377-.797.591-1.695.755-2.64.505-.86-.228-1.375-.798-1.47-1.722-.032-.31-.016-.813-.457-.736-.358.06-.167.53-.15.808.097 1.755 1.381 2.923 3.419 3.057.496.034.758.207 1.002.62 1.656 2.8 3.847 5.13 6.438 7.078 1.196.898.974.953 1.726-.324 2.466-4.206 4.893-8.436 7.333-12.657.354-.617.799-1.187 1.02-1.879.158-.5-.068-.855-.564-.871M46.88 69.304c-.36-.099-.733-.162-1.074-.303-1.02-.425-1.314-1.441-.667-2.341.609-.849 1.457-1.26 2.512-1.249.88.01 1.76-.002 2.64-.003.253 0 .5-.029.49-.362-.013-.453.264-.468.608-.475 1.88-.044 1.923-.049 1.83 1.853-.131 2.684-.752 5.256-1.973 7.668-.555 1.095-.56 1.099-1.593.427-4.127-2.683-8.252-5.368-12.374-8.057-.766-.499-.74-.543-.097-1.176.32-.318.55-.148.813.003 2.04 1.173 4.077 2.354 6.114 3.535 1.748 1.013 3.493 2.03 5.241 3.042.71.412.89.379 1.173-.362.448-1.178.863-2.373.801-3.667-.023-.471-.171-.715-.732-.69-1.164.053-2.33.009-3.496.023-.801.009-1.048.44-.665 1.162.153.288.35.55.527.824l-.078.148z" transform="translate(-1190 -9017) translate(1087 9005) translate(103 12)"></path><path fill="#2E7845" d="M10 67.513c0-.632.012-1.265-.004-1.895-.008-.29.205-.526.494-.543 3.754-.196 7.47-.78 11.221-1.006.297-.017.817-.372.916.276.095.608-.448.522-.776.576-3.003.48-6.01.94-9.016 1.408-.288.046-.646-.026-.676.448-.032.45 0 .741.598.575.617-.167 1.253-.266 1.89-.361 1.157-.172 2.146.21 3.03.949.347.29.356.534-.004.783-.312.215-.631.427-.965.601-1.076.561-2.164 1.096-3.236 1.658-.25.13-.632.221-.676.486-.166 1.005-1.092.912-1.706 1.264-.056.036-.167.066-.2.037-.44-.384-.412-.975-.62-1.464-.134-.312.099-.432.317-.529.695-.314 1.389-.62 2.087-.924.655-.28 1.33-.522 1.965-.842.323-.165.992-.227.787-.702-.141-.33-.725-.014-1.087.118-1.14.41-2.27.847-3.408 1.267-.928.346-.93.342-.931-.612v-1.568z" transform="translate(-1190 -9017) translate(1087 9005) translate(103 12)"></path><path fill="#2F7845" d="M23.433 85.56c-.541-.248-1.077-.45-1.425-.878-.265-.328.08-.68.224-.979 2.514-5.205 5.042-10.404 7.578-15.599.099-.203.113-.647.558-.439.375.176.3.45.165.774-2.212 5.469-4.415 10.943-6.625 16.41-.108.262-.152.6-.475.71" transform="translate(-1190 -9017) translate(1087 9005) translate(103 12)"></path><path fill="#2E7845" d="M32.426 71.125c-.041-.496-.115-.961.67-.896.448.037.47.286.53.598.461 2.454.655 4.943.992 7.414.335 2.445.556 4.907.868 7.358.072.57-.155.725-.631.755-.166.008-.334.003-.498.023-.59.082-.799-.113-.845-.759-.316-4.618-.684-9.236-1.039-13.854-.014-.214-.03-.426-.047-.639" transform="translate(-1190 -9017) translate(1087 9005) translate(103 12)"></path><path fill="#2C7744" d="M53.7 66.426c0-.332-.012-.665.002-.997.013-.252-.16-.61.321-.642.484-.032.448.298.45.617.012 2.3-.238 4.57-.931 6.764-2.443 7.736-7.522 12.908-15.215 15.507-.178.06-.376.08-.547.155-.331.147-.51.076-.644-.282-.157-.436.108-.473.403-.556 2.683-.758 5.142-1.977 7.373-3.655 5.32-3.999 8.547-10.212 8.788-16.911" transform="translate(-1190 -9017) translate(1087 9005) translate(103 12)"></path><path fill="#2F7845" d="M30.553 81.384c-.526.05-.478-.286-.462-.597.014-.22-.042-.517.35-.434.341.07.599.184.572.634-.022.367-.197.434-.46.397zm1.67-.224c0-.547-.007-1.092.004-1.643.005-.331-.134-.511-.466-.453-1.178.205-2.33.534-2.857 1.73-.288.646-.646.95-1.306.902-.515-.039-.99.233-1.148.725-.314.972-.677 1.931-.991 2.902-.487 1.513-.406 1.607 1.183 1.73.392.028.56-.076.591-.485.065-.806.226-1.605.256-2.41.023-.614.302-.734.841-.734 1.073 0 2.144-.091 3.214-.093.507 0 .674-.189.651-.67-.024-.5-.005-1-.005-1.501h.034z" transform="translate(-1190 -9017) translate(1087 9005) translate(103 12)"></path><path fill="#1A1919" d="M7.774 78.364c-.423-.045-.755.24-1.136.342-.204.056-.457.346-.619.033-.137-.266-.358-.564-.077-.922.315-.397.673-.778.843-1.31-.501-.052-.778.341-1.136.525-.432.224-.61-.025-.813-.295-.258-.337.061-.488.257-.605.817-.485 1.644-.952 2.487-1.392.223-.116.556-.342.74.043.15.31.463.62.123 1.039-.386.469-.722.984-1.198 1.645.656-.218 1.12-.368 1.582-.529.408-.14.757-.05 1.022.288.26.335-.044.603-.196.825-.607.89-1.446 1.569-2.2 2.329-.146.148-.29.173-.4-.023-.147-.266-.536-.506-.168-.86.34-.324.708-.618 1.062-.927l-.173-.206M5.673 73.606c-.625-.106-1.191-.034-1.764-.117-.492-.072-.533-.273-.268-.654.379-.547.936-.912 1.614-1.454-.73.115-1.244.171-1.745.277-.459.1-.506-.21-.593-.515-.109-.377.193-.37.408-.423.905-.212 1.804-.425 2.716-.603.24-.048.623-.239.715.188.077.362.277.766-.189 1.09-.478.334-.896.748-1.284 1.276.432-.04.868-.057 1.298-.122.522-.081.83.065 1.034.598.21.547-.155.686-.464.873-.73.448-1.471.882-2.22 1.295-.191.106-.449.46-.641.106-.16-.298-.381-.72.08-1.016.428-.274.867-.533 1.303-.8M18.601 89.21c-.684-.292-.19.437-.469.596-.852-.447-.942-1.697-.171-2.205.28-.185.58-.212.87-.048.391.222.513.6.518 1.023.005.503.043.974-.748.634m1.812-.688c0-1.08-.789-1.958-1.789-2.057-1.078-.104-1.857.437-2.118 1.47-.314 1.241.112 2.476 1.062 2.765.776.236 1.51.531 2.245.977.171-.516-.362-.933.051-1.363.473-.498.549-1.147.549-1.792M44.02 90.153c-.285-.647-.497-1.14-.715-1.63-.182-.405-.348-.758.26-1.007.622-.254.562.298.682.54.398.808.753 1.642 1.09 2.478.095.239.395.526.09.771-.302.246-.686.351-1.071.147-.376-.201-.74-.427-1.111-.639-.3-.17-.579-.393-1.034-.469.339.654.676 1.235.811 1.895.048.24.14.467-.208.568-.284.08-.543.178-.728-.179-.561-1.076-.932-2.233-1.396-3.348-.084-.203.044-.301.226-.363.4-.14.792-.17 1.17.058.589.356 1.173.715 1.933 1.178M40.724 92.29c.001 1.009-.56 1.57-1.607 1.732-.805.127-1.75-.457-1.817-1.378-.057-.73-.233-1.455-.376-2.175-.074-.38.074-.513.434-.559.328-.04.53-.016.603.378.122.677.28 1.349.468 2.012.093.334.222.73.718.609.522-.132.543-.519.453-.958-.145-.699-.28-1.399-.411-2.1-.046-.236-.117-.518.266-.504.277.01.67-.183.759.286.17.886.495 1.74.51 2.657M22.34 92.717c-1.272-.037-2.022-.903-1.914-2.027.09-.917.532-1.716.829-2.565.1-.286.277-.256.502-.137.27.142.59.21.422.66-.254.687-.483 1.386-.605 2.12-.067.409.009.672.448.816.494.16.563-.174.672-.492.226-.647.476-1.291.674-1.949.113-.376.328-.386.65-.335.368.062.382.264.322.563-.178.86-.34 1.721-.729 2.52-.29.598-.726.932-1.272.826M4.582 68.886c-.072-.002-.143-.002-.215-.002-1.857.035-2.67-1.267-1.884-3.057.11-.25.325-.462.586-.552.885-.305 1.796-.217 2.699-.193.46.013.303.389.326.648.027.282 0 .52-.386.522-.595 0-1.19.037-1.78.04-.526.004-.723.302-.714.773.008.464.294.702.733.697.595-.012 1.186-.062 1.777-.122.384-.04.52.113.504.478-.016.321.1.702-.434.71-.405.005-.808.035-1.212.058M54.443 80.725c-.021.198-.07.5-.337.438-.282-.064-.598-.265-.582-.598.007-.212.243-.39.526-.393.301.056.426.268.393.553m2.487.256c-.08-.185-.293-.107-.448-.12-.663-.05-1.184-.116-1.307-1.021-.129-.962-1.238-1.182-1.898-.448-.335.368-.602.795-.9 1.196-.16.217-.203.4.043.614.807.696 1.607 1.407 2.395 2.127.231.212.37.189.582-.035.646-.685-.099-.912-.448-1.357.662-.104 1.381.207 1.782-.53.076-.138.279-.248.2-.426M26.332 91.466c-.275.021-.442-.084-.328-.356.106-.25-.065-.706.383-.716.365-.01.519.27.485.637.057.432-.252.414-.54.435m1.108.558c.65-.383.533-1.018.477-1.591-.052-.533-.523-.694-.964-.833-.315-.095-.647-.155-.966-.24-.397-.108-.604-.012-.678.441-.167 1.034-.397 2.053-.59 3.083-.046.246-.27.583.241.636.38.038.72.07.74-.48.006-.214.027-.46.262-.708.148.466.256.893.42 1.3.18.44.647.477.974.381.35-.102 0-.435-.004-.666-.005-.184-.081-.374-.16-.545-.163-.344-.066-.595.248-.778" transform="translate(-1190 -9017) translate(1087 9005) translate(103 12)"></path><path fill="#2D7845" d="M19.382 84.257c-.085.129-.17.303-.297.437-.166.17-.303 0-.432-.09-3.1-2.17-5.52-4.933-7.285-8.278-.134-.261-.155-.407.151-.556.403-.195.49.076.63.332 1.434 2.65 3.31 4.929 5.66 6.816.408.33.84.626 1.257.94.127.097.31.148.316.399" transform="translate(-1190 -9017) translate(1087 9005) translate(103 12)"></path><path fill="#1A1919" d="M30.546 92.503c-.173.048-.39.048-.554-.014-.211-.077-.088-.284-.061-.432.067-.362.153-.72.266-1.242.38.46.36.854.448 1.21.035.155.173.4-.099.478m1.519 1.062c-.305-1.048-.624-2.092-.944-3.138-.12-.386-.372-.6-.808-.547-.538-.102-.762.228-.906.676-.314.998-.635 1.991-.94 2.993-.059.19-.258.417-.084.588.18.176.452.02.685.01.219-.008.302-.194.416-.345.355-.46.902-.533 1.364-.19.19.14.356.32.55.45.185.126.434.168.616.077.26-.128.106-.389.051-.574M11.321 82.541c-.091.147-.132.413-.358.367-.24-.05-.353-.305-.446-.51-.136-.307.192-.324.346-.414.277-.168.578-.293.979-.49-.104.49-.337.756-.52 1.047m.915-1.917c-.145-.226-.353-.2-.568-.1-.942.442-1.914.825-2.837 1.319-.451.241-.352.44-.114.756.2.263.435.21.7.194.43-.028 1.22.833 1.027 1.184-.36.66.08.942.492 1.37.623-1.222 1.243-2.388 1.817-3.575.252-.53-.29-.79-.517-1.148M55.48 77.632c.579-.177.87-.46 1.198-.674.663-.44 1.59-.074 1.778.702.206.859-.238 1.833-1.01 2.236-.206.108-.396.223-.509-.08-.088-.237-.423-.468-.046-.738.21-.15.462-.261.561-.522.072-.185.258-.395.01-.57-.186-.13-.354-.026-.504.118-.153.147-.314.29-.487.411-.331.233-.661.487-1.1.226-.464-.279-.732-.674-.7-1.226.022-.432.197-.825.338-1.228.16-.446.452-.414.796-.241.379.19.356.416.109.725-.157.197-.235.457-.434.86M52.298 86.591c-.11-.104-.245-.203-.346-.33-.638-.795-1.268-1.598-1.898-2.397-.088-.111-.22-.245-.121-.376.423-.54.852-1.08 1.314-1.582.18-.198.333.046.466.167.142.135.273.27.109.482-.171.228-.337.459-.496.692-.121.18-.125.377.062.504.206.136.275-.092.388-.192.176-.154.332-.36.536-.45.16-.069.258.16.37.277.133.136.172.279.034.44-.06.071-.13.144-.164.23-.11.268-.65.492-.257.813.349.29.467-.23.69-.393.139-.1.232-.381.446-.162.164.17.52.367.338.624-.391.561-.87 1.059-1.317 1.58-.03.034-.085.04-.154.073M49.072 87.104c-.134-.756-.249-1.36-.348-1.965-.035-.208-.083-.435.069-.619.162-.196.332-.47.598-.434.24.037.187.353.215.547.141.938.274 1.877.37 2.82.038.371.073.863-.27 1.048-.357.19-.7-.167-.99-.405-.63-.507-1.253-1.016-1.863-1.544-.17-.146-.609-.263-.37-.545.225-.263.597-.619 1.04-.245.485.413.961.833 1.549 1.342M56.729 72.476c.129-.7.257-1.403.393-2.101.048-.254.138-.447.475-.36.286.076.502.164.42.517-.11.478.165.624.568.707.532.113 1.054.29 1.59.395.426.088.428.332.378.681-.056.386-.25.468-.59.399-.42-.083-.846-.141-1.264-.224-.469-.094-.996-.365-1.092.462-.028.23-.236.178-.4.113-.263-.108-.57-.185-.478-.59M57.252 69.545c-.093-.744-.157-1.37.607-1.702.231-.1.369-.312.032-.44-.8-.304-.748-.918-.632-1.611.447.075.743.4 1.055.658.602.497 1.262.728 2.04.633.31-.04.513.051.481.414-.02.267.092.665-.356.612-1.22-.146-2.068.52-2.906 1.237-.067.058-.151.095-.32.2M13.71 86.975c-.125.155-.25.365-.426.507-.171.135-.293-.066-.418-.163-.039-.028-.073-.063-.108-.095-1.362-1.22-1.363-1.222-.301-2.69.335-.462.673-.92 1.044-1.357.148-.176.25-.617.637-.285.315.27.626.534.232 1-.41.492-.753 1.046-1.18 1.519-.326.36-.374.6.053.892.208.143.404.337.468.672M47.657 89.799c-.1.29-.407.358-.626.52-.226.166-.34-.016-.44-.183-.59-.972-1.181-1.94-1.758-2.92-.095-.16-.32-.406.012-.518.299-.1.678-.503.944-.096.65.988 1.22 2.027 1.819 3.047.021.04.028.09.05.15M59.37 76.372c-.083-.039-.168-.083-.253-.122-.827-.403-1.644-.84-2.494-1.197-.67-.288-.448-.695-.258-1.14.09-.208.235-.211.403-.129.973.487 1.945.976 2.92 1.463.273.134.227.342.112.534-.12.205-.076.542-.43.591" transform="translate(-1190 -9017) translate(1087 9005) translate(103 12)"></path><path fill="#387D4B" d="M8.779 67.306c0-.566.007-1.136-.002-1.704-.005-.273.058-.452.383-.46.32-.006.4.151.4.437-.005 1.397-.123 2.792.1 4.184.057.357-.234.357-.456.4-.3.057-.344-.146-.383-.377-.127-.825-.113-1.651-.042-2.48" transform="translate(-1190 -9017) translate(1087 9005) translate(103 12)"></path><path fill="#307A47" d="M25.08 86.822c.695.18 1.27.314 1.837.478.349.102.266.416.236.66-.044.335-.298.217-.496.166-.552-.135-1.1-.274-1.647-.422-.201-.053-.351-.166-.238-.411.091-.201.091-.494.308-.471" transform="translate(-1190 -9017) translate(1087 9005) translate(103 12)"></path><path fill="#3D7F4E" d="M23.406 86.58c-.018.385-.141.555-.533.36-.506-.252-1.023-.481-1.537-.716-.232-.106-.356-.245-.172-.487.13-.169.174-.481.515-.322.515.24 1.026.48 1.543.712.22.103.226.275.184.454" transform="translate(-1190 -9017) translate(1087 9005) translate(103 12)"></path><path fill="#2B7745" d="M33.967 88.562c-.247.033-.483.069-.493-.3-.01-.307.022-.556.421-.587.445-.036.893-.092 1.33-.179.33-.068.471.03.53.36.058.335-.064.478-.39.515-.466.053-.93.126-1.398.19" transform="translate(-1190 -9017) translate(1087 9005) translate(103 12)"></path><path fill="#478556" d="M32.748 69.084c-.205-.124-.358-.193-.48-.298-.297-.254-.335-.664-.125-.884.238-.25.666-.164.998-.039.141.05.155.29.035.362-.499.308-.102.502.06.748.15.222.452.51.215.735-.241.237-.756.29-.994.12-.487-.344.104-.487.29-.744" transform="translate(-1190 -9017) translate(1087 9005) translate(103 12)"></path><path fill="#1A1919" d="M16.109 87.09c-.16.195-.292.389-.454.55-.162.156-.298.008-.43-.082-.252-.175-.507-.346-.762-.511-.237-.157-.505-.269-.219-.643.247-.32.446-.529.836-.197.334.284.746.481 1.029.884" transform="translate(-1190 -9017) translate(1087 9005) translate(103 12)"></path><path fill="#397E4C" d="M55.583 67.778c.434.092.771.31.708.8-.059.472-.425.668-.872.62-.439-.05-.661-.346-.62-.79.04-.46.349-.63.784-.63" transform="translate(-1190 -9017) translate(1087 9005) translate(103 12)"></path><path fill="#377D4B" d="M36.357 76.546c-.074.367-.147.796-.61.729-.48-.067-.676-.485-.692-.95-.013-.393.155-.768.573-.752.573.019.642.534.729.973" transform="translate(-1190 -9017) translate(1087 9005) translate(103 12)"></path><path fill="#4C8758" d="M22.648 70.646c0-.598.42-1.085.848-1.051.418.031.595.338.58.688-.024.495-.317.866-.828.917-.406.044-.583-.25-.6-.554" transform="translate(-1190 -9017) translate(1087 9005) translate(103 12)"></path><path fill="#367C4A" d="M35.685 74.713c-.051.381-.14.796-.591.736-.475-.06-.683-.48-.699-.939-.015-.38.13-.76.57-.75.584.015.653.509.72.953" transform="translate(-1190 -9017) translate(1087 9005) translate(103 12)"></path><path fill="#387D4C" d="M21.449 71.952c.093-.43.2-.882.735-.908.473-.02.653.407.639.76-.018.464-.358.785-.85.783-.37 0-.517-.28-.524-.635" transform="translate(-1190 -9017) translate(1087 9005) translate(103 12)"></path><path fill="#297642" d="M9.513 71.035c.238-.001.384.016.435.182.159.496.32.991.457 1.492.067.247-.137.304-.32.385-.237.102-.357.016-.422-.205l-.426-1.428c-.098-.33.076-.427.276-.426" transform="translate(-1190 -9017) translate(1087 9005) translate(103 12)"></path><path fill="#1A1919" d="M41.402 35.849c-.331-.05-.39-.381-.712-.392v.878c-.533-.14-.609-.716-1.015-.88-.146.055-.109.162-.102.244.067.774.069.774-.665.474-.129-.058-.296-.178-.393-.058-.464.571-1.041.266-1.588.254-.416-.009-.859-.212-1.228.28-.23.31-1.67-.374-1.76-.78-.072-.33.077-.491.36-.585 1.728-.59 3.429-1.277 5.299-1.332.562-.017.966.129 1.226.644.197.395.497.745.578 1.253M32.291 35.492c-.21-.037-.532.113-.589-.224-.062-.383-.018-.792.36-1.013.8-.464 1.618-.883 2.586-.91.923-.025 1.847-.097 2.768-.168.379-.028.751-.109 1.092-.294.144-.076.308-.168.456-.018.126.126.14.297.119.466-.037.25-.231.277-.427.28-.711.016-1.422.027-2.136.041-.694.014-1.357.175-2.01.407-.532.193-.986.463-1.271.964-.212.37-.512.548-.948.469M6.379 46.32c.298-.218.596-.439.896-.657.457-.131.77.12 1.06.409.37.372.727.388 1.08-.014.533-.614 1.08-.586 1.59.003.41.475.763.392 1.17.004.25-.235.509-.515.923-.422 1.147.633 1.503 1.605 1.339 2.874-.095.742-.042 1.503-.058 2.256-.623.227-1.274.167-1.907.115-1.948-.168-3.899-.17-5.848-.14-.518.009-.65-.155-.635-.644.034-.975.016-1.952.005-2.928-.003-.355.055-.661.385-.855M55.804 46.12c.238.225.476.45.71.675.355 1.284.128 2.593.135 3.887.002.392-.342.334-.59.33-1.783-.012-3.564-.037-5.346-.06-.595-.007-1.189-.04-1.782-.01-.446.02-.564-.152-.571-.575-.014-1.048-.028-2.09.044-3.135.021-.582.555-.78.862-1.147.443-.439.882-.363 1.285.046.494.507.966.394 1.402-.046.39-.391.744-.435 1.12-.005.519.591 1.067.612 1.572.01.427-.507.776-.075 1.159.03M55.268 43.802c0 .26-.007.522 0 .782.005.243-.051.421-.342.425-.267.001-.392-.124-.39-.388.002-.546 0-1.089 0-1.634-.002-.261.12-.393.39-.392.289.004.349.182.342.424-.004.26 0 .522 0 .783M52.965 44.334c0-.259-.002-.52 0-.78 0-.24.13-.331.361-.324.19.009.33.076.332.28.005.614.005 1.23-.005 1.846-.004.22-.177.248-.355.247-.189 0-.326-.062-.33-.277-.003-.33-.001-.66-.001-.992h-.002zM51.428 43.764c0 .284.006.566-.002.849-.007.204-.132.289-.328.282-.187-.005-.322-.083-.326-.288-.005-.543-.004-1.086-.005-1.628 0-.23.17-.263.337-.27.185-.007.326.057.324.277v.778M9.843 43.79c0-.261.004-.524 0-.783-.007-.224.07-.365.318-.373.233-.007.354.101.354.337 0 .57-.005 1.142 0 1.71.002.248-.125.335-.352.331-.246-.007-.328-.139-.32-.367.01-.285 0-.571 0-.855M13.094 42.79c-.083.749.279 1.528-.154 2.253-.169.006-.386.004-.395-.2-.032-.634-.065-1.28-.01-1.911.026-.34.333-.236.559-.141M7.383 45.075c-.042-.623-.088-1.243-.132-1.866.012-.36-.01-.755.557-.563.179.723.055 1.454.074 2.184.01.363-.243.339-.497.249l-.002-.004z" transform="translate(-1190 -9017) translate(1087 9005) translate(103 12)"></path><path fill="#959793" d="M7.387 45.078c.32.053.476-.063.464-.407-.023-.674-.029-1.35-.04-2.025.354.778.158 1.588.114 2.38-.016.255-.328.284-.538.052" transform="translate(-1190 -9017) translate(1087 9005) translate(103 12)"></path><path fill="#1A1919" d="M39.018 23.83c.25.522.824.176.983.426.266.426.404.96.487 1.465.05.326-.223.54-.568.384-.845-.374-1.675-.764-2.643-.644-.228.028-.312-.17-.316-.386-.005-.305.074-.565.369-.707.533-.263 1.215.082 1.688-.538" transform="translate(-1190 -9017) translate(1087 9005) translate(103 12)"></path><path fill="#2E7D47" d="M9.116 9.628c.002-.132.006-.263.011-.397.59-.004 1.178-.01 1.767-.01.138 0 .31-.004.327.183.021.245-.177.245-.339.245-.589-.002-1.176-.014-1.766-.021" transform="translate(-1190 -9017) translate(1087 9005) translate(103 12)"></path><path fill="#F1F1ED" d="M8.467 48.939v-.49c.086 1.735.037 1.776-1.561 1.578-.253-.031-.334-.134-.334-.391.002-.926-.016-1.854.002-2.78.009-.41.66-1.115.967-1.112.361.006.984.75 1.009 1.205.002.07.005.143 1.45.214v1.776H8.467z" transform="translate(-1190 -9017) translate(1087 9005) translate(103 12)"></path><path fill="#F1F0EC" d="M13.07 48.939v.14c-.021 1.75-.021 1.742-1.808 1.587-.298-.026-.418-.111-.413-.42.016-.873-.007-1.748.01-2.623.01-.41.715-1.212 1.04-1.23.344-.019 1.144.847 1.155 1.267.01.425.004.852.004 1.279h.012z" transform="translate(-1190 -9017) translate(1087 9005) translate(103 12)"></path><path fill="#F5F5F1" d="M9.123 48.939c0-.478-.033-.953.007-1.424.057-.624.52-.949 1.052-1.12.308-.104 1.03.644 1.083 1.08.116.944.206 1.94-.034 2.828-.215.797-1.093.157-1.65.326-.297.09-.495-.042-.474-.411.025-.425.007-.856.007-1.279h.01z" transform="translate(-1190 -9017) translate(1087 9005) translate(103 12)"></path><path fill="#F2F1ED" d="M50.948 48.712v.287c-.052 1.874.27 1.464-1.62 1.53-.354.01-.524-.09-.515-.473.018-.905-.021-1.812.01-2.711.022-.634.615-.801 1.041-1.048.224-.13 1.068.721 1.078 1.06.016.451.006.903.006 1.355" transform="translate(-1190 -9017) translate(1087 9005) translate(103 12)"></path><path fill="#F3F2EE" d="M56.246 48.777c0 .095.011.189-.001.282-.057.482.245 1.195-.145 1.394-.475.242-1.152.081-1.741.093-.31.007-.318-.2-.314-.43.009-.875 0-1.753.016-2.628.007-.413.721-1.124 1.111-1.135.397-.008 1.062.69 1.073 1.145.01.425.001.852.001 1.28" transform="translate(-1190 -9017) translate(1087 9005) translate(103 12)"></path><path fill="#F1F1ED" d="M54.498 48.939v.212c-.018 1.522-.018 1.504-1.508 1.508-.45.002-.632-.108-.632-.586 0-.783-.062-1.566.016-2.348.02-.213.012-.432.154-.612.248-.319.571-.77.915-.688.482.118.942.505 1.006 1.089.047.47.008.947.008 1.425h.04z" transform="translate(-1190 -9017) translate(1087 9005) translate(103 12)"></path></g></g></g></g></svg>