<svg xmlns="http://www.w3.org/2000/svg" xmlns:xlink="http://www.w3.org/1999/xlink" width="85" height="90" viewBox="0 0 85 90"><defs><path id="tp99r74q3a" d="M0.952 0.364L23.224 0.364 23.224 16.222 0.952 16.222z"></path><path id="uvmnxo0izc" d="M0 0.444L25.387 0.444 25.387 11.813 0 11.813z"></path><path id="qpwbbwy5ye" d="M0 89.833L84.208 89.833 84.208 0 0 0z"></path></defs><g fill="none" fill-rule="evenodd"><g><g><path d="M0 0H270V120H0z" transform="translate(-510 -9020) translate(417 9005)"></path><g transform="translate(-510 -9020) translate(417 9005) translate(93 15)"><path fill="#20885C" d="M55.058 34.805H29.01s.732 1.18 1.625 1.18h22.99s1.02-.193 1.433-1.18M53.163 36.842H30.906s.732 1.18 1.622 1.18H51.73s1.02-.193 1.434-1.18M49.642 39.023H34.426s.733 1.179 1.624 1.179h12.16s1.018-.193 1.432-1.18M40.382 42.397h3.495s1.018-.192 1.432-1.179h-6.55s.733 1.18 1.623 1.18M49.103 24.296c-12.579-3.978-20.858 1.466-20.858 1.466C30.793 8.852 45.759 5.094 45.759 5.094c-3.885 12.803 3.344 19.202 3.344 19.202zm2.25 2.312l-.53.81H40.443v-3.499c3.975.03 7.669 1.087 10.91 2.69zm-12.632.81H27.705c.87-.666 2.856-1.804 7.069-2.835 1.338-.325 2.656-.525 3.947-.614v3.449zM36.112 9.06c-7.634 6.259-9.643 15.887-9.03 18.862.004.022.008.045.014.069.051.27.188.635.513 1.116.61.902 1.667 2.792 2.13 3.627h-2.353s.732 1.18 1.622 1.18H55.25s1.018-.191 1.434-1.18h-2.092l2.824-4.998h1.24v-1.974h-6.322c-1.28-.882-4.681-3.63-5.938-8.63-1.56-6.21-.19-10.414 1.528-13.533 0 0-4.123-.845-11.812 5.46z"></path><path fill="#20885C" d="M16.017 23.85s3.304.958 2.957 4.937c0 0-1.652-.734-2.384-2.039-.732-1.304-.573-2.897-.573-2.897m.638-5.496s2.77 1.802 2.038 5.496c0 0-1.497-.922-1.88-2.515-.382-1.593-.158-2.981-.158-2.981m1.846-5.299s2.484 2.484.861 5.763c0 0-1.179-.923-1.306-2.865-.128-1.942.445-2.898.445-2.898m6.337 2.761s.024 1.579-2.03 2.748c-2.054 1.17-2.527.693-2.527.693s1.142-3.058 4.557-3.44m-4.52-4.417c.221-1.562 1.08-3.09 1.08-3.09s2.166 3.184-.445 5.797c0 0-.86-1.148-.636-2.707m6.98.907s-1.288 2.888-5.324 2.602c0 0 1.288-2.96 5.324-2.602m-3.701-5.557c.7-1.72 1.561-2.229 1.561-2.229s1.21 3.153-1.561 5.413c0 0-.7-1.463 0-3.184m6.52 2.763c-2.172 2.58-5.635 1.216-5.635 1.216 2.364-2.602 5.635-1.216 5.635-1.216M27.944 3.04c1.168-1.6 1.861-1.67 1.861-1.67s.67 3.104-2.508 4.895c0 0-.524-1.624.647-3.225m6.973-.715s-1.338 3.75-4.944 2.842c0 0 1.314-2.652 4.944-2.842m-1.314 4.903s-.335.828-2.65 1.083c-2.318.255-3.225-1.083-3.225-1.083 3.343-1.916 5.875 0 5.875 0m-9.218 24.497s1.935 2.746-.335 5.47c0 0-1.958-2.796.335-5.47m1.863 9.91s-3.25.836-5.35-2.172c0 0 3.295-1.026 5.35 2.173m0-6.24s2.483 2.394.859 5.429c0 0-2.173-1.641-.86-5.43m3.94 9.251s-3.414 1.553-5.684-1.003c0 0 3.321-1.529 5.685 1.003m-1.178-6.233s2.828 2.029 1.897 5.23c0 0-2.693-1.72-1.897-5.23m5.668 8.262s-2.387 2.222-5.708.263c0 0 2.986-1.935 5.708-.263m-2.483-5.85s3.581 1.814 3.08 4.87c0 0-3.343-1.548-3.08-4.87m7.379 6.92s-1.457 2.68-5.493 1.51c0 0 1.983-2.661 5.493-1.51m.358-1.166s-2.984-.214-4.108-3.821c0 0 3.177.073 4.108 3.821M18.2 34.806s3.39-.072 4.775 3.01c0 0-3.199.5-4.775-3.01m1.71-10.796s-.158-2.89 3.662-4.323c0 0-.131 3.107-3.661 4.323m.37 4.61s-.29-3.581 2.766-4.945c0 0 .785 2.935-2.766 4.945m2.956-.81s1.002 3.516-1.54 5.34c0 0-1.206-3.297 1.54-5.34m-5.534 4.257c-1.462-1.336-1.113-2.865-1.113-2.865s3.09.764 3.95 4.123c0 0-1.376.08-2.837-1.258m30.54 10.69c-1.122 3.608-4.107 3.822-4.107 3.822.932-3.748 4.107-3.821 4.107-3.821m1.744 6.497c-4.036 1.17-5.492-1.51-5.492-1.51 3.51-1.151 5.492 1.51 5.492 1.51m1.887-8.43c.262 3.322-3.08 4.87-3.08 4.87-.503-3.056 3.08-4.87 3.08-4.87m3.223 6.113c-3.32 1.959-5.707-.263-5.707-.263 2.722-1.672 5.707.263 5.707.263m-.039-8.525c.797 3.51-1.894 5.23-1.894 5.23-.933-3.201 1.894-5.23 1.894-5.23m4.505 5.23c-2.269 2.556-5.682 1.003-5.682 1.003 2.363-2.532 5.682-1.003 5.682-1.003m-1.742-8.248c1.314 3.789-.86 5.43-.86 5.43-1.624-3.035.86-5.43.86-5.43m5.35 4.068c-2.103 3.008-5.35 2.173-5.35 2.173 2.053-3.2 5.35-2.173 5.35-2.173m-3.487-7.738c2.293 2.674.334 5.47.334 5.47-2.27-2.724-.334-5.47-.334-5.47m-.455-15.908c3.415.383 4.559 3.441 4.559 3.441s-.475.477-2.528-.693-2.031-2.748-2.031-2.748m-2.46-3.509c4.036-.358 5.326 2.602 5.326 2.602-4.036.286-5.326-2.602-5.326-2.602m-2.818-2.794s3.273-1.386 5.636 1.216c0 0-3.463 1.364-5.636-1.216m-.835-1.203c-2.318-.255-2.65-1.083-2.65-1.083s2.531-1.916 5.875 0c0 0-.908 1.338-3.225 1.083m-3.964-5.986c3.63.19 4.943 2.842 4.943 2.842-3.607.908-4.943-2.842-4.943-2.842m5.11-.955s.693.07 1.862 1.67c1.17 1.6.645 3.225.645 3.225-3.176-1.79-2.507-4.895-2.507-4.895m4.65 3.152s.858.509 1.56 2.23c.701 1.72 0 3.183 0 3.183-2.771-2.26-1.56-5.413-1.56-5.413m3.758 3.789s.857 1.528 1.083 3.09c.222 1.56-.638 2.707-.638 2.707-2.61-2.613-.445-5.797-.445-5.797m2.896 4.745s.574.956.447 2.898c-.128 1.942-1.307 2.865-1.307 2.865-1.624-3.279.86-5.763.86-5.763m1.848 5.299s.223 1.388-.16 2.98c-.382 1.594-1.879 2.516-1.879 2.516-.731-3.694 2.039-5.496 2.039-5.496m.637 5.496s.16 1.593-.573 2.897c-.731 1.305-2.383 2.039-2.383 2.039-.348-3.98 2.956-4.936 2.956-4.936m-.573 5.351s.35 1.529-1.112 2.865c-1.462 1.338-2.839 1.258-2.839 1.258.862-3.36 3.951-4.123 3.951-4.123m-6.647-1.393c2.744 2.044 1.54 5.34 1.54 5.34-2.541-1.823-1.54-5.34-1.54-5.34m2.957.811c-3.55-2.01-2.766-4.945-2.766-4.945 3.056 1.364 2.766 4.945 2.766 4.945m-3.293-8.933c3.821 1.432 3.66 4.323 3.66 4.323-3.527-1.216-3.66-4.323-3.66-4.323m.599 18.129c1.384-3.082 4.775-3.01 4.775-3.01-1.577 3.51-4.775 3.01-4.775 3.01m-44.502-9.602l-1.052.031s-.425.65 0 2.325c.462 1.824 2.45 3.184 2.45 3.184l-1.114-.063s-.253.638.448 2.292c.7 1.657 3.121 2.517 3.121 2.517s-.32.19-.669.19c-.351 0-.893.255.508 1.942 1.401 1.688 3.535 2.294 3.535 2.294s-.35 0-.637.38c-.287.383-.032.958 1.497 2.07 1.528 1.116 3.376.924 3.376.924l-.638.767s.455 1.089 2.07 1.558c2.077.604 3.63.159 3.63.159s-.852.97-.667 1.053c3.63 1.623 5.412.571 6.878-.382 1.463-.956 2.707-.767 2.707-.767s1.24-.189 2.706.767c1.465.953 3.248 2.005 6.878.382.185-.083-.67-1.053-.67-1.053s1.555.445 3.632-.16c1.615-.468 2.07-1.557 2.07-1.557l-.638-.767s1.848.192 3.377-.924c1.528-1.112 1.783-1.687 1.495-2.07-.285-.38-.636-.38-.636-.38s2.133-.606 3.535-2.294c1.401-1.687.86-1.942.508-1.942-.349 0-.669-.19-.669-.19s2.421-.86 3.122-2.517c.7-1.654.445-2.292.445-2.292l-1.114.063s1.99-1.36 2.452-3.184c.425-1.674 0-2.325 0-2.325l-1.05-.031s1.527-1.497 1.56-3.312c.032-1.815 0-2.58 0-2.58l-1.21.542s1.018-1.72.7-3.95c-.318-2.228-.445-2.228-.445-2.228l-1.18.7s.352-1.56-.062-3.66c-.414-2.102-1.114-2.198-1.114-2.198l-.797.7s.222-1.402-.638-3.248c-.859-1.846-1.942-2.325-1.942-2.325l-.382 1.083s-.542-2.133-1.784-3.565c-1.24-1.434-2.038-1.275-2.038-1.275l-.35 1.114S57.384.382 53.276 0c0 0-.35 1.974-.16 2.42 0 0-1.686-1.815-5.38-1.115 0 0 .604 3.314 3.342 4.555 0 0-1.846.668-2.293 1.558 0 0 2.038 1.72 3.98 1.88 0 0 .607 1.88 2.74 2.39 0 0 .223 1.814 2.293 3.277 0 0 0 2.033 1.687 3.39 0 0-.54 2.247.924 3.999 0 0-1.083 1.624 0 4.045 0 0-1.21.7-.797 3.95 0 0-1.973 1.145-1.624 3.564 0 0-2.132.797-2.388 3.09 0 0-2.452.567-2.962 2.607 0 0-2.291.004-3.437 1.913 0 0-4.363-.763-6.339 4.842-.105.301-.826.16-.826.16s-.722.141-.83-.16c-1.973-5.605-6.336-4.842-6.336-4.842-1.146-1.909-3.44-1.913-3.44-1.913-.51-2.04-2.96-2.607-2.96-2.607-.255-2.293-2.39-3.09-2.39-3.09.352-2.419-1.624-3.565-1.624-3.565.416-3.249-.795-3.949-.795-3.949 1.083-2.42 0-4.045 0-4.045 1.464-1.752.923-4 .923-4 1.689-1.356 1.689-3.389 1.689-3.389 2.07-1.463 2.293-3.278 2.293-3.278 2.133-.51 2.737-2.39 2.737-2.39 1.942-.158 3.98-1.879 3.98-1.879-.445-.89-2.29-1.558-2.29-1.558 2.738-1.241 3.342-4.555 3.342-4.555-3.694-.7-5.381 1.114-5.381 1.114.19-.445-.16-2.419-.16-2.419-4.107.383-4.521 4.012-4.521 4.012l-.351-1.114s-.797-.159-2.039 1.275c-1.242 1.432-1.781 3.565-1.781 3.565l-.385-1.083s-1.08.479-1.94 2.325c-.861 1.846-.638 3.249-.638 3.249l-.796-.7s-.7.095-1.114 2.196c-.414 2.102-.063 3.661-.063 3.661l-1.18-.7s-.127 0-.445 2.229c-.32 2.228.7 3.949.7 3.949l-1.21-.542s-.031.765 0 2.58c.032 1.815 1.562 3.312 1.562 3.312"></path><g transform="translate(60.984 62.113)"><mask id="562e4fv51b" fill="#fff"><use xlink:href="#tp99r74q3a"></use></mask><path fill="#20885C" d="M23.18 5.937C22.956 2.785 21.49.364 21.49.364l-2.353 1.434c2.228 3.249 1.4 7.418 1.4 7.418h-2.803V1.669H15.25v7.484h-1.718V1.702h-2.517v7.514H7.736V.619H5.188V10.68c0 3.345-4.236 3.059-4.236 3.059v2.482c5.988.064 6.465-4.426 6.465-4.426H22.7s.703-2.706.479-5.859" mask="url(#562e4fv51b)"></path></g><path fill="#20885C" d="M77.512 59.547c.732 0 1.325-.591 1.325-1.325 0-.731-.593-1.325-1.325-1.325s-1.325.594-1.325 1.325c0 .734.593 1.325 1.325 1.325M75.735 62.478c.732 0 1.325-.593 1.325-1.327 0-.73-.593-1.325-1.325-1.325s-1.325.595-1.325 1.325c0 .734.593 1.327 1.325 1.327M77.874 61.152c0 .731.593 1.326 1.325 1.326s1.327-.595 1.327-1.326c0-.732-.595-1.325-1.327-1.325s-1.325.593-1.325 1.325M40.91 60.127c0 .732.593 1.325 1.324 1.325.732 0 1.327-.593 1.327-1.325s-.595-1.327-1.327-1.327c-.731 0-1.325.595-1.325 1.327M21.473 76.58c0 .732.593 1.327 1.325 1.327s1.327-.595 1.327-1.327-.595-1.325-1.327-1.325-1.325.593-1.325 1.325M6.868 75.095c-.732 0-1.325.593-1.325 1.327 0 .73.593 1.325 1.325 1.325.731 0 1.325-.595 1.325-1.325 0-.734-.594-1.327-1.325-1.327M11.186 76.421c0-.732-.593-1.327-1.325-1.327s-1.327.595-1.327 1.327.595 1.325 1.327 1.325 1.325-.593 1.325-1.325M44.086 60.127c0 .732.594 1.325 1.325 1.325.732 0 1.327-.593 1.327-1.325s-.595-1.327-1.327-1.327c-.731 0-1.325.595-1.325 1.327"></path><path fill="#20885C" d="M51.611 70.033s1.41-1.314 3.249-2.889c1.839-1.578 4.298-2.199 6.041 0 1.745 2.196.455 4.226.455 4.226H51.61v-1.337zm-7.525-4.705v8.432H63.29s1.002-1.817 1.05-4.755c.048-2.938-3.39-6.065-6.782-5.899-3.391.168-5.947 3.632-5.947 3.632v-6.61h-2.508v11.265h-2.651v-8.571s-2.643-.185-3.678 0c-4.729.835-4.847 5.11-4.847 5.11v5.828h2.531v-5.088c0-2.986 3.628-3.344 3.628-3.344zM26.797 71.227v2.698h7.499s1.123-3.533.192-6.71c-.933-3.178-4.324-4.729-4.324-4.729l-1.194 2.268c4.156 2.628 3.2 6.473 3.2 6.473h-5.373z"></path><g transform="translate(0 62.113)"><mask id="3htkwbudsd" fill="#fff"><use xlink:href="#uvmnxo0izc"></use></mask><path fill="#20885C" d="M14.569 6.152c0-2.604 3.343-2.866 3.343-2.866v8.36h4.202c3.201 0 3.273-3.845 3.273-3.845V.564h-2.315v7.044c0 1.935-2.58 1.697-2.58 1.697V.564s-1.242.094-2.007.094c-.763 0-2.722-.094-4.299 1.266-1.844 1.593-2.149 4.204-2.149 4.204v3.009H2.603V6.535c0-1.815 1.767-4.946 1.767-4.946L2.03.444C.095 3.264 0 7.274 0 7.274v4.539h14.569v-5.66z" mask="url(#3htkwbudsd)"></path></g><path fill="#20885C" d="M5.207 86.952c-.223.399-.512.681-.863.85-.353.17-.918.253-1.698.253h-.793V82.73h.578c1.061 0 1.832.221 2.312.665.532.495.799 1.19.799 2.086 0 .583-.111 1.072-.335 1.47m.144-5.315c-.685-.303-1.733-.455-3.145-.455H.018v8.438h2.221c1.257 0 2.14-.068 2.65-.205.51-.137.983-.386 1.421-.745.436-.362.78-.813 1.028-1.358.247-.545.371-1.144.371-1.793 0-.914-.221-1.713-.665-2.398-.443-.684-1.009-1.18-1.693-1.484M13.963 86.332c0 .566-.048.95-.144 1.15-.094.2-.266.366-.513.497-.25.13-.546.194-.89.194-.326 0-.604-.06-.833-.175-.23-.117-.395-.272-.495-.468-.1-.194-.15-.527-.15-.998v-5.457H8.98v5.032c0 1.005.119 1.72.355 2.142.239.425.63.776 1.183 1.055.55.283 1.197.423 1.94.423.568 0 1.065-.074 1.492-.22.428-.148.805-.373 1.133-.68.328-.307.55-.623.665-.953.116-.33.175-.917.175-1.767v-5.032h-1.959v5.257zM22.054 87.838c-.309.168-.902.251-1.785.251h-.534v-2.162h.441c.84 0 1.438.103 1.798.316.36.209.54.495.54.861 0 .32-.153.564-.46.734zm-2.32-5.123h.55c.487 0 .851.078 1.09.231.238.155.358.364.358.626 0 .285-.125.509-.377.673-.251.166-.637.246-1.155.246h-.465v-1.776zm3.1 2.258c.406-.229.698-.475.878-.735.179-.263.27-.555.27-.876 0-.494-.198-.922-.594-1.285-.395-.364-.928-.611-1.597-.746-.47-.1-1.216-.15-2.236-.15H17.8v8.44h3.132c.902 0 1.61-.096 2.122-.288.51-.194.93-.486 1.253-.876.325-.39.486-.823.486-1.298 0-.493-.157-.92-.47-1.282-.314-.36-.81-.662-1.49-.904zM27.893 86.316l1.19-2.896 1.183 2.896h-2.373zm.323-5.134l-3.42 8.438h1.755l.721-1.737h3.62l.693 1.737h1.756l-3.412-8.438h-1.713z"></path><mask id="yv4h444vff" fill="#fff"><use xlink:href="#qpwbbwy5ye"></use></mask><path fill="#20885C" d="M34.245 89.621L36.302 89.621 36.302 81.183 34.245 81.183zM45.543 84.696c-.133.157-.316.271-.549.342-.235.068-.649.101-1.246.101h-.76V83.06h.675c.74 0 1.244.067 1.518.202.375.179.561.465.561.857 0 .226-.066.416-.2.577m.522-3.207c-.549-.207-1.441-.306-2.678-.306h-2.29v8.438h2.159v-2.6c1.098 0 1.857-.054 2.273-.16.708-.184 1.27-.51 1.684-.977.412-.468.619-1.057.619-1.763 0-.638-.157-1.185-.473-1.641-.316-.457-.747-.787-1.294-.99M54.77 87.195c-.467.48-1.037.723-1.7.723-.59 0-1.11-.187-1.567-.558-.584-.475-.878-1.12-.878-1.935 0-.732.233-1.336.697-1.81.465-.474 1.038-.71 1.722-.71.676 0 1.25.243 1.72.727.472.488.708 1.081.708 1.783 0 .705-.234 1.298-.702 1.78m-1.71-6.226c-.788 0-1.524.198-2.208.593-.682.398-1.22.934-1.61 1.61-.391.676-.585 1.42-.585 2.225 0 1.207.42 2.247 1.257 3.123.839.874 1.892 1.314 3.158 1.314 1.208 0 2.238-.427 3.086-1.28.846-.854 1.271-1.895 1.271-3.127 0-1.242-.428-2.296-1.288-3.16-.86-.865-1.886-1.298-3.08-1.298M60.687 81.182L58.913 81.182 58.913 89.62 64.643 89.62 64.643 88.088 60.687 88.088zM65.783 89.621L67.637 89.621 67.637 81.183 65.783 81.183zM77.907 89.621L83.972 89.621 83.972 88.042 79.759 88.042 79.759 85.823 83.257 85.823 83.257 84.278 79.759 84.278 79.759 82.753 83.972 82.753 83.972 81.183 77.907 81.183zM75.097 87.195c-.467.48-1.035.723-1.7.723-.59 0-1.11-.187-1.567-.558-.584-.475-.878-1.12-.878-1.935 0-.732.233-1.336.697-1.81.466-.474 1.04-.71 1.722-.71.677 0 1.25.243 1.72.727.104.107.195.22.276.338l1.395-1.38c-.092-.111-.19-.218-.293-.324-.862-.864-1.887-1.297-3.081-1.297-.79 0-1.525.198-2.208.593-.682.398-1.22.934-1.61 1.61-.392.676-.586 1.42-.586 2.225 0 1.207.42 2.247 1.259 3.123.837.874 1.89 1.314 3.156 1.314 1.209 0 2.238-.427 3.086-1.28.133-.136.253-.276.366-.418l-1.449-1.32c-.087.131-.188.26-.305.38" mask="url(#yv4h444vff)"></path></g></g></g></g></svg>