<svg xmlns="http://www.w3.org/2000/svg" width="142" height="128" viewBox="0 0 142 128" fill="none"><circle cx="60" cy="61" r="60" fill="#F5D3D4"></circle><rect x="21" y="31" width="114" height="79" fill="white"></rect><rect x="21" y="14" width="114" height="16" fill="white"></rect><path d="M136 32H20C18.896 32 18 31.104 18 30V18C18 14.692 20.692 12 24 12H132C135.308 12 138 14.692 138 18V30C138 31.104 137.104 32 136 32ZM22 28H134V18C134 16.9 133.1 16 132 16H24C22.9 16 22 16.9 22 18V28Z" fill="black"></path><path d="M40 56H28C26.896 56 26 55.104 26 54C26 52.896 26.896 52 28 52H40C41.104 52 42 52.896 42 54C42 55.104 41.104 56 40 56Z" fill="black"></path><path d="M52 48H28C26.896 48 26 47.104 26 46C26 44.896 26.896 44 28 44H52C53.104 44 54 44.896 54 46C54 47.104 53.104 48 52 48Z" fill="black"></path><path d="M44 24C45.1046 24 46 23.1046 46 22C46 20.8954 45.1046 20 44 20C42.8954 20 42 20.8954 42 22C42 23.1046 42.8954 24 44 24Z" fill="black"></path><path d="M36 24C37.1046 24 38 23.1046 38 22C38 20.8954 37.1046 20 36 20C34.8954 20 34 20.8954 34 22C34 23.1046 34.8954 24 36 24Z" fill="black"></path><path d="M28 24C29.1046 24 30 23.1046 30 22C30 20.8954 29.1046 20 28 20C26.8954 20 26 20.8954 26 22C26 23.1046 26.8954 24 28 24Z" fill="black"></path><path d="M132 112H120C118.896 112 118 111.104 118 110C118 108.896 118.896 108 120 108H132C133.1 108 134 107.104 134 106V18C134 16.896 133.1 16 132 16H24C22.9 16 22 16.896 22 18V106C22 107.104 22.9 108 24 108H68C69.104 108 70 108.896 70 110C70 111.104 69.104 112 68 112H24C20.692 112 18 109.308 18 106V18C18 14.692 20.692 12 24 12H132C135.308 12 138 14.692 138 18V106C138 109.308 135.308 112 132 112Z" fill="black"></path><path d="M110.084 112.008C109.544 112.008 109.008 111.792 108.616 111.364L103.696 106.028C103.144 105.432 103.008 104.56 103.352 103.828C104.336 101.716 105.052 99.5319 105.476 97.3359C105.632 96.5359 106.252 95.9119 107.052 95.7519L114 94.3599V89.6399L107.052 88.2479C106.256 88.0879 105.636 87.4639 105.476 86.6639C105.056 84.4679 104.336 82.2839 103.352 80.1679C103.008 79.4319 103.144 78.5639 103.696 77.9679L108.512 72.7439L105.74 68.9239L99.28 71.8959C98.54 72.2319 97.672 72.0999 97.08 71.5439C95.372 69.9519 93.516 68.5919 91.56 67.5079C90.852 67.1159 90.452 66.3319 90.544 65.5279L91.372 58.4919L86.88 57.0319L83.404 63.2239C83.004 63.9319 82.2 64.3159 81.416 64.2279C79.172 63.9519 76.832 63.9519 74.588 64.2279C73.792 64.3319 73 63.9319 72.596 63.2239L69.124 57.0319L64.632 58.4919L65.46 65.5279C65.552 66.3319 65.152 67.1159 64.444 67.5079C62.488 68.5919 60.632 69.9519 58.924 71.5439C58.336 72.0999 57.464 72.2319 56.724 71.8959L50.264 68.9239L47.492 72.7479L52.308 77.9719C52.86 78.5679 52.996 79.4399 52.652 80.1719C51.668 82.2839 50.952 84.4679 50.528 86.6639C50.372 87.4639 49.752 88.0879 48.952 88.2479L42 89.6399V94.3599L48.948 95.7519C49.744 95.9119 50.364 96.5359 50.524 97.3359C50.768 98.5879 51.108 99.8679 51.552 101.132C51.912 102.176 51.36 103.312 50.316 103.676C49.272 104.04 48.136 103.488 47.768 102.444C47.42 101.444 47.124 100.428 46.88 99.4199L39.608 97.9599C38.672 97.7719 38 96.9519 38 95.9999V87.9999C38 87.0479 38.672 86.2279 39.608 86.0399L46.88 84.5839C47.276 82.9439 47.804 81.3159 48.472 79.7199L43.432 74.2559C42.784 73.5559 42.72 72.4959 43.284 71.7239L47.988 65.2479C48.552 64.4799 49.572 64.2039 50.44 64.6079L57.196 67.7159C58.504 66.5879 59.888 65.5759 61.324 64.6919L60.456 57.3279C60.348 56.3839 60.92 55.4879 61.828 55.1919L69.436 52.7159C70.332 52.4239 71.332 52.8039 71.8 53.6399L75.428 60.1119C77.124 59.9639 78.856 59.9639 80.552 60.1119L84.184 53.6399C84.648 52.8079 85.652 52.4239 86.544 52.7159L94.152 55.1879C95.06 55.4839 95.632 56.3759 95.524 57.3239L94.656 64.6919C96.092 65.5759 97.476 66.5879 98.784 67.7159L105.54 64.6079C106.408 64.2039 107.436 64.4799 107.992 65.2479L112.696 71.7199C113.26 72.4919 113.196 73.5519 112.548 74.2519L107.508 79.7159C108.176 81.3079 108.708 82.9399 109.1 84.5799L116.372 86.0359C117.328 86.2279 118 87.0479 118 87.9999V95.9999C118 96.9519 117.328 97.7719 116.392 97.9599L109.12 99.4159C108.724 101.056 108.196 102.684 107.528 104.28L111.56 108.652C112.312 109.464 112.26 110.728 111.448 111.48C111.06 111.832 110.572 112.008 110.084 112.008ZM78 112C76.896 112 76 111.104 76 110C76 108.896 76.896 108 78 108C86.824 108 94 100.824 94 91.9999C94 83.1759 86.824 75.9999 78 75.9999C69.176 75.9999 62 83.1759 62 91.9999C62 95.2239 62.952 98.3319 64.756 100.984C65.376 101.896 65.144 103.14 64.228 103.764C63.324 104.384 62.08 104.156 61.452 103.236C59.196 99.9159 58 96.0319 58 91.9999C58 80.9719 66.972 71.9999 78 71.9999C89.028 71.9999 98 80.9719 98 91.9999C98 103.028 89.028 112 78 112Z" fill="#CB2127"></path><rect x="63" y="108" width="59" height="4" fill="black"></rect></svg>