<svg xmlns="http://www.w3.org/2000/svg" xmlns:xlink="http://www.w3.org/1999/xlink" width="217" height="46" viewBox="0 0 217 46"><defs><path id="8l8lyiuuma" d="M0 0.411L27.501 0.411 27.501 28.023 0 28.023z"></path><path id="i07hwnecfc" d="M0 45.504L216.597 45.504 216.597 0 0 0z"></path></defs><g fill="none" fill-rule="evenodd"><g><g><path d="M0 0H268V120H0z" transform="translate(-444 -8871) translate(418 8834)"></path><g transform="translate(-444 -8871) translate(418 8834) translate(26 37)"><g transform="translate(0 17.693)"><mask id="qqm4isk5sb" fill="#fff"><use xlink:href="#8l8lyiuuma"></use></mask><path fill="#1A1919" d="M19.462 20.037c-1.53 1.51-3.457 2.264-5.778 2.264-2.25 0-4.143-.768-5.682-2.303-1.541-1.536-2.31-3.494-2.31-5.874 0-2.36.757-4.298 2.268-5.808 1.513-1.511 3.412-2.268 5.699-2.268 2.337 0 4.273.743 5.803 2.228 1.527 1.488 2.292 3.426 2.292 5.826 0 2.447-.765 4.424-2.292 5.935zm2.537-16.084C20.835 2.77 19.29 1.716 17.92 1.129 16.55.538 14.331.41 12.77.41c-3.392 0-6.278 1.283-8.652 3.854-2.375 2.568-4.119 5.862-4.119 9.882 0 3.876 1.14 7.004 3.595 9.611 2.453 2.608 6.006 4.028 9.367 4.028 1.5 0 3.82-.135 5.103-.669s2.464-.982 3.741-2.194v3.1h5.696V.41H22v3.542z" mask="url(#qqm4isk5sb)"></path></g><mask id="ep1arw54kd" fill="#fff"><use xlink:href="#i07hwnecfc"></use></mask><path fill="#1A1919" d="M31.446 45.716L37.102 45.716 37.102.318 31.446.318zM59.656 37.94c-1.533 1.591-3.454 2.39-5.76 2.39-2.307 0-4.215-.79-5.722-2.366-1.505-1.575-2.256-3.634-2.256-6.177 0-2.47.762-4.498 2.284-6.084 1.524-1.584 3.429-2.374 5.721-2.374 2.343 0 4.267.782 5.775 2.351 1.505 1.564 2.256 3.601 2.256 6.107 0 2.507-.765 4.56-2.298 6.152m1.125-17.991c-2.174-1.23-4.495-1.843-6.965-1.843-3.417 0-6.438 1.182-9.068 3.542-3.002 2.711-4.501 6.1-4.501 10.168 0 3.798 1.328 7.024 3.983 9.682 2.653 2.656 5.856 3.984 9.612 3.984 2.548 0 4.88-.602 6.998-1.81 2.118-1.203 3.79-2.871 5.016-5.012 1.229-2.138 1.84-4.433 1.84-6.889 0-2.444-.608-4.714-1.83-6.82-1.217-2.105-2.913-3.773-5.085-5.002M98.777 17.8c-5.288.215-7.48 6.608-7.48 6.608s-2.483-8.014-9.679-6.267c-3.564.867-5.235 3.353-6.005 5.235v-5.575h-1.69v26.807h1.69V30.04c0-2.332 1.845-10.684 7.721-10.684s6.557 7.14 6.557 7.14v18.55h1.989v-15.88c0-2.67 1.991-9.762 8.014-9.762 6.022 0 6.118 8.16 6.118 8.16v17.044h1.609v-17.24c0-6.749-3.598-9.775-8.844-9.567M126.199 43.752c-6.898 0-12.487-5.567-12.487-12.433 0-6.867 5.59-12.433 12.487-12.433s12.486 5.566 12.486 12.433c0 6.866-5.589 12.433-12.486 12.433m0-26.937c-8.045 0-14.568 6.492-14.568 14.504 0 8.01 6.523 14.503 14.568 14.503s14.568-6.492 14.568-14.503c0-8.012-6.523-14.504-14.568-14.504M153.976 42.068L153.394 42.068 143.357 17.852 141.611 17.852 152.747 44.464 154.753 44.464 165.568 17.852 163.689 17.852zM169.055 30.039c.568-6.118 5.64-10.903 11.817-10.903 6.177 0 11.251 4.785 11.82 10.903h-23.637zm25.198 0h-.003c-.574-6.988-6.34-12.481-13.378-12.481-7.415 0-13.426 6.101-13.426 13.626 0 7.524 6.01 13.625 13.426 13.625 5.594 0 10.39-3.47 12.407-8.407h-1.701c-1.916 4.042-5.99 6.83-10.706 6.83-6.453 0-11.702-5.227-11.865-11.733h25.246v-.102h.042c.003-.07.005-.14.005-.213 0-.375-.02-.74-.047-1.109v-.036zM209.112 29.569c-6.863-1.522-8.354-3.14-8.354-5.536 0-2.394.745-5.437 7.156-5.437 6.41 0 6.023 5.437 6.023 5.437h1.586c.354-4.174-2.754-6.83-8.4-6.864-5.645-.03-8.241 3.562-8.241 6.864 0 3.303 2.427 5.536 6.605 6.312 4.174.78 9.19 1.854 9.29 5.832.102 3.974-1.81 6.765-8.514 6.765-6.703 0-6.703-6.411-6.703-6.411h-1.91c0 1.91 1.654 8.58 10.135 8.062 8.48-.52 8.81-7.156 8.81-8.355 0-1.198-.62-5.147-7.483-6.669" mask="url(#ep1arw54kd)"></path></g></g></g></g></svg>