<svg xmlns="http://www.w3.org/2000/svg" width="142" height="128" viewBox="0 0 142 128" fill="none"><circle cx="60" cy="61" r="60" fill="#F5D3D4"></circle><rect x="49" y="6" width="57" height="115" fill="white"></rect><path d="M84 16H72C70.896 16 70 15.104 70 14C70 12.896 70.896 12 72 12H84C85.104 12 86 12.896 86 14C86 15.104 85.104 16 84 16Z" fill="black"></path><path d="M100 124H56C50.484 124 46 119.512 46 114V46C46 44.896 46.896 44 48 44C49.104 44 50 44.896 50 46V114C50 117.308 52.692 120 56 120H100C103.308 120 106 117.308 106 114V46C106 44.896 106.896 44 108 44C109.104 44 110 44.896 110 46V114C110 119.512 105.516 124 100 124Z" fill="black"></path><path d="M108 60C106.896 60 106 59.104 106 58V14C106 10.692 103.308 8 100 8H56C52.692 8 50 10.692 50 14V58C50 59.104 49.104 60 48 60C46.896 60 46 59.104 46 58V14C46 8.488 50.484 4 56 4H100C105.516 4 110 8.488 110 14V58C110 59.104 109.104 60 108 60Z" fill="black"></path><path d="M120 24.2C118.896 24.2 118 23.504 118 22.4V22C118 20.896 118.896 20 120 20C121.104 20 122 20.896 122 22C122 23.104 121.104 24.2 120 24.2Z" fill="black"></path><path d="M120 32.2C118.896 32.2 118 31.504 118 30.4V30C118 28.896 118.896 28 120 28C121.104 28 122 28.896 122 30C122 31.104 121.104 32.2 120 32.2Z" fill="black"></path><path d="M120 40.2C118.896 40.2 118 39.504 118 38.4V38C118 36.896 118.896 36 120 36C121.104 36 122 36.896 122 38C122 39.104 121.104 40.2 120 40.2Z" fill="black"></path><path d="M36 91.8001C34.896 91.8001 34 91.1041 34 90.0001V89.6001C34 88.4961 34.896 87.6001 36 87.6001C37.104 87.6001 38 88.4961 38 89.6001C38 90.7041 37.104 91.8001 36 91.8001Z" fill="black"></path><path d="M36 99.8001C34.896 99.8001 34 99.1041 34 98.0001V97.6001C34 96.4961 34.896 95.6001 36 95.6001C37.104 95.6001 38 96.4961 38 97.6001C38 98.7041 37.104 99.8001 36 99.8001Z" fill="black"></path><path d="M36 107.8C34.896 107.8 34 107.104 34 106V105.6C34 104.496 34.896 103.6 36 103.6C37.104 103.6 38 104.496 38 105.6C38 106.704 37.104 107.8 36 107.8Z" fill="black"></path><path d="M113.364 108C113.224 108 113.08 107.988 112.94 107.956C111.86 107.724 111.176 106.66 111.408 105.58L112.728 99.46C112.888 98.708 113.468 98.12 114.212 97.94C116.1 97.484 117.94 96.716 119.68 95.656C120.324 95.256 121.152 95.268 121.796 95.676L125.756 98.208L128.208 95.736L125.676 91.808C125.26 91.164 125.252 90.336 125.648 89.684C126.708 87.944 127.476 86.104 127.928 84.216C128.108 83.472 128.692 82.896 129.44 82.728L134 81.716V78.288L129.444 77.276C128.696 77.108 128.112 76.532 127.932 75.788C127.48 73.9 126.708 72.06 125.652 70.32C125.252 69.668 125.26 68.844 125.676 68.2L128.212 64.236L125.764 61.788L121.8 64.324C121.156 64.736 120.332 64.744 119.684 64.344C117.94 63.284 116.1 62.516 114.216 62.06C113.468 61.88 112.892 61.288 112.732 60.54L111.748 56H110C108.896 56 108 55.104 108 54C108 52.896 108.896 52 110 52H113.36C114.3 52 115.116 52.66 115.312 53.58L116.38 58.512C117.844 58.956 119.28 59.556 120.664 60.304L124.96 57.556C125.752 57.052 126.784 57.164 127.452 57.828L132.176 62.548C132.84 63.212 132.952 64.248 132.444 65.04L129.696 69.336C130.444 70.724 131.044 72.16 131.488 73.628L136.428 74.724C137.348 74.928 138 75.744 138 76.68V83.32C138 84.256 137.348 85.072 136.432 85.272L131.492 86.368C131.048 87.836 130.448 89.272 129.7 90.656L132.444 94.912C132.956 95.7 132.848 96.74 132.184 97.404L127.46 102.164C126.792 102.832 125.756 102.944 124.964 102.44L120.668 99.692C119.28 100.44 117.848 101.04 116.384 101.484L115.316 106.416C115.112 107.36 114.28 108 113.364 108Z" fill="black"></path><path d="M115.564 90.312C114.924 90.312 114.292 90 113.904 89.428C113.288 88.512 113.532 87.268 114.452 86.652C116.672 85.156 118 82.668 118 80C118 75.588 114.412 72 110 72C109.456 72 108.916 72.056 108.4 72.16C107.328 72.376 106.26 71.688 106.036 70.6C105.816 69.516 106.512 68.46 107.596 68.24C108.38 68.084 109.188 68 110 68C116.616 68 122 73.384 122 80C122 84.004 120.012 87.732 116.676 89.972C116.336 90.2 115.948 90.312 115.564 90.312Z" fill="black"></path><path d="M46 60C39.384 60 34 54.616 34 48C34 43.98 36 40.248 39.352 38.008C40.26 37.4 41.508 37.64 42.124 38.564C42.736 39.48 42.488 40.724 41.568 41.336C39.336 42.832 38 45.32 38 48C38 52.412 41.588 56 46 56C46.536 56 47.064 55.948 47.568 55.844C48.628 55.624 49.704 56.324 49.924 57.412C50.144 58.496 49.44 59.548 48.356 59.764C47.592 59.92 46.808 60 46 60Z" fill="black"></path><path d="M46 76H42.64C41.7 76 40.884 75.34 40.688 74.42L39.62 69.488C38.156 69.044 36.72 68.444 35.336 67.696L31.04 70.444C30.244 70.948 29.216 70.84 28.548 70.172L23.824 65.452C23.16 64.788 23.048 63.752 23.556 62.96L26.304 58.664C25.556 57.276 24.956 55.84 24.512 54.372L19.572 53.276C18.652 53.072 18 52.256 18 51.32V44.68C18 43.744 18.652 42.928 19.568 42.728L24.508 41.632C24.952 40.164 25.552 38.728 26.3 37.344L23.56 33.084C23.048 32.296 23.156 31.256 23.82 30.592L28.544 25.832C29.204 25.16 30.244 25.048 31.04 25.556L35.336 28.304C36.724 27.556 38.156 26.956 39.62 26.512L40.688 21.58C40.92 20.496 42.004 19.808 43.064 20.048C44.144 20.28 44.828 21.344 44.596 22.424L43.276 28.544C43.116 29.296 42.536 29.884 41.792 30.064C39.904 30.52 38.064 31.288 36.32 32.348C35.672 32.748 34.848 32.736 34.204 32.328L30.244 29.796L27.788 32.268L30.32 36.196C30.74 36.84 30.748 37.668 30.348 38.32C29.288 40.06 28.52 41.9 28.068 43.788C27.888 44.532 27.304 45.108 26.556 45.276L22 46.284V49.712L26.556 50.724C27.304 50.892 27.888 51.468 28.068 52.212C28.52 54.1 29.292 55.94 30.348 57.68C30.748 58.332 30.74 59.156 30.324 59.8L27.788 63.76L30.236 66.208L34.2 63.672C34.844 63.264 35.672 63.256 36.316 63.652C38.06 64.712 39.9 65.48 41.784 65.936C42.532 66.116 43.108 66.708 43.268 67.456L44.252 72H46C47.104 72 48 72.896 48 74C48 75.104 47.104 76 46 76Z" fill="black"></path><g clip-path="url(#clip0_12_6484)"><path d="M83.9986 48C82.2926 48.118 80.2986 49.21 79.1366 50.632C78.0766 51.922 77.2046 53.838 77.5446 55.7C79.4086 55.758 81.3346 54.64 82.4506 53.194C83.4946 51.848 84.2846 49.944 83.9986 48Z" fill="#CB2127"></path><path d="M90.7406 58.736C89.1026 56.682 86.8006 55.49 84.6266 55.49C81.7566 55.49 80.5427 56.864 78.5487 56.864C76.4927 56.864 74.9307 55.494 72.4487 55.494C70.0107 55.494 67.4147 56.984 65.7687 59.532C63.4548 63.1199 63.8507 69.8659 67.6007 75.6119C68.9427 77.6679 70.7347 79.9798 73.0787 79.9998C75.1647 80.0198 75.7527 78.6619 78.5787 78.6479C81.4046 78.6319 81.9406 80.0178 84.0226 79.9958C86.3686 79.9778 88.2586 77.4159 89.6006 75.3599C90.5626 73.8859 90.9206 73.1439 91.6666 71.4799C86.2406 69.4139 85.3706 61.698 90.7406 58.736Z" fill="#CB2127"></path></g><defs><clipPath id="clip0_12_6484"><rect width="32" height="32" fill="white" transform="translate(62 48)"></rect></clipPath></defs></svg>