<svg xmlns="http://www.w3.org/2000/svg" xmlns:xlink="http://www.w3.org/1999/xlink" width="160" height="70" viewBox="0 0 160 70"><defs><path id="l9xdz7i7ga" d="M0.543 0.298L14.49 0.298 14.49 34.424 0.543 34.424z"></path><path id="dwrlktc1kc" d="M0.389 0.277L6.843 0.277 6.843 13.349 0.389 13.349z"></path></defs><g fill="none" fill-rule="evenodd"><g><g><path d="M0 0H268V120H0z" transform="translate(-1142 -8859) translate(1088 8834)"></path><g><path fill="#E46E31" d="M87.987 53.302c-.805.02-1.464.638-1.477 1.29-.011.755.51.921 1.097.948.745.033 1.41-.645 1.361-1.361-.044-.675-.51-.848-.98-.877m-4.181 2.265c.868.01 1.502-.565 1.48-1.326-.02-.656-.426-.926-1.046-.928-.848-.002-1.433.52-1.424 1.308.007.681.487.872.99.946M68.145 62.58v-.017c.803 0 1.613-.027 2.416.01.527.025.778-.153.785-.696.002-.247.053-.496.111-.738.147-.576-.04-.817-.656-.803-1.308.03-2.612.013-3.918.013-1.537-.002-1.526-.002-1.717 1.488-.07.534.06.779.643.755.778-.038 1.557-.012 2.336-.012m67.937-.004c1.546 0 2.952.011 4.363-.004 1.915-.023 1.917-.03 2.118-1.943.004-.05-.025-.104-.07-.264-1.873 0-3.777-.01-5.681.017-.15.003-.388.234-.428.399-.13.534-.189 1.083-.302 1.795m-8.387-53.559c.04-1.455-1.008-2.543-2.483-2.576-1.42-.031-2.55 1.066-2.577 2.503-.024 1.37 1.062 2.494 2.459 2.536 1.437.047 2.558-1.017 2.6-2.463m-26.503 33.2c-.053 1.397 1.097 2.608 2.532 2.666 1.417.057 2.698-1.115 2.783-2.546.082-1.357-1.177-2.71-2.572-2.763-1.473-.053-2.687 1.11-2.743 2.643m-3.079-2.696c-1.59-.007-2.685 1.061-2.707 2.636-.02 1.457 1.17 2.643 2.645 2.639 1.553-.002 2.65-1.077 2.663-2.605.015-1.515-1.108-2.666-2.601-2.67M58.407 8.992c-.002 1.526 1.148 2.676 2.69 2.696 1.521.022 2.72-1.161 2.71-2.667-.01-1.58-1.115-2.726-2.646-2.741-1.586-.014-2.752 1.13-2.754 2.712m22.837 25.124c.774-1.17 1.422-2.31 2.236-3.317.57-.715.523-1.186-.022-1.856-.79-.965-1.273-2.113-1.282-3.373-.024-3.265 3.49-5.644 6.621-4.534.238.087.687.12.772-.004.874-1.308 1.69-2.65 2.625-4.14-1.032-.298-1.895-.594-2.779-.783-4.07-.87-7.404.418-10.035 3.575-2.477 2.965-2.828 6.234-1.282 9.75.754 1.723 1.807 3.225 3.146 4.682M61.45 35.172c.26.016.399.05.534.032 5.42-.708 9.671-3.891 11.095-9.491.674-2.659.452-5.366.387-8.063-.009-.289-.14-.598-.289-.856-.612-1.053-1.386-1.36-2.61-1.084-1.348.307-1.982.957-2.075 2.245-.098 1.306-.038 2.625-.205 3.918-.178 1.34-.367 2.723-.854 3.962-.915 2.32-2.892 3.41-5.237 3.945-.27.06-.706.304-.71.48-.056 1.631-.036 3.26-.036 4.912m34.744-1.067c1.667.309 3.12.691 4.592.836 5.914.579 10.276-4.663 10.481-8.752.14-2.743.022-5.5-.007-8.252-.01-1.179-.892-2.138-2.022-2.28-1.562-.196-2.759.405-2.981 1.715-.214 1.275-.196 2.594-.24 3.896-.05 1.5.024 3.005-.1 4.496-.18 2.116-1.333 3.4-3.447 3.666-1.31.167-2.667-.035-4.189-.08l-2.087 4.755m30.913-15.133c.01-1.956-.41-2.599-1.54-3.008-1.601-.583-2.97.087-3.74 1.842-1.158 2.645-2.295 5.302-3.456 7.947-1.395 3.181-2.804 6.356-4.2 9.53-.85 1.936-1.718 3.865-2.546 5.807-.465 1.095-.267 2.052.478 2.67 1.08.901 2.174 1.015 3.22.44 1.059-.576 1.4-1.628 1.84-2.602 2.91-6.43 5.808-12.873 8.678-19.322.559-1.257.988-2.57 1.266-3.304m-33.74-1.188c-.552.865-1.013 1.724-1.602 2.483-.788 1.016-1.01 1.957-.007 2.952.134.129.205.331.28.51.67 1.563.877 3.13-.209 4.591-1.548 2.092-3.593 2.986-6.202 2.43-.187-.04-.52.049-.612.189-.801 1.261-1.564 2.545-2.427 3.962.934.32 1.726.656 2.547.845.854.194 1.742.24 2.754.37-.298.734-.547 1.372-.81 2.002-.4.974-.812 1.949-1.214 2.923-.474 1.155-.18 2.3.734 2.893 1.212.79 2.456.734 3.33-.227.443-.488.855-1.044 1.126-1.642 1.971-4.354 3.936-8.71 5.831-13.097 1.633-3.785.036-8.555-3.52-11.184m57.833-5.246c.185-.238.29-.403.423-.539 2.227-2.291 4.456-4.583 6.694-6.863.616-.623.948-1.35.699-2.19-.554-1.868-2.018-3.065-3.965-1.766-.322.219-.656.43-.934.697-2.677 2.552-5.329 5.132-8.016 7.675-.672.632-1.07 1.282-.917 2.254.123.76.18 1.56.118 2.327-.098 1.141.394 1.555 1.453 1.951 5.29 1.996 5.947 7.273 3.542 10.732-1.01 1.453-2.512 2.258-4.143 2.808-.465.156-.616.36-.603.816.03 1.197.052 2.394.03 3.591-.016.685.304.792.88.701 5.237-.83 9.12-3.882 10.203-9.357.908-4.583-.22-8.481-3.827-11.562-.502-.428-1.043-.815-1.637-1.275m-13.455.231c0-.907.009-1.562-.002-2.216-.032-2.338-.038-4.676-.116-7.012-.047-1.43-1.126-2.312-2.719-2.34-1.417-.027-2.287.745-2.44 2.175-.038.383-.09.775-.087 1.162.027 6.458.08 12.919.082 19.375.005 5.497 4.216 10.56 10.663 10.888.485.024.737-.096.73-.632-.013-1.25.02-2.507-.015-3.755-.005-.194-.24-.447-.434-.556-.797-.448-1.664-.786-2.423-1.282-2.062-1.36-3.137-3.308-3.322-5.775-.122-1.633.225-3.082 1.402-4.294 1.108-1.141 2.423-1.931 3.911-2.463.307-.111.803-.356.81-.554.064-1.682.04-3.368.04-5.135-2.283.359-4.216.955-6.08 2.414M22.34 12.088c0-1.224.02-2.45-.005-3.67-.02-.958-.578-1.512-1.43-1.49-.697.018-1.262.65-1.264 1.486-.013 2.421-.011 4.837.004 7.258.007.885.579 1.484 1.349 1.488.783.009 1.328-.576 1.341-1.486.016-1.195.002-2.39.005-3.586zM4.28 10.928h.025c0 1.25-.02 2.503.004 3.756.016.819.61 1.397 1.364 1.395.663-.002 1.31-.625 1.32-1.364.024-2.478.037-4.955.008-7.433-.006-.928-.578-1.462-1.384-1.442-.834.023-1.334.614-1.334 1.58-.003 1.168-.003 2.338-.003 3.508zm10.196 0h-.02c0 1.197-.02 2.394.01 3.591.02.957.575 1.578 1.365 1.598.786.017 1.382-.583 1.393-1.558.031-2.391.031-4.783-.005-7.179-.015-.986-.587-1.515-1.43-1.482-.808.031-1.284.559-1.306 1.522-.027 1.168-.007 2.338-.007 3.508zm-5.145 0h-.016c0 1.253-.038 2.503.009 3.756.035.925.667 1.49 1.488 1.457.714-.027 1.228-.623 1.264-1.502.022-.665.015-1.335.015-2.004.003-1.724.023-3.453-.01-5.177-.02-.99-.56-1.513-1.413-1.504-.864.011-1.306.467-1.333 1.464-.025 1.17-.004 2.34-.004 3.51zm4.625 18.134c-3.228 0-6.46 0-9.689-.002-.363 0-.728-.009-1.081-.069-.701-.122-1.084-.556-1.07-1.277.013-.758.47-1.183 1.188-1.261.61-.065 1.223-.045 1.837-.045 6.072 0 12.145.007 18.219.005 1.186 0 2.322-.132 3.048-1.435.353-.632.055-1.509-.572-1.871-.774-.447-1.655-.817-2.532-.968-3.504-.618-7.028-1.141-10.543-1.684-3.253-.507-6.505-1.081-9.769-1.486-1.606-.2-2.182-.639-2.336-2.17-.256-2.522-.465-5.047-.652-7.572-.062-.866.585-1.625 1.446-1.698 3.527-.298 7.057-.552 10.588-.82 3.804-.295 7.606-.588 11.41-.873 1.385-.102 2.773-.15 4.148-.307.327-.038.723-.305.865-.598.456-.946.745-1.963 1.186-2.91.12-.259.46-.472.743-.481 1.726-.067 3.455-.082 5.18-.071.738.004 1.336.652 1.323 1.33-.009.79-.48 1.264-1.328 1.275-1.12.022-2.243-.036-3.355.042-.303.023-.639.278-.748.56-1.682 4.304-3.321 8.62-4.97 12.931-.193.505-.371 1.017-.596 1.506-.194.425-.08.92.316 1.166.816.51 1.702 1.023 2.31 1.744 1.214 1.435.818 4.098-.675 5.449-1.094.988-2.376 1.544-3.862 1.548-3.344.005-6.685.002-10.03.002v.04z" transform="translate(-1142 -8859) translate(1088 8834) translate(54 25)"></path><path fill="#E46E31" d="M137.744 12.77c1.865-1.46 3.798-2.056 6.078-2.416 0 1.768.027 3.452-.035 5.137-.01.198-.505.442-.812.554-1.489.533-2.804 1.319-3.912 2.462-1.179 1.215-1.521 2.659-1.399 4.296.18 2.463 1.255 4.416 3.32 5.771.758.499 1.626.835 2.422 1.284.194.109.427.365.434.556.036 1.25.002 2.505.016 3.758.006.53-.245.654-.73.63-6.447-.33-10.659-5.393-10.663-10.886-.003-6.463-.056-12.92-.08-19.378-.003-.387.042-.776.084-1.161.154-1.43 1.021-2.203 2.438-2.178 1.593.03 2.675.912 2.72 2.34.077 2.334.084 4.674.12 7.013.008.654 0 1.308 0 2.218" transform="translate(-1142 -8859) translate(1088 8834) translate(54 25)"></path><g transform="translate(-1142 -8859) translate(1088 8834) translate(54 25) translate(144.609 .339)"><mask id="0eiuwc1tpb" fill="#fff"><use xlink:href="#l9xdz7i7ga"></use></mask><path fill="#E46E31" d="M6.588 12.198c.596.46 1.137.846 1.64 1.275 3.604 3.081 4.732 6.981 3.826 11.564-1.08 5.475-4.963 8.528-10.202 9.36-.574.089-.9-.018-.881-.708.024-1.194 0-2.391-.03-3.588-.01-.454.136-.663.601-.817 1.636-.545 3.137-1.352 4.145-2.805 2.405-3.462 1.747-8.741-3.544-10.732-1.057-.398-1.548-.812-1.453-1.954.067-.767.007-1.564-.113-2.329-.156-.972.245-1.62.914-2.251 2.686-2.541 5.34-5.122 8.016-7.678.278-.265.612-.478.934-.692 1.947-1.3 3.411-.104 3.967 1.764.247.84-.084 1.569-.698 2.192-2.24 2.278-4.47 4.572-6.7 6.86-.13.137-.235.301-.422.54" mask="url(#0eiuwc1tpb)"></path></g><path fill="#E46E31" d="M93.367 17.786c3.555 2.625 5.152 7.398 3.517 11.18-1.896 4.39-3.86 8.745-5.829 13.099-.27.598-.683 1.155-1.126 1.642-.872.96-2.118 1.014-3.332.229-.912-.596-1.206-1.742-.73-2.894.4-.975.812-1.95 1.212-2.924.26-.632.512-1.268.808-2.002-1.01-.129-1.898-.176-2.75-.372-.825-.184-1.613-.522-2.547-.84.86-1.422 1.624-2.704 2.425-3.963.091-.14.425-.229.612-.191 2.612.556 4.652-.338 6.205-2.43 1.083-1.463.874-3.025.206-4.591-.077-.178-.146-.38-.28-.51-1.003-.992-.779-1.933.007-2.952.587-.761 1.05-1.618 1.602-2.48M127.107 18.972c-.278.732-.707 2.047-1.268 3.302-2.87 6.452-5.766 12.89-8.679 19.324-.438.972-.778 2.027-1.837 2.603-1.044.574-2.14.46-3.22-.438-.745-.623-.945-1.577-.478-2.672.828-1.944 1.693-3.873 2.545-5.804 1.4-3.18 2.808-6.354 4.2-9.533 1.162-2.648 2.299-5.3 3.458-7.947.77-1.756 2.138-2.423 3.742-1.845 1.128.412 1.544 1.053 1.537 3.01M91.676 56.246c-.293 1.9-.58 3.68-.845 5.464-.283 1.909-.607 1.737 1.462 1.753 3.23.027 6.465-.007 9.695.018.638.004 1.001-.132 1.014-.848.007-.498.172-.992.19-1.49.044-1.255-.603-1.892-1.89-1.896-1.868-.007-3.735.013-5.599-.013-.483-.01-1.126.322-1.406-.363-.311-.756-.507-1.544.045-2.305.605-.834 1.194-1.675 1.797-2.512.211-.293.425-.585.64-.876.917-1.257 1.153-1.34 2.98-.963l-3.19 4.763c.578.035.956.06 1.334.078 1.858.089 3.727.07 5.567.3 1.194.149 1.98 1.183 1.906 2.385-.113 1.826-.385 3.646-.656 5.455-.027.194-.516.452-.79.452-5.348.022-10.699.01-16.047.006-1.813 0-3.624.043-5.433-.01-1.292-.036-2.603-.206-3.468-1.32-.338-.436-.663-1.048-.643-1.564.06-1.553.274-3.095.496-4.632.022-.171.476-.39.736-.398 1.854-.056 1.446.022 1.244 1.386-.109.714-.227 1.435-.274 2.153-.07 1.164.38 1.827 1.54 2.018 1.008.165 2.047.143 3.072.174.781.024 1.564-.034 2.34.013.655.042.924-.15 1.013-.85.225-1.822.59-3.626.812-5.448.091-.763.403-1.015 1.121-.937.356.04.721.007 1.237.007M96.195 34.105c.82-1.869 1.507-3.433 2.085-4.754 1.522.044 2.879.246 4.191.08 2.114-.267 3.264-1.551 3.442-3.667.127-1.49.054-2.997.105-4.496.044-1.301.026-2.619.24-3.896.22-1.308 1.42-1.91 2.981-1.715 1.128.14 2.011 1.101 2.02 2.28.03 2.753.147 5.509.01 8.254-.206 4.085-4.568 9.327-10.484 8.75-1.475-.142-2.925-.527-4.59-.836M61.453 35.172c0-1.651-.022-3.282.033-4.913.005-.173.44-.418.71-.48 2.345-.532 4.32-1.624 5.237-3.942.487-1.242.679-2.626.852-3.965.167-1.293.11-2.61.207-3.916.094-1.288.728-1.935 2.074-2.247 1.223-.275 2 .032 2.611 1.084.15.256.28.567.287.856.067 2.697.287 5.407-.384 8.06-1.424 5.605-5.676 8.784-11.1 9.496-.131.013-.269-.016-.527-.033M81.244 34.116c-1.342-1.457-2.392-2.96-3.149-4.681-1.541-3.517-1.192-6.786 1.284-9.751 2.632-3.157 5.965-4.445 10.036-3.575.883.189 1.744.485 2.779.783-.932 1.49-1.751 2.832-2.628 4.14-.08.125-.531.091-.767.004-3.13-1.11-6.65 1.269-6.623 4.534.006 1.26.494 2.408 1.281 3.373.545.67.596 1.141.022 1.856-.812 1.007-1.46 2.149-2.235 3.317M60.263 35.193c-4.897-.992-8.697-3.106-10.572-7.75-.356-.882-.49-1.894-.53-2.855-.089-2.112-.058-4.232-.067-6.35-.004-1.653.681-2.398 2.256-2.476 1.7-.084 2.732.737 2.826 2.332.1 1.726.222 3.455.162 5.179-.116 3.288 2.312 5.6 4.805 6.398.924.294 1.204.701 1.14 1.627-.085 1.243-.02 2.491-.02 3.895M128.532 61.793c0-1.433-.97-2.39-2.413-2.381-1.807.009-3.313 1.47-3.333 3.242-.016 1.374.968 2.389 2.331 2.402 1.854.02 3.415-1.47 3.415-3.263m-14.196 3.82c.172-1.124.327-2.163.492-3.198.487-3.045.974-6.093 1.47-9.139.21-1.28.22-1.28 1.511-1.241.245.006.49.044.848.078-.156 1.099-.283 2.167-.456 3.228-.39 2.443-.79 4.885-1.213 7.324-.104.596.062.832.665.81.726-.025 1.45-.016 2.174.006.474.016.667-.129.723-.652.274-2.59 1.68-4.36 4.08-5.332 2.465-.995 5.422.315 5.987 2.634.63 2.567-.868 5.455-3.31 6.534-2.105.93-4.027.919-5.776-.77-.182-.18-.56-.218-.85-.22-1.784-.023-3.564-.014-5.348-.018-.296-.002-.592-.027-.997-.045" transform="translate(-1142 -8859) translate(1088 8834) translate(54 25)"></path><g transform="translate(-1142 -8859) translate(1088 8834) translate(54 25) translate(105.563 55.958)"><mask id="8euok57qld" fill="#fff"><use xlink:href="#dwrlktc1kc"></use></mask><path fill="#E46E31" d="M.489 11.26c.205-.036.287-.065.365-.058 1.906.223 2.142-.67 2.363-2.049.427-2.665.9-5.324 1.279-7.993.104-.741.396-.944 1.07-.868.376.044.76.009 1.277.009-.176 1.112-.33 2.091-.487 3.07-.343 2.087-.672 4.176-1.033 6.26-.082.488-.218.982-.4 1.446-.716 1.84-2.25 2.626-4.16 2.123-.163-.045-.363-.325-.37-.503-.022-.465.054-.934.096-1.437" mask="url(#8euok57qld)"></path></g><path fill="#E46E31" d="M58.407 8.99c.002-1.578 1.166-2.724 2.754-2.71 1.533.015 2.637 1.16 2.648 2.743.009 1.504-1.19 2.687-2.712 2.667-1.544-.022-2.692-1.174-2.69-2.7M98.114 39.521c1.49.005 2.614 1.157 2.6 2.67-.013 1.53-1.11 2.603-2.665 2.607-1.472.003-2.663-1.183-2.643-2.638.018-1.575 1.117-2.645 2.708-2.639M101.19 42.22c.058-1.533 1.268-2.701 2.743-2.644 1.395.054 2.657 1.404 2.577 2.764-.087 1.428-1.369 2.6-2.784 2.542-1.439-.053-2.587-1.263-2.536-2.663M23.148 29.764c1.353.009 2.434 1.132 2.44 2.538.007 1.386-1.17 2.514-2.583 2.485-1.437-.033-2.502-1.143-2.489-2.596.013-1.406 1.13-2.436 2.632-2.427M127.694 9.018c-.042 1.448-1.16 2.51-2.6 2.46-1.396-.04-2.481-1.163-2.457-2.532.025-1.439 1.155-2.538 2.576-2.505 1.473.034 2.523 1.124 2.48 2.577M7.744 32.321c-.005 1.43-1.043 2.454-2.494 2.46-1.537.01-2.505-.985-2.518-2.591-.012-1.337 1.079-2.434 2.433-2.45 1.453-.017 2.588 1.117 2.579 2.581M136.082 62.577c.114-.712.172-1.262.305-1.796.038-.164.276-.396.425-.398 1.904-.027 3.807-.018 5.682-.018.042.16.073.216.069.265-.2 1.913-.2 1.92-2.12 1.942-1.406.016-2.817.005-4.36.005M68.145 62.581c-.78 0-1.558-.026-2.336.011-.583.027-.712-.22-.646-.754.194-1.49.183-1.49 1.72-1.49 1.306.002 2.61.017 3.918-.012.616-.013.803.227.656.806-.058.24-.111.49-.113.738-.005.541-.258.719-.783.695-.803-.036-1.613-.012-2.416-.012v.018zM47.099 9.27c-1.518.004-2.65 1.125-2.639 2.61.018 1.577 1.148 2.653 2.79 2.649 1.341-.004 2.525-1.215 2.518-2.578-.009-1.573-1.112-2.684-2.67-2.681m-.022 5.602c-1.657-.012-2.947-1.266-2.947-2.868 0-1.802 1.259-3.121 2.976-3.121 1.656 0 3.006 1.354 3.015 3.023.009 1.673-1.328 2.972-3.044 2.966M83.807 55.566c-.507-.071-.983-.263-.99-.946-.009-.785.574-1.31 1.424-1.308.618.002 1.026.272 1.046.928.022.76-.612 1.34-1.48 1.326M87.987 53.302c.472.029.937.202.981.877.05.716-.616 1.394-1.361 1.361-.588-.027-1.108-.193-1.097-.948.013-.652.672-1.27 1.477-1.29" transform="translate(-1142 -8859) translate(1088 8834) translate(54 25)"></path><path fill="#E46E31" d="M46.858 11.42v-.284c-.23-.131-.463-.365-.686-.354-.195.009-.536.294-.534.454.005.211.285.594.439.587.264-.006.52-.256.78-.402m-.992-1.108c.928-.058 1.827-.359 2.403.447.191.267-.053.843-.096 1.275-.07-.007-.142-.01-.213-.012.149.31.34.61.422.935.036.151-.15.356-.235.534-.13-.14-.283-.265-.383-.423-.116-.18-.131-.44-.276-.576-.403-.376-.807-.147-.945.456-.045.196-.223.365-.339.54-.113-.184-.315-.37-.322-.562-.036-.828-.016-1.658-.016-2.614" transform="translate(-1142 -8859) translate(1088 8834) translate(54 25)"></path></g></g></g></g></svg>