<svg xmlns="http://www.w3.org/2000/svg" xmlns:xlink="http://www.w3.org/1999/xlink" width="177" height="37" viewBox="0 0 177 37"><defs><path id="gwtnutndra" d="M0.021 0.047L23.463 0.047 23.463 25.523 0.021 25.523z"></path></defs><g fill="none" fill-rule="evenodd"><g><g><g><path d="M0 0H268V120H0z" transform="translate(-799 -8876) translate(753 8834)"></path><g><path fill="#40AE5D" d="M25.816 27.657c-1.399 1.735-3.304 2.912-5.43 3.416-2.353.559-4.817.445-7.06-.393-1.623-.615-3.133-1.567-4.31-2.911-1.512-1.681-2.464-3.81-2.855-6.049-2.073 0-4.088-.057-6.159 0 .334 2.69 1.174 5.265 2.63 7.393 1.23 2.015 2.968 3.75 4.928 5.04 3.641 2.407 8.177 3.305 12.487 2.743 2.185-.279 4.37-1.008 6.274-2.128 2.966-1.735 5.264-4.48 6.495-7.672.225-.558.45-1.12.504-1.678-1.848-.561-3.583-1.233-5.432-1.738-.39 1.456-1.12 2.798-2.072 3.977M27.047 12.144c.28-.111.45-.225.673-.39 1.401-1.009 2.857-1.96 4.313-2.969-.336-.729-.786-1.401-1.231-2.017C28.56 3.688 25.032 1.615 21.28 1c-.45 1.85-.895 3.641-1.288 5.433 1.288.282 2.576.784 3.695 1.513 1.513 1.008 2.69 2.518 3.36 4.2M7.223 9.569c1.513.783 3.53.279 4.592-1.066.84-1.062 1.009-2.689.393-3.92-.726-1.624-2.746-2.518-4.48-1.96-.895.336-1.736.952-2.186 1.849-.445.784-.501 1.68-.333 2.521.222 1.12 1.008 2.071 2.014 2.576" transform="translate(-799 -8876) translate(753 8834) translate(46 41)"></path><g transform="translate(-799 -8876) translate(753 8834) translate(46 41) translate(111.227 11.548)"><mask id="xneyjloapb" fill="#fff"><use xlink:href="#gwtnutndra"></use></mask><path fill="#40AE5D" d="M5.758 10.116c.338-1.12.618-2.296 1.399-3.19 2.074-2.579 6.273-2.744 8.683-.73 1.176 1.009 1.567 2.521 1.846 3.92H5.758zm12.769-8.23C14.44-.636 8.783-.636 4.917 2.333c-6.102 4.535-6.55 14.672-1.062 19.88 3.697 3.638 9.857 4.313 14.392 1.849 2.408-1.29 4.089-3.587 4.983-6.105-1.567-.505-3.134-1.066-4.703-1.456-.727.894-1.177 2.128-2.185 2.855-2.687 2.016-6.94 1.515-9.071-1.12-.952-1.065-1.288-2.519-1.568-3.92 5.878 0 11.758-.055 17.638 0 .562-4.536-.78-9.8-4.814-12.43z" mask="url(#xneyjloapb)"></path></g><path fill="#40AE5D" d="M89.994 21.664c.336-1.12.615-2.35 1.455-3.248 2.015-2.407 5.992-2.632 8.4-.84 1.29.951 1.734 2.518 2.13 3.977-3.98.222-8.01.11-11.985.11m13.438-7.671c-4.2-3.194-10.527-3.248-14.615.111-5.769 4.592-6.16 14.281-1.008 19.435 3.752 3.806 10.136 4.59 14.728 1.96 2.351-1.29 3.977-3.586 4.872-6.05-1.624-.448-3.19-.95-4.815-1.454-1.176 3.584-5.546 5.151-8.848 3.525-2.297-.895-3.587-3.303-3.866-5.656 5.88 0 11.817.057 17.697 0 .336-4.253-.615-9.07-4.145-11.871M176.122 20.488c0-2.689-1.006-5.49-3.191-7.168-4.034-2.968-10.473-1.96-13.048 2.465-2.69-5.376-11.145-5.433-14.336-.505.054-.951.054-1.96.054-3.025h-5.487V36.28h5.658c.054-4.983-.114-10.023.054-15.065.168-2.632 2.687-4.815 5.376-4.422 2.296-.06 4.145 2.015 4.145 4.256.111 5.04 0 10.134.054 15.231h5.601V23.232c0-1.345 0-2.857.73-4.088 1.398-2.69 5.484-3.248 7.615-1.12 1.008 1.065 1.23 2.63 1.23 4.088V36.28h5.545c0-5.262.054-10.527 0-15.792M52.471 30.288c-2.575 2.744-7.615 2.072-9.407-1.23-2.353-4.034-1.456-10.977 3.695-12.265 2.69-.672 5.826.561 7 3.137 1.513 3.304 1.29 7.67-1.288 10.358m7.73-17.92H54.6c0 1.066 0 2.072.056 3.08-.84-1.287-1.846-2.464-3.304-3.025-4.647-1.96-10.47 0-13.103 4.256-3.472 5.433-2.803 13.498 2.183 17.866 4.034 3.472 11.478 3.638 14.338-1.456.055 1.12.111 2.185.166 3.305h5.49c-.45-8.011-.112-16.02-.226-24.025M73.025 16.064c0-1.23.054-2.521.054-3.752h-5.598v24.025h5.712c.057-3.977 0-7.954.057-11.929.054-2.014.67-4.313 2.464-5.49 1.68-1.23 3.863-1.005 5.823-.948v-5.88c-3.304-.45-6.943.837-8.512 3.974" transform="translate(-799 -8876) translate(753 8834) translate(46 41)"></path></g></g></g></g></g></svg>