<svg xmlns="http://www.w3.org/2000/svg" xmlns:xlink="http://www.w3.org/1999/xlink" width="198" height="52" viewBox="0 0 198 52"><defs><path id="cebu61vjra" d="M64.027.62v10.56c0 1.105-.12 1.875-.355 2.303-.36.675-1.027 1.01-2.031 1.01h-.713L57.925 2.472h-1.81l3.074 12.023h-3.885v1.66h6.888c2.334 0 3.503-1.417 3.503-4.227V.62h-1.668zm-35.2 0v10.56c0 2.596-.645 3.314-2.387 3.314h-.688L22.725 2.47h-1.791l3.076 12.023h-3.884v1.66h29.009c2.356 0 3.524-1.417 3.524-4.227V5.253h-1.693v5.926c0 2.545-.595 3.29-2.383 3.29h-2.861c.314-.642.453-1.51.453-2.542V5.253h-1.668v5.926c0 2.545-.5 3.29-2.025 3.29h-3.12v-.096c.261-.65.403-1.463.403-2.446V5.253h-1.67v6.142c-.164 2.042-.997 3.074-2.523 3.074H30.019c.333-.642.5-1.51.5-2.542V.62h-1.693zm40.062 15.533h1.668V.623h-1.668v15.53zM114.599.644v13.85h-4.405 1.236v-.025h-3.93V5.253h-1.669v9.17c0 2.833-1.125 4.054-3.336 4.054v1.61c2.763-.169 4.382-1.463 4.838-3.934h22.094c.095-1.01.139-1.946.139-2.787 0-5.397-1.908-8.138-5.717-8.138-3.101 0-6.27 2.618-7.89 6.58l.383-11.164H114.6zm9.105 6.124c2.575 0 4.15 2.424 4.15 6.216 0 .478-.024.983-.074 1.51h-11.796c1.12-4.03 4.696-7.726 7.72-7.726zm-35.773-3.24h1.717v-2.04H87.93v2.04zm-3.12 0h1.714v-2.04H84.81v2.04zm-2.144 7.2c0 3.1 1.903 5.425 4.548 5.425h2.168c-.975 1.557-2.618 2.348-4.98 2.348-3.382 0-5.84-2.71-5.84-6.552V7.991H76.85v4.272c0 4.63 3.385 7.87 7.624 7.87 3.361 0 5.602-1.318 6.77-3.98h5.338c2.334 0 3.505-1.416 3.505-4.226V5.253H98.42v5.926c0 1.106-.12 1.876-.36 2.304-.333.675-1.002 1.01-2.026 1.01h-1.19v-.024H91.72V10.03c0-3.172-1.595-4.802-4.289-4.802-2.692 0-4.764 2.402-4.764 5.5zm1.712-.171c0-1.941 1.242-3.767 2.978-3.767 1.575 0 2.67 1.078 2.67 2.615v5.064l-2.76.025c-1.692 0-2.888-1.87-2.888-3.937zM5.659 5.253c-3.407 0-5.097 2.186-5.097 6.65v8.138H2.23v-8.043c0-3.262 1.262-5.28 3.43-5.28h3.264c-.928 1.008-1.406 2.326-1.406 3.937 0 3.192 1.816 5.422 5.01 5.422 2.951 0 4.955-2.206 4.955-5.422 0-3.262-1.908-5.402-4.933-5.402H5.66zm3.91 5.52c0-2.474 1.097-3.983 3.052-3.983 1.834 0 2.858 1.416 2.858 3.72 0 2.665-.975 4.008-2.951 4.008-1.862 0-2.96-1.488-2.96-3.745zm45.662 7.01c-.284.36-.426.863-.426 1.466 0 .306.046.598.142.838h-.931v.961h4.58v-.96h-2.58c-.166-.216-.234-.508-.234-.839 0-.868.333-1.297.977-1.297.5 0 .784.287.904.839l.934-.12c-.221-1.01-.838-1.513-1.862-1.513-.644 0-1.141.216-1.504.625zm43.14 2.042h1.692v-2.039H98.37v2.04zm-3.124 0h1.693v-2.039h-1.693v2.04z"></path></defs><g fill="none" fill-rule="evenodd"><g><g><path d="M0 0H270V120H0z" transform="translate(-453 -9387) translate(417 9353)"></path><g><path fill="#3FA0CB" d="M194.945 24.492h-19.233v-1.658h4.406V8.985h1.742l-.38 11.16c1.62-3.958 4.789-6.576 7.885-6.576 3.816 0 5.722 2.738 5.722 8.135 0 .841-.05 1.777-.142 2.788zm-1.646-1.658c.049-.53.07-1.034.07-1.515 0-3.792-1.569-6.213-4.146-6.213-3.025 0-6.601 3.693-7.72 7.728h11.796zm-16.35 1.658h-4.098c-.453 2.47-2.075 3.764-4.838 3.93v-1.605c2.215 0 3.337-1.223 3.337-4.059v-9.165h1.668v9.217h3.93v1.682zm-11.34-10.899v6.672c0 2.807-1.17 4.227-3.506 4.227h-2.097v-1.658h1.548c1.027 0 1.693-.335 2.026-1.01.24-.431.358-1.2.358-2.304v-5.927h1.67zm-1.718 14.57h1.69v-2.042h-1.69v2.042zm-3.123 0h1.693v-2.042h-1.693v2.042zm-7.316-16.298h1.717V9.826h-1.717v2.04zm-3.123 0h1.717V9.826h-1.717v2.04zm10.032 12.627h-3.598c-1.168 2.661-3.407 3.983-6.768 3.983-4.242 0-7.627-3.244-7.627-7.874V16.33h1.717v3.958c0 3.841 2.454 6.552 5.84 6.552 2.358 0 4.004-.791 4.979-2.347h-2.168c-2.645 0-4.55-2.33-4.55-5.425 0-3.096 2.072-5.498 4.763-5.498 2.695 0 4.292 1.632 4.292 4.802v4.439h3.12v1.682zm-4.813-1.682v-5.067c0-1.532-1.097-2.615-2.67-2.615-1.739 0-2.978 1.823-2.978 3.77 0 2.064 1.193 3.936 2.886 3.936l2.762-.024zm-21.14 1.682h1.67V8.963h-1.67v15.529zm-3.192-15.529v11.302c0 2.807-1.169 4.227-3.503 4.227h-6.89v-1.658h3.884l-3.073-12.025h1.812l3.003 12.025h.715c1 0 1.669-.335 2.026-1.01.235-.431.355-1.2.355-2.304V8.963h1.67zm-7.104 18.048l-.928.118c-.123-.552-.407-.838-.906-.838-.644 0-.978.428-.978 1.296 0 .333.071.62.238.836h2.574v.963h-4.575v-.963h.93c-.095-.235-.141-.524-.141-.836 0-.6.142-1.105.426-1.466.36-.41.86-.625 1.504-.625 1.024 0 1.643.508 1.856 1.515zm-5.935-13.418v6.672c0 2.807-1.165 4.227-3.527 4.227H98.874V22.81h2.219c1.523 0 2.356-1.035 2.523-3.074v-6.143h1.67v6.672c0 .986-.142 1.8-.406 2.45v.095h3.123c1.523 0 2.025-.745 2.025-3.29v-5.927h1.668v6.672c0 1.032-.142 1.898-.453 2.545h2.861c1.786 0 2.38-.745 2.38-3.29v-5.927h1.693zM99.66 24.492H85.647v-1.658h3.884L86.457 10.81h1.789l3.024 12.025h.691c1.742 0 2.383-.72 2.383-3.314V8.963h1.696v11.302c0 1.032-.17 1.898-.503 2.545h4.123v1.682zM83 18.993c0 3.216-2 5.428-4.957 5.428-3.194 0-5.004-2.236-5.004-5.428 0-1.608.475-2.929 1.405-3.936H71.18c-2.167 0-3.431 2.017-3.431 5.282v8.04H66.08v-8.138c0-4.464 1.692-6.648 5.1-6.648h6.887c3.028 0 4.933 2.138 4.933 5.4zm-2-.142c0-2.307-1.027-3.723-2.862-3.723-1.955 0-3.05 1.512-3.05 3.983 0 2.257 1.095 3.748 2.955 3.748 1.979 0 2.956-1.346 2.956-4.008z" transform="translate(-453 -9387) translate(417 9353) translate(36 34)"></path><g transform="translate(-453 -9387) translate(417 9353) translate(36 34) translate(65.52 8.339)"><mask id="5ajwk1vjzb" fill="#fff"><use xlink:href="#cebu61vjra"></use></mask><path fill="#3FA0CB" d="M-188.37 180.18L554.952 180.18 554.952 -102.659 -188.37 -102.659z" mask="url(#5ajwk1vjzb)"></path></g><g><path fill="#7FBD58" d="M66.47 35.462c0 .213-.074.39-.224.541-.15.147-.328.218-.538.218-.205 0-.382-.073-.532-.22-.148-.15-.224-.331-.224-.539 0-.213.074-.395.221-.543.147-.15.325-.221.535-.221.21 0 .388.071.538.221.15.148.224.33.224.543zm-1.22 9.392h.925v-7.197h-.926v7.197zm10.914-1.93c0 .608-.205 1.116-.62 1.515-.417.404-.93.603-1.54.603-.878 0-1.58-.339-2.11-1.021l.582-.658c.467.532.966.8 1.49.8.344 0 .653-.115.92-.339.273-.229.404-.516.404-.86 0-.349-.158-.655-.475-.92-.16-.133-.472-.316-.933-.556-.533-.273-.92-.544-1.163-.814-.333-.36-.5-.794-.5-1.297 0-.56.186-1.015.56-1.373.374-.352.84-.53 1.398-.53.655 0 1.315.323 1.984.972l-.592.615c-.492-.48-.97-.718-1.439-.718-.284 0-.538.092-.756.28-.221.192-.328.427-.328.708 0 .478.456.953 1.368 1.43.56.292.966.568 1.218.833.357.371.532.816.532 1.33zm5.976 1.93h.917V34.88h-.917v9.973zm14.439 0h-.91V43.62c-.772.947-1.73 1.422-2.868 1.422-1.035 0-1.906-.374-2.616-1.125-.701-.737-1.05-1.63-1.05-2.678 0-1.04.357-1.925 1.075-2.659.715-.737 1.589-1.106 2.615-1.106 1.18 0 2.13.505 2.845 1.505V37.66h.909v7.194zm-.85-3.555c0-.827-.267-1.523-.804-2.086-.536-.562-1.213-.846-2.029-.846-1.095 0-1.908.48-2.446 1.45-.26.456-.388.942-.388 1.452 0 .513.129.997.388 1.46.257.462.603.82 1.04 1.079.437.254.904.385 1.403.385.503 0 .98-.128 1.431-.38.453-.259.8-.603 1.04-1.04.246-.434.366-.928.366-1.474zm18.084 3.555h-.936v-3.926c0-.606-.027-1.027-.08-1.264-.097-.461-.31-.8-.643-1.027-.268-.174-.585-.264-.953-.264-.456 0-.866.13-1.237.4-.366.268-.633.618-.802 1.06-.17.437-.254 1.171-.254 2.206v2.815h-.912V41.17c0-.674-.022-1.13-.066-1.376-.095-.521-.31-.904-.658-1.141-.267-.186-.587-.281-.952-.281-.443 0-.852.133-1.223.406-.355.26-.617.598-.787 1.024-.18.437-.27 1.103-.27 2.001v3.05h-.912V37.66h.912v1.242c.666-.953 1.482-1.428 2.449-1.428.731 0 1.313.246 1.75.746.196.232.368.56.51.977.625-1.15 1.505-1.723 2.635-1.723 1.048 0 1.766.475 2.156 1.428.183.45.273 1.125.273 2.026v3.926zm16.525-7.194l-3.104 7.194h-.175l-2.274-5.152-2.293 5.152h-.172l-3.044-7.194h.945l2.186 5.225 2.29-5.225h.167l2.288 5.225 2.225-5.225h.961zm12.69 7.194h-.907V43.62c-.773.947-1.731 1.422-2.87 1.422-1.034 0-1.905-.374-2.615-1.125-.701-.737-1.05-1.63-1.05-2.678 0-1.04.357-1.925 1.075-2.659.715-.737 1.586-1.106 2.615-1.106 1.18 0 2.13.505 2.845 1.505V37.66h.906v7.194zm-.847-3.555c0-.827-.268-1.523-.805-2.086-.536-.562-1.21-.846-2.026-.846-1.098 0-1.911.48-2.449 1.45-.26.456-.388.942-.388 1.452 0 .513.129.997.388 1.46.26.462.606.82 1.04 1.079.437.254.904.385 1.403.385.503 0 .98-.128 1.43-.38.451-.259.798-.603 1.041-1.04.246-.434.366-.928.366-1.474zm13.429-3.639l-4.265 9.828h-.971l1.378-3.175-2.935-6.653h.97l2.457 5.542 2.386-5.542h.98zm6.62 6.208c0 .653-.186.98-.557.98-.385 0-.576-.341-.576-1.024 0-.638.186-.958.562-.958.197 0 .35.126.454.374.079.191.117.399.117.628zm12.583.986h-.915v-3.43c0-.813-.035-1.364-.104-1.662-.23-.955-.827-1.433-1.802-1.433-.554 0-1.053.18-1.493.549-.44.37-.731.83-.87 1.384-.09.346-.132.996-.132 1.957v2.635h-.92V37.66h.92v1.289c.732-.983 1.625-1.475 2.681-1.475.522 0 .988.131 1.409.399.417.265.726.633.925 1.106.2.47.3 1.195.3 2.173v3.702zm13.483-3.525h-6.424c.02.808.268 1.48.748 2.018.51.565 1.158.846 1.947.846.762 0 1.406-.235 1.938-.699.24-.213.5-.557.78-1.026l.776.41c-.483.946-1.15 1.588-2 1.921-.419.161-.894.243-1.415.243-1.073 0-1.963-.358-2.662-1.073-.707-.715-1.059-1.613-1.059-2.692 0-.914.278-1.725.835-2.443.707-.906 1.65-1.36 2.834-1.36 1.218 0 2.187.462 2.916 1.398.516.658.78 1.48.786 2.457zm-1.01-.8c-.227-.914-.715-1.548-1.466-1.897-.385-.18-.786-.27-1.215-.27-.696 0-1.302.226-1.804.682-.369.328-.647.822-.833 1.485h5.318zm10.398-2.074h-1.457v6.399h-.929v-6.4h-1.253v-.794h1.253v-2.675h.929v2.675h1.457v.795z" transform="translate(-453 -9387) translate(417 9353) translate(36 34) translate(0 .149)"></path><path fill="#FFFFFE" d="M5.457.804C2.713.804.494 3.021.494 5.76v40.369c0 2.73 2.222 4.957 4.963 4.957h40.169c2.746 0 4.963-2.222 4.963-4.957V5.759c0-2.733-2.222-4.955-4.963-4.955H5.456z" transform="translate(-453 -9387) translate(417 9353) translate(36 34) translate(0 .149)"></path><path fill="#7FBD58" d="M34.667.804V1.88l.248.158.874.554v2.105l.934 1.016v.974l-.56.828v3.008h1.27v2.817l-1.327 1.333v5.315h1.526v3.183l-.983.986V37.91l-2.973 6.047-3.503 7.128h15.452c2.747 0 4.966-2.222 4.966-4.957V5.759c0-2.733-2.225-4.955-4.966-4.955H34.667z" transform="translate(-453 -9387) translate(417 9353) translate(36 34) translate(0 .149)"></path><path fill="#3FA0CB" d="M5.457.804C2.713.804.494 3.021.494 5.76v40.369c0 2.73 2.222 4.957 4.963 4.957H7.39l7.482-4.141 16.331-9.034V24.157l-1.236-1.237v-2.932h1.777v-5.315l-1.33-1.333v-2.817h1.275V7.515l-.562-.828v-.974l.936-1.016V2.592l1.122-.712V.804H5.457z" transform="translate(-453 -9387) translate(417 9353) translate(36 34) translate(0 .149)"></path></g></g></g></g></g></svg>